Cormorant-Light.ufo
<glyph name="exclam" format="1">
  <advance width="243"/>
  <unicode hex="0021"/>
  <outline>
    <contour>
      <point x="104" y="489"/>
      <point x="110" y="322"/>
      <point x="115" y="189" type="curve" smooth="yes"/>
      <point x="115" y="186"/>
      <point x="125" y="186"/>
      <point x="125" y="189" type="curve" smooth="yes"/>
      <point x="131" y="322"/>
      <point x="138" y="489"/>
      <point x="161" y="621" type="curve" smooth="yes"/>
      <point x="163" y="625"/>
      <point x="142" y="629"/>
      <point x="122" y="629" type="curve" smooth="yes"/>
      <point x="102" y="629"/>
      <point x="82" y="625"/>
      <point x="82" y="621" type="curve" smooth="yes"/>
    </contour>
    <component base="period" xOffset="20"/>
  </outline>
</glyph>
<glyph name="numbersign" format="1">
  <advance width="526"/>
  <unicode hex="0023"/>
  <outline>
    <contour>
      <point x="236" y="476" type="line" smooth="yes"/>
      <point x="237" y="482"/>
      <point x="204" y="488"/>
      <point x="204" y="482" type="curve" smooth="yes"/>
      <point x="105" y="-75" type="line" smooth="yes"/>
      <point x="104" y="-80"/>
      <point x="138" y="-84"/>
      <point x="138" y="-78" type="curve" smooth="yes"/>
    </contour>
    <contour>
      <point x="423" y="476" type="line" smooth="yes"/>
      <point x="425" y="482"/>
      <point x="391" y="488"/>
      <point x="391" y="482" type="curve" smooth="yes"/>
      <point x="292" y="-75" type="line" smooth="yes"/>
      <point x="291" y="-80"/>
      <point x="325" y="-84"/>
      <point x="325" y="-78" type="curve" smooth="yes"/>
    </contour>
    <contour>
      <point x="428" y="77" type="line" smooth="yes"/>
      <point x="434" y="77"/>
      <point x="434" y="115"/>
      <point x="428" y="115" type="curve" smooth="yes"/>
      <point x="62" y="115" type="line" smooth="yes"/>
      <point x="57" y="115"/>
      <point x="57" y="77"/>
      <point x="63" y="77" type="curve" smooth="yes"/>
    </contour>
    <contour>
      <point x="463" y="276" type="line" smooth="yes"/>
      <point x="469" y="276"/>
      <point x="469" y="313"/>
      <point x="463" y="313" type="curve" smooth="yes"/>
      <point x="97" y="313" type="line" smooth="yes"/>
      <point x="92" y="313"/>
      <point x="92" y="276"/>
      <point x="98" y="276" type="curve" smooth="yes"/>
    </contour>
  </outline>
</glyph>
<glyph name="dollar" format="1">
  <advance width="408"/>
  <unicode hex="0024"/>
  <outline>
    <contour>
      <point x="202" y="-111"/>
      <point x="222" y="-111"/>
      <point x="222" y="-102" type="curve" smooth="yes"/>
      <point x="222" y="561" type="line" smooth="yes"/>
      <point x="222" y="571"/>
      <point x="202" y="571"/>
      <point x="202" y="561" type="curve" smooth="yes"/>
      <point x="202" y="-102" type="line" smooth="yes"/>
    </contour>
    <contour>
      <point x="119" y="432"/>
      <point x="149" y="467"/>
      <point x="201" y="467" type="curve" smooth="yes"/>
      <point x="265" y="467"/>
      <point x="315" y="408"/>
      <point x="324" y="354" type="curve" smooth="yes"/>
      <point x="325" y="349"/>
      <point x="336" y="350"/>
      <point x="336" y="356" type="curve" smooth="yes"/>
      <point x="327" y="441" type="line" smooth="yes"/>
      <point x="326" y="450"/>
      <point x="324" y="451"/>
      <point x="312" y="457" type="curve" smooth="yes"/>
      <point x="275" y="475"/>
      <point x="244" y="480"/>
      <point x="219" y="480" type="curve" smooth="yes"/>
      <point x="143" y="480"/>
      <point x="74" y="439"/>
      <point x="74" y="360" type="curve" smooth="yes"/>
      <point x="74" y="289"/>
      <point x="132" y="257"/>
      <point x="193" y="225" type="curve" smooth="yes"/>
      <point x="251" y="193"/>
      <point x="311" y="160"/>
      <point x="311" y="90" type="curve" smooth="yes"/>
      <point x="311" y="23"/>
      <point x="260" y="2"/>
      <point x="218" y="2" type="curve" smooth="yes"/>
      <point x="149" y="2"/>
      <point x="88" y="61"/>
      <point x="74" y="138" type="curve" smooth="yes"/>
      <point x="73" y="143"/>
      <point x="61" y="142"/>
      <point x="62" y="136" type="curve" smooth="yes"/>
      <point x="74" y="41" type="line" smooth="yes"/>
      <point x="75" y="32"/>
      <point x="76" y="26"/>
      <point x="83" y="22" type="curve" smooth="yes"/>
      <point x="120" y="-4"/>
      <point x="157" y="-12"/>
      <point x="195" y="-12" type="curve" smooth="yes"/>
      <point x="301" y="-12"/>
      <point x="360" y="48"/>
      <point x="360" y="120" type="curve" smooth="yes"/>
      <point x="360" y="193"/>
      <point x="297" y="226"/>
      <point x="237" y="257" type="curve" smooth="yes"/>
      <point x="178" y="288"/>
      <point x="119" y="318"/>
      <point x="119" y="384" type="curve" smooth="yes"/>
    </contour>
    <contour>
      <point x="218" y="468" type="move" name="top"/>
    </contour>
    <contour>
      <point x="215" y="0" type="move" name="bottom"/>
    </contour>
  </outline>
</glyph>
<glyph name="ampersand" format="1">
  <advance width="692"/>
  <unicode hex="0026"/>
  <outline>
    <contour>
      <point x="64" y="327"/>
      <point x="64" y="139" type="curve" smooth="yes"/>
      <point x="64" y="62"/>
      <point x="119" y="-12"/>
      <point x="244" y="-12" type="curve" smooth="yes"/>
      <point x="442" y="-12"/>
      <point x="520" y="167"/>
      <point x="553" y="283" type="curve" smooth="yes"/>
      <point x="563" y="318"/>
      <point x="571" y="338"/>
      <point x="643" y="338" type="curve" smooth="yes"/>
      <point x="648" y="338"/>
      <point x="648" y="350"/>
      <point x="643" y="350" type="curve" smooth="yes"/>
      <point x="441" y="349" type="line" smooth="yes"/>
      <point x="436" y="349"/>
      <point x="437" y="337"/>
      <point x="441" y="337" type="curve" smooth="yes"/>
      <point x="503" y="337"/>
      <point x="510" y="310"/>
      <point x="510" y="275" type="curve" smooth="yes"/>
      <point x="510" y="145"/>
      <point x="412" y="13"/>
      <point x="281" y="13" type="curve" smooth="yes"/>
      <point x="188" y="13"/>
      <point x="118" y="81"/>
      <point x="118" y="168" type="curve" smooth="yes"/>
      <point x="118" y="353"/>
      <point x="418" y="375"/>
      <point x="418" y="547" type="curve" smooth="yes"/>
      <point x="418" y="629"/>
      <point x="351" y="646"/>
      <point x="305" y="646" type="curve" smooth="yes"/>
      <point x="211" y="646"/>
      <point x="146" y="575"/>
      <point x="146" y="494" type="curve" smooth="yes"/>
      <point x="146" y="462"/>
      <point x="156" y="426"/>
      <point x="174" y="385" type="curve" smooth="yes"/>
      <point x="223" y="287"/>
      <point x="323" y="177"/>
      <point x="426" y="96" type="curve" smooth="yes"/>
      <point x="519" y="18"/>
      <point x="570" y="0"/>
      <point x="596" y="0" type="curve" smooth="yes"/>
      <point x="627" y="0"/>
      <point x="663" y="0"/>
      <point x="690" y="0" type="curve" smooth="yes"/>
      <point x="694" y="0"/>
      <point x="696" y="11"/>
      <point x="690" y="12" type="curve" smooth="yes"/>
      <point x="634" y="22"/>
      <point x="552" y="64"/>
      <point x="469" y="126" type="curve" smooth="yes"/>
      <point x="319" y="239"/>
      <point x="194" y="387"/>
      <point x="194" y="525" type="curve" smooth="yes"/>
      <point x="194" y="596"/>
      <point x="227" y="627"/>
      <point x="280" y="627" type="curve" smooth="yes"/>
      <point x="335" y="627"/>
      <point x="370" y="593"/>
      <point x="370" y="532" type="curve" smooth="yes"/>
      <point x="370" y="366"/>
    </contour>
  </outline>
</glyph>
<glyph name="quotesingle" format="1">
  <advance width="138"/>
  <unicode hex="0027"/>
  <outline>
    <contour>
      <point x="55" y="361"/>
      <point x="64" y="363"/>
      <point x="65" y="366" type="curve" smooth="yes"/>
      <point x="115" y="637" type="line" smooth="yes"/>
      <point x="117" y="648"/>
      <point x="46" y="629"/>
      <point x="47" y="609" type="curve" smooth="yes"/>
      <point x="55" y="365" type="line" smooth="yes"/>
    </contour>
  </outline>
</glyph>
<glyph name="asterisk" format="1">
  <advance width="448"/>
  <unicode hex="002A"/>
  <outline>
    <contour>
      <point x="214" y="485" type="line" smooth="yes"/>
      <point x="216" y="488"/>
      <point x="209" y="494"/>
      <point x="206" y="491" type="curve" smooth="yes"/>
      <point x="60" y="404" type="line" smooth="yes"/>
      <point x="50" y="398"/>
      <point x="119" y="371"/>
      <point x="131" y="387" type="curve" smooth="yes"/>
    </contour>
    <contour>
      <point x="274" y="304"/>
      <point x="320" y="361"/>
      <point x="310" y="378" type="curve" smooth="yes"/>
      <point x="241" y="488" type="line" smooth="yes"/>
      <point x="240" y="490"/>
      <point x="232" y="484"/>
      <point x="233" y="481" type="curve" smooth="yes"/>
      <point x="271" y="315" type="line" smooth="yes"/>
    </contour>
    <contour>
      <point x="207" y="510"/>
      <point x="211" y="518"/>
      <point x="207" y="520" type="curve" smooth="yes"/>
      <point x="78" y="633" type="line" smooth="yes"/>
      <point x="70" y="641"/>
      <point x="65" y="567"/>
      <point x="84" y="559" type="curve" smooth="yes"/>
      <point x="204" y="511" type="line" smooth="yes"/>
    </contour>
    <contour>
      <point x="433" y="487"/>
      <point x="393" y="549"/>
      <point x="374" y="544" type="curve" smooth="yes"/>
      <point x="248" y="513" type="line" smooth="yes"/>
      <point x="246" y="512"/>
      <point x="248" y="503"/>
      <point x="251" y="503" type="curve" smooth="yes"/>
      <point x="421" y="488" type="line" smooth="yes"/>
    </contour>
    <contour>
      <point x="226" y="525"/>
      <point x="235" y="525"/>
      <point x="236" y="529" type="curve" smooth="yes"/>
      <point x="303" y="685" type="line" smooth="yes"/>
      <point x="308" y="696"/>
      <point x="236" y="677"/>
      <point x="235" y="657" type="curve" smooth="yes"/>
      <point x="226" y="529" type="line" smooth="yes"/>
    </contour>
  </outline>
</glyph>
<glyph name="plus" format="1">
  <advance width="398"/>
  <unicode hex="002B"/>
  <outline>
    <contour>
      <point x="364" y="171" type="line" smooth="yes"/>
      <point x="370" y="171"/>
      <point x="370" y="208"/>
      <point x="364" y="208" type="curve" smooth="yes"/>
      <point x="33" y="208" type="line" smooth="yes"/>
      <point x="28" y="208"/>
      <point x="28" y="171"/>
      <point x="34" y="171" type="curve" smooth="yes"/>
    </contour>
    <contour>
      <point x="218" y="354" type="line" smooth="yes"/>
      <point x="218" y="360"/>
      <point x="180" y="360"/>
      <point x="180" y="354" type="curve" smooth="yes"/>
      <point x="180" y="23" type="line" smooth="yes"/>
      <point x="180" y="19"/>
      <point x="218" y="19"/>
      <point x="218" y="25" type="curve" smooth="yes"/>
    </contour>
  </outline>
</glyph>
<glyph name="comma" format="1">
  <advance width="222"/>
  <unicode hex="002C"/>
  <outline>
    <contour>
      <point x="74" y="62"/>
      <point x="61" y="50"/>
      <point x="61" y="27" type="curve" smooth="yes"/>
      <point x="61" y="6"/>
      <point x="74" y="-8"/>
      <point x="97" y="-8" type="curve" smooth="yes"/>
      <point x="117" y="-8"/>
      <point x="132" y="4"/>
      <point x="131" y="27" type="curve"/>
      <point x="93" y="20" type="line"/>
      <point x="108" y="5"/>
      <point x="122" y="-15"/>
      <point x="122" y="-54" type="curve" smooth="yes"/>
      <point x="122" y="-94"/>
      <point x="117" y="-128"/>
      <point x="87" y="-172" type="curve" smooth="yes"/>
      <point x="84" y="-176"/>
      <point x="90" y="-183"/>
      <point x="95" y="-179" type="curve" smooth="yes"/>
      <point x="138" y="-131"/>
      <point x="164" y="-82"/>
      <point x="164" y="-23" type="curve" smooth="yes"/>
      <point x="164" y="34"/>
      <point x="140" y="62"/>
      <point x="102" y="62" type="curve" smooth="yes"/>
    </contour>
  </outline>
</glyph>
<glyph name="hyphen" format="1">
  <advance width="323"/>
  <unicode hex="002D"/>
  <outline>
    <contour>
      <point x="291" y="215" type="line" smooth="yes"/>
      <point x="297" y="216"/>
      <point x="297" y="255"/>
      <point x="291" y="254" type="curve" smooth="yes"/>
      <point x="30" y="207" type="line" smooth="yes"/>
      <point x="26" y="206"/>
      <point x="26" y="167"/>
      <point x="32" y="168" type="curve" smooth="yes"/>
    </contour>
  </outline>
</glyph>
<glyph name="period" format="1">
  <advance width="195"/>
  <unicode hex="002E"/>
  <outline>
    <contour>
      <point x="123" y="-11"/>
      <point x="137" y="4"/>
      <point x="137" y="28" type="curve" smooth="yes"/>
      <point x="137" y="51"/>
      <point x="123" y="65"/>
      <point x="98" y="65" type="curve" smooth="yes"/>
      <point x="74" y="65"/>
      <point x="58" y="51"/>
      <point x="58" y="28" type="curve" smooth="yes"/>
      <point x="58" y="4"/>
      <point x="74" y="-11"/>
      <point x="98" y="-11" type="curve" smooth="yes"/>
    </contour>
  </outline>
</glyph>
<glyph name="slash" format="1">
  <advance width="339"/>
  <unicode hex="002F"/>
  <outline>
    <contour>
      <point x="313" y="718" type="line" smooth="yes"/>
      <point x="316" y="724"/>
      <point x="281" y="736"/>
      <point x="278" y="730" type="curve" smooth="yes"/>
      <point x="26" y="-152" type="line" smooth="yes"/>
      <point x="25" y="-157"/>
      <point x="60" y="-168"/>
      <point x="62" y="-163" type="curve" smooth="yes"/>
    </contour>
  </outline>
</glyph>
<glyph name="zero" format="1">
  <advance width="477"/>
  <unicode hex="0030"/>
  <outline>
    <contour>
      <point x="357" y="-13"/>
      <point x="440" y="73"/>
      <point x="440" y="193" type="curve" smooth="yes"/>
      <point x="440" y="313"/>
      <point x="358" y="399"/>
      <point x="241" y="399" type="curve" smooth="yes"/>
      <point x="122" y="399"/>
      <point x="37" y="315"/>
      <point x="37" y="196" type="curve" smooth="yes"/>
      <point x="37" y="74"/>
      <point x="122" y="-13"/>
      <point x="240" y="-13" type="curve" smooth="yes"/>
    </contour>
    <contour>
      <point x="156" y="-1"/>
      <point x="96" y="87"/>
      <point x="96" y="204" type="curve" smooth="yes"/>
      <point x="96" y="309"/>
      <point x="144" y="387"/>
      <point x="230" y="387" type="curve" smooth="yes"/>
      <point x="310" y="387"/>
      <point x="380" y="322"/>
      <point x="380" y="181" type="curve" smooth="yes"/>
      <point x="380" y="74"/>
      <point x="339" y="-1"/>
      <point x="251" y="-1" type="curve" smooth="yes"/>
    </contour>
    <contour>
      <point x="239" y="386" type="move" name="top"/>
    </contour>
  </outline>
</glyph>
<glyph name="one" format="1">
  <advance width="332"/>
  <unicode hex="0031"/>
  <outline>
    <contour>
      <point x="92" y="0"/>
      <point x="136" y="2"/>
      <point x="182" y="2" type="curve" smooth="yes"/>
      <point x="230" y="2"/>
      <point x="273" y="0"/>
      <point x="306" y="0" type="curve" smooth="yes"/>
      <point x="310" y="0"/>
      <point x="310" y="12"/>
      <point x="306" y="12" type="curve" smooth="yes"/>
      <point x="219" y="12"/>
      <point x="206" y="23"/>
      <point x="206" y="81" type="curve" smooth="yes"/>
      <point x="206" y="388" type="line" smooth="yes"/>
      <point x="206" y="392"/>
      <point x="201" y="398"/>
      <point x="196" y="395" type="curve" smooth="yes"/>
      <point x="53" y="325" type="line" smooth="yes"/>
      <point x="47" y="323"/>
      <point x="53" y="312"/>
      <point x="58" y="315" type="curve" smooth="yes"/>
      <point x="150" y="357"/>
      <point x="159" y="352"/>
      <point x="159" y="269" type="curve" smooth="yes"/>
      <point x="159" y="81" type="line" smooth="yes"/>
      <point x="159" y="23"/>
      <point x="142" y="12"/>
      <point x="58" y="12" type="curve" smooth="yes"/>
      <point x="55" y="12"/>
      <point x="55" y="0"/>
      <point x="58" y="0" type="curve" smooth="yes"/>
    </contour>
  </outline>
</glyph>
<glyph name="two" format="1">
  <advance width="402"/>
  <unicode hex="0032"/>
  <outline>
    <contour>
      <point x="33" y="7"/>
      <point x="39" y="0"/>
      <point x="44" y="0" type="curve" smooth="yes"/>
      <point x="144" y="0"/>
      <point x="254" y="0"/>
      <point x="349" y="0" type="curve" smooth="yes"/>
      <point x="354" y="0"/>
      <point x="358" y="6"/>
      <point x="358" y="11" type="curve" smooth="yes"/>
      <point x="372" y="109" type="line" smooth="yes"/>
      <point x="372" y="112"/>
      <point x="361" y="113"/>
      <point x="360" y="110" type="curve" smooth="yes"/>
      <point x="345" y="42"/>
      <point x="320" y="41"/>
      <point x="112" y="41" type="curve" smooth="yes"/>
      <point x="106" y="41"/>
      <point x="103" y="44"/>
      <point x="108" y="48" type="curve" smooth="yes"/>
      <point x="267" y="170"/>
      <point x="323" y="232"/>
      <point x="323" y="299" type="curve" smooth="yes"/>
      <point x="323" y="358"/>
      <point x="282" y="399"/>
      <point x="214" y="399" type="curve" smooth="yes"/>
      <point x="167" y="399"/>
      <point x="133" y="380"/>
      <point x="113" y="380" type="curve" smooth="yes"/>
      <point x="104" y="380"/>
      <point x="94" y="384"/>
      <point x="99" y="406" type="curve" smooth="yes"/>
      <point x="101" y="409"/>
      <point x="89" y="412"/>
      <point x="88" y="408" type="curve" smooth="yes"/>
      <point x="50" y="261" type="line" smooth="yes"/>
      <point x="49" y="257"/>
      <point x="61" y="255"/>
      <point x="62" y="258" type="curve" smooth="yes"/>
      <point x="84" y="339"/>
      <point x="125" y="379"/>
      <point x="178" y="379" type="curve" smooth="yes"/>
      <point x="230" y="379"/>
      <point x="270" y="345"/>
      <point x="270" y="288" type="curve" smooth="yes"/>
      <point x="270" y="214"/>
      <point x="209" y="146"/>
      <point x="37" y="12" type="curve" smooth="yes"/>
    </contour>
  </outline>
</glyph>
<glyph name="three" format="1">
  <advance width="388"/>
  <unicode hex="0033"/>
  <outline>
    <contour>
      <point x="257" y="-222"/>
      <point x="345" y="-103"/>
      <point x="345" y="-8" type="curve" smooth="yes"/>
      <point x="345" y="62"/>
      <point x="297" y="131"/>
      <point x="193" y="131" type="curve"/>
      <point x="175" y="119" type="line"/>
      <point x="263" y="137"/>
      <point x="316" y="211"/>
      <point x="316" y="285" type="curve" smooth="yes"/>
      <point x="316" y="344"/>
      <point x="276" y="399"/>
      <point x="200" y="399" type="curve" smooth="yes"/>
      <point x="152" y="399"/>
      <point x="118" y="377"/>
      <point x="98" y="377" type="curve" smooth="yes"/>
      <point x="89" y="377"/>
      <point x="77" y="382"/>
      <point x="83" y="405" type="curve" smooth="yes"/>
      <point x="84" y="408"/>
      <point x="73" y="411"/>
      <point x="71" y="407" type="curve" smooth="yes"/>
      <point x="34" y="261" type="line" smooth="yes"/>
      <point x="33" y="257"/>
      <point x="44" y="255"/>
      <point x="46" y="258" type="curve" smooth="yes"/>
      <point x="69" y="344"/>
      <point x="109" y="379"/>
      <point x="167" y="379" type="curve" smooth="yes"/>
      <point x="233" y="379"/>
      <point x="261" y="333"/>
      <point x="261" y="268" type="curve" smooth="yes"/>
      <point x="261" y="189"/>
      <point x="226" y="143"/>
      <point x="116" y="115" type="curve" smooth="yes"/>
      <point x="111" y="113"/>
      <point x="115" y="102"/>
      <point x="119" y="103" type="curve" smooth="yes"/>
      <point x="138" y="108"/>
      <point x="154" y="109"/>
      <point x="170" y="109" type="curve" smooth="yes"/>
      <point x="255" y="109"/>
      <point x="283" y="43"/>
      <point x="283" y="-19" type="curve" smooth="yes"/>
      <point x="283" y="-98"/>
      <point x="235" y="-212"/>
      <point x="55" y="-264" type="curve" smooth="yes"/>
      <point x="50" y="-265"/>
      <point x="55" y="-276"/>
      <point x="60" y="-275" type="curve" smooth="yes"/>
    </contour>
  </outline>
</glyph>
<glyph name="four" format="1">
  <advance width="450"/>
  <unicode hex="0034"/>
  <outline>
    <contour>
      <point x="221" y="8"/>
      <point x="304" y="7"/>
      <point x="412" y="1" type="curve" smooth="yes"/>
      <point x="418" y="1"/>
      <point x="418" y="43"/>
      <point x="412" y="43" type="curve" smooth="yes"/>
      <point x="297" y="40"/>
      <point x="229" y="37"/>
      <point x="74" y="37" type="curve" smooth="yes"/>
      <point x="68" y="37"/>
      <point x="65" y="40"/>
      <point x="69" y="44" type="curve" smooth="yes"/>
      <point x="294" y="338" type="line"/>
      <point x="274" y="325" type="line"/>
      <point x="274" y="-182" type="line" smooth="yes"/>
      <point x="274" y="-191"/>
      <point x="276" y="-192"/>
      <point x="283" y="-188" type="curve" smooth="yes"/>
      <point x="315" y="-172" type="line" smooth="yes"/>
      <point x="320" y="-170"/>
      <point x="323" y="-165"/>
      <point x="323" y="-158" type="curve" smooth="yes"/>
      <point x="323" y="392" type="line" smooth="yes"/>
      <point x="323" y="398"/>
      <point x="311" y="400"/>
      <point x="308" y="396" type="curve" smooth="yes"/>
      <point x="21" y="20" type="line" smooth="yes"/>
      <point x="16" y="14"/>
      <point x="22" y="8"/>
      <point x="28" y="8" type="curve" smooth="yes"/>
    </contour>
  </outline>
</glyph>
<glyph name="five" format="1">
  <advance width="409"/>
  <unicode hex="0035"/>
  <outline>
    <contour>
      <point x="78" y="172" type="line"/>
      <point x="104" y="320" type="line" smooth="yes"/>
      <point x="105" y="330"/>
      <point x="110" y="335"/>
      <point x="119" y="335" type="curve" smooth="yes"/>
      <point x="308" y="339" type="line" smooth="yes"/>
      <point x="324" y="339"/>
      <point x="331" y="340"/>
      <point x="336" y="357" type="curve" smooth="yes"/>
      <point x="356" y="421" type="line" smooth="yes"/>
      <point x="357" y="426"/>
      <point x="346" y="427"/>
      <point x="345" y="423" type="curve" smooth="yes"/>
      <point x="336" y="396"/>
      <point x="333" y="395"/>
      <point x="103" y="368" type="curve" smooth="yes"/>
      <point x="92" y="367"/>
      <point x="91" y="366"/>
      <point x="90" y="357" type="curve" smooth="yes"/>
      <point x="58" y="179" type="line" smooth="yes"/>
      <point x="57" y="173"/>
      <point x="61" y="167"/>
      <point x="68" y="167" type="curve" smooth="yes"/>
      <point x="214" y="167"/>
      <point x="292" y="101"/>
      <point x="292" y="-8" type="curve" smooth="yes"/>
      <point x="292" y="-95"/>
      <point x="241" y="-178"/>
      <point x="62" y="-264" type="curve" smooth="yes"/>
      <point x="57" y="-267"/>
      <point x="63" y="-277"/>
      <point x="68" y="-275" type="curve" smooth="yes"/>
      <point x="267" y="-182"/>
      <point x="349" y="-104"/>
      <point x="349" y="9" type="curve" smooth="yes"/>
      <point x="349" y="119"/>
      <point x="273" y="196"/>
      <point x="78" y="196" type="curve"/>
    </contour>
  </outline>
</glyph>
<glyph name="six" format="1">
  <advance width="465"/>
  <unicode hex="0036"/>
  <outline>
    <contour>
      <point x="236" y="282"/>
      <point x="186" y="258"/>
      <point x="150" y="213" type="curve" smooth="yes"/>
      <point x="147" y="209"/>
      <point x="157" y="202"/>
      <point x="160" y="206" type="curve" smooth="yes"/>
      <point x="200" y="242"/>
      <point x="229" y="257"/>
      <point x="267" y="257" type="curve" smooth="yes"/>
      <point x="340" y="257"/>
      <point x="373" y="202"/>
      <point x="373" y="133" type="curve" smooth="yes"/>
      <point x="373" y="53"/>
      <point x="326" y="5"/>
      <point x="258" y="5" type="curve" smooth="yes"/>
      <point x="160" y="5"/>
      <point x="104" y="104"/>
      <point x="104" y="226" type="curve" smooth="yes"/>
      <point x="104" y="380"/>
      <point x="204" y="561"/>
      <point x="405" y="650" type="curve" smooth="yes"/>
      <point x="409" y="653"/>
      <point x="405" y="662"/>
      <point x="400" y="661" type="curve" smooth="yes"/>
      <point x="179" y="584"/>
      <point x="49" y="393"/>
      <point x="49" y="208" type="curve" smooth="yes"/>
      <point x="49" y="67"/>
      <point x="119" y="-13"/>
      <point x="230" y="-13" type="curve" smooth="yes"/>
      <point x="339" y="-13"/>
      <point x="428" y="64"/>
      <point x="428" y="159" type="curve" smooth="yes"/>
      <point x="428" y="220"/>
      <point x="393" y="282"/>
      <point x="296" y="282" type="curve" smooth="yes"/>
    </contour>
  </outline>
</glyph>
<glyph name="seven" format="1">
  <advance width="429"/>
  <unicode hex="0037"/>
  <outline>
    <contour>
      <point x="391" y="373" type="line" smooth="yes"/>
      <point x="393" y="378"/>
      <point x="388" y="386"/>
      <point x="382" y="386" type="curve" smooth="yes"/>
      <point x="299" y="386"/>
      <point x="157" y="386"/>
      <point x="117" y="386" type="curve" smooth="yes"/>
      <point x="73" y="386"/>
      <point x="65" y="389"/>
      <point x="70" y="412" type="curve" smooth="yes"/>
      <point x="71" y="415"/>
      <point x="60" y="416"/>
      <point x="58" y="413" type="curve" smooth="yes"/>
      <point x="26" y="280" type="line" smooth="yes"/>
      <point x="25" y="275"/>
      <point x="36" y="273"/>
      <point x="37" y="277" type="curve" smooth="yes"/>
      <point x="56" y="339"/>
      <point x="68" y="345"/>
      <point x="352" y="345" type="curve" smooth="yes"/>
      <point x="358" y="345"/>
      <point x="359" y="343"/>
      <point x="357" y="338" type="curve" smooth="yes"/>
      <point x="89" y="-268" type="line" smooth="yes"/>
      <point x="88" y="-271"/>
      <point x="94" y="-276"/>
      <point x="96" y="-275" type="curve" smooth="yes"/>
      <point x="138" y="-244" type="line" smooth="yes"/>
      <point x="147" y="-237"/>
      <point x="154" y="-233"/>
      <point x="159" y="-220" type="curve" smooth="yes"/>
    </contour>
    <contour>
      <point x="196" y="386" type="move" name="top"/>
    </contour>
  </outline>
</glyph>
<glyph name="eight" format="1">
  <advance width="489"/>
  <unicode hex="0038"/>
  <outline>
    <contour>
      <point x="278" y="333" type="line"/>
      <point x="349" y="374"/>
      <point x="389" y="422"/>
      <point x="389" y="469" type="curve" smooth="yes"/>
      <point x="389" y="519"/>
      <point x="340" y="574"/>
      <point x="260" y="574" type="curve" smooth="yes"/>
      <point x="193" y="574"/>
      <point x="104" y="536"/>
      <point x="104" y="456" type="curve" smooth="yes"/>
      <point x="104" y="389"/>
      <point x="168" y="357"/>
      <point x="237" y="320" type="curve" smooth="yes"/>
      <point x="317" y="280"/>
      <point x="402" y="236"/>
      <point x="402" y="132" type="curve" smooth="yes"/>
      <point x="402" y="50"/>
      <point x="344" y="4"/>
      <point x="270" y="4" type="curve" smooth="yes"/>
      <point x="172" y="4"/>
      <point x="105" y="87"/>
      <point x="105" y="175" type="curve" smooth="yes"/>
      <point x="105" y="254"/>
      <point x="150" y="318"/>
      <point x="229" y="352" type="curve"/>
      <point x="223" y="360" type="line"/>
      <point x="142" y="332"/>
      <point x="49" y="248"/>
      <point x="49" y="149" type="curve" smooth="yes"/>
      <point x="49" y="65"/>
      <point x="124" y="-13"/>
      <point x="242" y="-13" type="curve" smooth="yes"/>
      <point x="356" y="-13"/>
      <point x="451" y="61"/>
      <point x="451" y="161" type="curve" smooth="yes"/>
      <point x="451" y="260"/>
      <point x="366" y="305"/>
      <point x="285" y="347" type="curve" smooth="yes"/>
      <point x="216" y="384"/>
      <point x="151" y="418"/>
      <point x="151" y="483" type="curve" smooth="yes"/>
      <point x="151" y="532"/>
      <point x="189" y="559"/>
      <point x="236" y="559" type="curve" smooth="yes"/>
      <point x="296" y="559"/>
      <point x="339" y="517"/>
      <point x="339" y="453" type="curve" smooth="yes"/>
      <point x="339" y="407"/>
      <point x="317" y="374"/>
      <point x="273" y="339" type="curve"/>
    </contour>
  </outline>
</glyph>
<glyph name="nine" format="1">
  <advance width="465"/>
  <unicode hex="0039"/>
  <outline>
    <contour>
      <point x="237" y="110"/>
      <point x="283" y="130"/>
      <point x="316" y="167" type="curve" smooth="yes"/>
      <point x="318" y="171"/>
      <point x="309" y="178"/>
      <point x="305" y="174" type="curve" smooth="yes"/>
      <point x="270" y="146"/>
      <point x="246" y="135"/>
      <point x="208" y="135" type="curve" smooth="yes"/>
      <point x="130" y="135"/>
      <point x="92" y="194"/>
      <point x="92" y="262" type="curve" smooth="yes"/>
      <point x="92" y="338"/>
      <point x="136" y="381"/>
      <point x="201" y="381" type="curve" smooth="yes"/>
      <point x="319" y="381"/>
      <point x="361" y="240"/>
      <point x="361" y="144" type="curve" smooth="yes"/>
      <point x="361" y="-2"/>
      <point x="262" y="-185"/>
      <point x="61" y="-264" type="curve" smooth="yes"/>
      <point x="56" y="-267"/>
      <point x="61" y="-276"/>
      <point x="65" y="-275" type="curve" smooth="yes"/>
      <point x="287" y="-207"/>
      <point x="416" y="-16"/>
      <point x="416" y="164" type="curve" smooth="yes"/>
      <point x="416" y="304"/>
      <point x="339" y="399"/>
      <point x="218" y="399" type="curve" smooth="yes"/>
      <point x="118" y="399"/>
      <point x="37" y="335"/>
      <point x="37" y="244" type="curve" smooth="yes"/>
      <point x="37" y="184"/>
      <point x="76" y="110"/>
      <point x="180" y="110" type="curve" smooth="yes"/>
    </contour>
  </outline>
</glyph>
<glyph name="question" format="1">
  <advance width="327"/>
  <unicode hex="003F"/>
  <outline>
    <contour>
      <point x="202" y="613"/>
      <point x="235" y="575"/>
      <point x="235" y="517" type="curve" smooth="yes"/>
      <point x="235" y="409"/>
      <point x="126" y="407"/>
      <point x="126" y="310" type="curve" smooth="yes"/>
      <point x="126" y="282"/>
      <point x="136" y="228"/>
      <point x="152" y="191" type="curve" smooth="yes"/>
      <point x="153" y="187"/>
      <point x="164" y="189"/>
      <point x="163" y="193" type="curve" smooth="yes"/>
      <point x="159" y="214"/>
      <point x="157" y="232"/>
      <point x="157" y="248" type="curve" smooth="yes"/>
      <point x="157" y="294"/>
      <point x="174" y="325"/>
      <point x="221" y="372" type="curve" smooth="yes"/>
      <point x="255" y="406"/>
      <point x="292" y="441"/>
      <point x="292" y="505" type="curve" smooth="yes"/>
      <point x="292" y="586"/>
      <point x="233" y="625"/>
      <point x="161" y="625" type="curve" smooth="yes"/>
      <point x="98" y="625"/>
      <point x="46" y="594"/>
      <point x="46" y="558" type="curve" smooth="yes"/>
      <point x="46" y="543"/>
      <point x="57" y="527"/>
      <point x="76" y="527" type="curve" smooth="yes"/>
      <point x="99" y="527"/>
      <point x="106" y="545"/>
      <point x="110" y="565" type="curve" smooth="yes"/>
      <point x="113" y="587"/>
      <point x="118" y="613"/>
      <point x="157" y="613" type="curve" smooth="yes"/>
    </contour>
    <component base="period" xOffset="48"/>
  </outline>
</glyph>
<glyph name="at" format="1">
  <advance width="717"/>
  <unicode hex="0040"/>
  <outline>
    <contour>
      <point x="408" y="85"/>
      <point x="422" y="50"/>
      <point x="467" y="50" type="curve" smooth="yes"/>
      <point x="560" y="50"/>
      <point x="641" y="152"/>
      <point x="641" y="264" type="curve" smooth="yes"/>
      <point x="641" y="387"/>
      <point x="544" y="491"/>
      <point x="396" y="491" type="curve" smooth="yes"/>
      <point x="232" y="491"/>
      <point x="76" y="359"/>
      <point x="76" y="173" type="curve" smooth="yes"/>
      <point x="76" y="5"/>
      <point x="202" y="-95"/>
      <point x="360" y="-95" type="curve" smooth="yes"/>
      <point x="412" y="-95"/>
      <point x="490" y="-85"/>
      <point x="563" y="-28" type="curve" smooth="yes"/>
      <point x="566" y="-26"/>
      <point x="560" y="-18"/>
      <point x="557" y="-20" type="curve" smooth="yes"/>
      <point x="494" y="-55"/>
      <point x="454" y="-65"/>
      <point x="391" y="-65" type="curve" smooth="yes"/>
      <point x="228" y="-65"/>
      <point x="115" y="40"/>
      <point x="115" y="198" type="curve" smooth="yes"/>
      <point x="115" y="340"/>
      <point x="208" y="468"/>
      <point x="364" y="468" type="curve" smooth="yes"/>
      <point x="503" y="468"/>
      <point x="609" y="364"/>
      <point x="609" y="236" type="curve" smooth="yes"/>
      <point x="609" y="129"/>
      <point x="543" y="68"/>
      <point x="488" y="68" type="curve" smooth="yes"/>
      <point x="447" y="68"/>
      <point x="448" y="97"/>
      <point x="455" y="136" type="curve" smooth="yes"/>
      <point x="496" y="360" type="line" smooth="yes"/>
      <point x="497" y="363"/>
      <point x="480" y="364"/>
      <point x="478" y="361" type="curve" smooth="yes"/>
      <point x="475" y="342"/>
      <point x="458" y="326"/>
      <point x="447" y="324" type="curve"/>
      <point x="476" y="305" type="line"/>
      <point x="473" y="340"/>
      <point x="444" y="354"/>
      <point x="418" y="354" type="curve" smooth="yes"/>
      <point x="339" y="354"/>
      <point x="234" y="235"/>
      <point x="218" y="125" type="curve" smooth="yes"/>
      <point x="211" y="70"/>
      <point x="235" y="48"/>
      <point x="267" y="48" type="curve" smooth="yes"/>
      <point x="327" y="48"/>
      <point x="401" y="130"/>
      <point x="448" y="241" type="curve"/>
      <point x="434" y="228" type="line"/>
      <point x="416" y="136" type="line" smooth="yes"/>
    </contour>
    <contour>
      <point x="260" y="81"/>
      <point x="254" y="105"/>
      <point x="261" y="153" type="curve" smooth="yes"/>
      <point x="276" y="249"/>
      <point x="343" y="330"/>
      <point x="394" y="331" type="curve" smooth="yes"/>
      <point x="433" y="332"/>
      <point x="448" y="303"/>
      <point x="441" y="269" type="curve" smooth="yes"/>
      <point x="421" y="180"/>
      <point x="346" y="81"/>
      <point x="288" y="81" type="curve" smooth="yes"/>
    </contour>
  </outline>
</glyph>
<glyph name="B" format="1">
  <advance width="549"/>
  <unicode hex="0042"/>
  <outline>
    <contour>
      <point x="378" y="365"/>
      <point x="439" y="419"/>
      <point x="439" y="495" type="curve" smooth="yes"/>
      <point x="439" y="566"/>
      <point x="395" y="628"/>
      <point x="277" y="628" type="curve" smooth="yes"/>
      <point x="247" y="628"/>
      <point x="194" y="622"/>
      <point x="160" y="622" type="curve" smooth="yes"/>
      <point x="117" y="622"/>
      <point x="77" y="625"/>
      <point x="46" y="625" type="curve" smooth="yes"/>
      <point x="42" y="625"/>
      <point x="42" y="613"/>
      <point x="46" y="613" type="curve" smooth="yes"/>
      <point x="122" y="613"/>
      <point x="135" y="601"/>
      <point x="135" y="544" type="curve" smooth="yes"/>
      <point x="135" y="81" type="line" smooth="yes"/>
      <point x="135" y="23"/>
      <point x="120" y="12"/>
      <point x="44" y="12" type="curve" smooth="yes"/>
      <point x="41" y="12"/>
      <point x="41" y="0"/>
      <point x="44" y="0" type="curve" smooth="yes"/>
      <point x="76" y="0"/>
      <point x="117" y="2"/>
      <point x="160" y="2" type="curve" smooth="yes"/>
      <point x="206" y="2"/>
      <point x="264" y="-4"/>
      <point x="308" y="-4" type="curve" smooth="yes"/>
      <point x="416" y="-4"/>
      <point x="499" y="76"/>
      <point x="499" y="185" type="curve" smooth="yes"/>
      <point x="499" y="281"/>
      <point x="423" y="353"/>
      <point x="309" y="353" type="curve"/>
      <point x="298" y="344" type="line"/>
    </contour>
    <contour>
      <point x="351" y="615"/>
      <point x="385" y="556"/>
      <point x="385" y="488" type="curve" smooth="yes"/>
      <point x="385" y="411"/>
      <point x="345" y="351"/>
      <point x="234" y="351" type="curve" smooth="yes"/>
      <point x="230" y="351"/>
      <point x="200" y="351"/>
      <point x="157" y="354" type="curve"/>
      <point x="187" y="346" type="line"/>
      <point x="187" y="542" type="line" smooth="yes"/>
      <point x="187" y="613"/>
      <point x="205" y="615"/>
      <point x="254" y="615" type="curve" smooth="yes"/>
    </contour>
    <contour>
      <point x="205" y="12"/>
      <point x="187" y="30"/>
      <point x="187" y="81" type="curve" smooth="yes"/>
      <point x="187" y="338" type="line"/>
      <point x="160" y="327" type="line"/>
      <point x="196" y="332"/>
      <point x="232" y="333"/>
      <point x="269" y="332" type="curve" smooth="yes"/>
      <point x="375" y="330"/>
      <point x="441" y="260"/>
      <point x="441" y="160" type="curve" smooth="yes"/>
      <point x="441" y="68"/>
      <point x="395" y="12"/>
      <point x="294" y="12" type="curve" smooth="yes"/>
    </contour>
    <contour>
      <point x="157" y="354" type="move"/>
    </contour>
    <contour>
      <point x="275" y="625" type="move" name="top"/>
    </contour>
    <contour>
      <point x="275" y="0" type="move" name="bottom"/>
    </contour>
  </outline>
</glyph>
<glyph name="C" format="1">
  <advance width="669"/>
  <unicode hex="0043"/>
  <outline>
    <contour>
      <point x="225" y="636"/>
      <point x="49" y="508"/>
      <point x="49" y="319" type="curve" smooth="yes"/>
      <point x="49" y="164"/>
      <point x="151" y="-12"/>
      <point x="405" y="-12" type="curve" smooth="yes"/>
      <point x="469" y="-12"/>
      <point x="532" y="-1"/>
      <point x="596" y="27" type="curve" smooth="yes"/>
      <point x="608" y="32"/>
      <point x="609" y="34"/>
      <point x="612" y="50" type="curve" smooth="yes"/>
      <point x="626" y="157" type="line" smooth="yes"/>
      <point x="626" y="160"/>
      <point x="615" y="163"/>
      <point x="614" y="158" type="curve" smooth="yes"/>
      <point x="579" y="48"/>
      <point x="503" y="0"/>
      <point x="408" y="0" type="curve" smooth="yes"/>
      <point x="249" y="0"/>
      <point x="111" y="154"/>
      <point x="111" y="346" type="curve" smooth="yes"/>
      <point x="111" y="508"/>
      <point x="216" y="615"/>
      <point x="374" y="615" type="curve" smooth="yes"/>
      <point x="488" y="615"/>
      <point x="578" y="577"/>
      <point x="605" y="469" type="curve" smooth="yes"/>
      <point x="606" y="464"/>
      <point x="616" y="467"/>
      <point x="616" y="470" type="curve" smooth="yes"/>
      <point x="605" y="575" type="line" smooth="yes"/>
      <point x="604" y="589"/>
      <point x="602" y="592"/>
      <point x="591" y="599" type="curve" smooth="yes"/>
      <point x="550" y="623"/>
      <point x="476" y="636"/>
      <point x="413" y="636" type="curve" smooth="yes"/>
    </contour>
    <contour>
      <point x="379" y="625" type="move" name="top"/>
    </contour>
    <contour>
      <point x="391" y="0" type="move" name="bottom"/>
    </contour>
  </outline>
</glyph>
<glyph name="D" format="1">
  <advance width="688"/>
  <unicode hex="0044"/>
  <outline>
    <contour>
      <point x="482" y="-4"/>
      <point x="639" y="123"/>
      <point x="639" y="323" type="curve" smooth="yes"/>
      <point x="639" y="495"/>
      <point x="497" y="627"/>
      <point x="283" y="627" type="curve" smooth="yes"/>
      <point x="248" y="627"/>
      <point x="194" y="622"/>
      <point x="152" y="622" type="curve" smooth="yes"/>
      <point x="109" y="622"/>
      <point x="69" y="625"/>
      <point x="37" y="625" type="curve" smooth="yes"/>
      <point x="34" y="625"/>
      <point x="34" y="613"/>
      <point x="37" y="613" type="curve" smooth="yes"/>
      <point x="113" y="613"/>
      <point x="126" y="601"/>
      <point x="126" y="544" type="curve" smooth="yes"/>
      <point x="126" y="81" type="line" smooth="yes"/>
      <point x="126" y="23"/>
      <point x="112" y="12"/>
      <point x="36" y="12" type="curve" smooth="yes"/>
      <point x="33" y="12"/>
      <point x="33" y="0"/>
      <point x="36" y="0" type="curve" smooth="yes"/>
      <point x="68" y="0"/>
      <point x="109" y="2"/>
      <point x="152" y="2" type="curve" smooth="yes"/>
      <point x="198" y="2"/>
      <point x="260" y="-4"/>
      <point x="297" y="-4" type="curve" smooth="yes"/>
    </contour>
    <contour>
      <point x="198" y="9"/>
      <point x="179" y="35"/>
      <point x="179" y="92" type="curve" smooth="yes"/>
      <point x="179" y="542" type="line" smooth="yes"/>
      <point x="179" y="605"/>
      <point x="211" y="614"/>
      <point x="292" y="614" type="curve" smooth="yes"/>
      <point x="465" y="614"/>
      <point x="574" y="476"/>
      <point x="574" y="301" type="curve" smooth="yes"/>
      <point x="574" y="112"/>
      <point x="454" y="9"/>
      <point x="287" y="9" type="curve" smooth="yes"/>
    </contour>
    <contour>
      <point x="344" y="312" type="move" name="center"/>
    </contour>
    <contour>
      <point x="320" y="0" type="move" name="bottom"/>
    </contour>
    <contour>
      <point x="317" y="625" type="move" name="top"/>
    </contour>
  </outline>
</glyph>
<glyph name="E" format="1">
  <advance width="533"/>
  <unicode hex="0045"/>
  <outline>
    <contour>
      <point x="469" y="0"/>
      <point x="473" y="4"/>
      <point x="473" y="15" type="curve" smooth="yes"/>
      <point x="473" y="56"/>
      <point x="477" y="110"/>
      <point x="482" y="145" type="curve" smooth="yes"/>
      <point x="482" y="149"/>
      <point x="470" y="150"/>
      <point x="470" y="146" type="curve" smooth="yes"/>
      <point x="460" y="70"/>
      <point x="418" y="19"/>
      <point x="365" y="19" type="curve" smooth="yes"/>
      <point x="273" y="19" type="line" smooth="yes"/>
      <point x="199" y="19"/>
      <point x="186" y="29"/>
      <point x="186" y="85" type="curve" smooth="yes"/>
      <point x="186" y="538" type="line" smooth="yes"/>
      <point x="186" y="595"/>
      <point x="199" y="606"/>
      <point x="273" y="606" type="curve" smooth="yes"/>
      <point x="342" y="606" type="line" smooth="yes"/>
      <point x="400" y="606"/>
      <point x="440" y="564"/>
      <point x="440" y="495" type="curve" smooth="yes"/>
      <point x="440" y="491"/>
      <point x="451" y="491"/>
      <point x="451" y="495" type="curve" smooth="yes"/>
      <point x="449" y="616" type="line" smooth="yes"/>
      <point x="449" y="622"/>
      <point x="447" y="625"/>
      <point x="440" y="625" type="curve" smooth="yes"/>
      <point x="44" y="625" type="line" smooth="yes"/>
      <point x="41" y="625"/>
      <point x="41" y="613"/>
      <point x="44" y="613" type="curve" smooth="yes"/>
      <point x="120" y="613"/>
      <point x="133" y="601"/>
      <point x="133" y="544" type="curve" smooth="yes"/>
      <point x="133" y="81" type="line" smooth="yes"/>
      <point x="133" y="23"/>
      <point x="120" y="12"/>
      <point x="44" y="12" type="curve" smooth="yes"/>
      <point x="41" y="12"/>
      <point x="41" y="0"/>
      <point x="44" y="0" type="curve" smooth="yes"/>
      <point x="457" y="0" type="line" smooth="yes"/>
    </contour>
    <contour>
      <point x="401" y="232"/>
      <point x="413" y="232"/>
      <point x="413" y="235" type="curve" smooth="yes"/>
      <point x="413" y="268"/>
      <point x="411" y="295"/>
      <point x="411" y="325" type="curve" smooth="yes"/>
      <point x="411" y="349"/>
      <point x="412" y="365"/>
      <point x="412" y="404" type="curve" smooth="yes"/>
      <point x="412" y="407"/>
      <point x="400" y="407"/>
      <point x="400" y="404" type="curve" smooth="yes"/>
      <point x="400" y="353"/>
      <point x="379" y="335"/>
      <point x="318" y="335" type="curve" smooth="yes"/>
      <point x="161" y="335" type="line"/>
      <point x="161" y="316" type="line" smooth="yes"/>
      <point x="315" y="316" type="line" smooth="yes"/>
      <point x="379" y="316"/>
      <point x="401" y="295"/>
      <point x="401" y="235" type="curve" smooth="yes"/>
    </contour>
    <contour>
      <point x="470" y="12" type="move" name="ogonek"/>
    </contour>
    <contour>
      <point x="290" y="625" type="move" name="top"/>
    </contour>
    <contour>
      <point x="23" y="625" type="move" name="topleft"/>
    </contour>
    <contour>
      <point x="284" y="0" type="move" name="bottom"/>
    </contour>
  </outline>
</glyph>
<glyph name="F" format="1">
  <advance width="506"/>
  <unicode hex="0046"/>
  <outline>
    <contour>
      <point x="76" y="0"/>
      <point x="117" y="2"/>
      <point x="160" y="2" type="curve" smooth="yes"/>
      <point x="219" y="2"/>
      <point x="268" y="0"/>
      <point x="311" y="0" type="curve" smooth="yes"/>
      <point x="315" y="0"/>
      <point x="315" y="12"/>
      <point x="311" y="12" type="curve" smooth="yes"/>
      <point x="202" y="12"/>
      <point x="186" y="25"/>
      <point x="186" y="85" type="curve" smooth="yes"/>
      <point x="186" y="543" type="line" smooth="yes"/>
      <point x="186" y="595"/>
      <point x="201" y="606"/>
      <point x="273" y="606" type="curve" smooth="yes"/>
      <point x="342" y="606" type="line" smooth="yes"/>
      <point x="400" y="606"/>
      <point x="440" y="564"/>
      <point x="440" y="495" type="curve" smooth="yes"/>
      <point x="440" y="491"/>
      <point x="451" y="491"/>
      <point x="451" y="495" type="curve" smooth="yes"/>
      <point x="449" y="616" type="line" smooth="yes"/>
      <point x="449" y="622"/>
      <point x="447" y="625"/>
      <point x="440" y="625" type="curve" smooth="yes"/>
      <point x="44" y="625" type="line" smooth="yes"/>
      <point x="41" y="625"/>
      <point x="41" y="613"/>
      <point x="44" y="613" type="curve" smooth="yes"/>
      <point x="120" y="613"/>
      <point x="133" y="601"/>
      <point x="133" y="544" type="curve" smooth="yes"/>
      <point x="133" y="81" type="line" smooth="yes"/>
      <point x="133" y="23"/>
      <point x="120" y="12"/>
      <point x="44" y="12" type="curve" smooth="yes"/>
      <point x="41" y="12"/>
      <point x="41" y="0"/>
      <point x="44" y="0" type="curve" smooth="yes"/>
    </contour>
    <contour>
      <point x="389" y="220"/>
      <point x="401" y="220"/>
      <point x="401" y="223" type="curve" smooth="yes"/>
      <point x="401" y="256"/>
      <point x="399" y="283"/>
      <point x="399" y="313" type="curve" smooth="yes"/>
      <point x="399" y="337"/>
      <point x="400" y="353"/>
      <point x="400" y="392" type="curve" smooth="yes"/>
      <point x="400" y="395"/>
      <point x="388" y="395"/>
      <point x="388" y="392" type="curve" smooth="yes"/>
      <point x="388" y="342"/>
      <point x="364" y="323"/>
      <point x="295" y="323" type="curve" smooth="yes"/>
      <point x="161" y="323" type="line"/>
      <point x="161" y="304" type="line" smooth="yes"/>
      <point x="291" y="304" type="line" smooth="yes"/>
      <point x="364" y="304"/>
      <point x="389" y="283"/>
      <point x="389" y="223" type="curve" smooth="yes"/>
    </contour>
    <contour>
      <point x="254" y="625" type="move" name="top"/>
    </contour>
    <contour>
      <point x="254" y="0" type="move" name="bottom"/>
    </contour>
  </outline>
</glyph>
<glyph name="G" format="1">
  <advance width="713"/>
  <unicode hex="0047"/>
  <outline>
    <contour>
      <point x="470" y="-12"/>
      <point x="545" y="0"/>
      <point x="612" y="16" type="curve" smooth="yes"/>
      <point x="621" y="19"/>
      <point x="623" y="20"/>
      <point x="623" y="28" type="curve" smooth="yes"/>
      <point x="623" y="44"/>
      <point x="616" y="49"/>
      <point x="616" y="116" type="curve" smooth="yes"/>
      <point x="616" y="222"/>
      <point x="620" y="234"/>
      <point x="670" y="233" type="curve" smooth="yes"/>
      <point x="677" y="233"/>
      <point x="676" y="247"/>
      <point x="670" y="247" type="curve" smooth="yes"/>
      <point x="595" y="243"/>
      <point x="533" y="243"/>
      <point x="450" y="249" type="curve" smooth="yes"/>
      <point x="443" y="249"/>
      <point x="443" y="233"/>
      <point x="451" y="233" type="curve" smooth="yes"/>
      <point x="560" y="233"/>
      <point x="568" y="222"/>
      <point x="568" y="126" type="curve" smooth="yes"/>
      <point x="568" y="23"/>
      <point x="529" y="5"/>
      <point x="428" y="5" type="curve" smooth="yes"/>
      <point x="246" y="5"/>
      <point x="111" y="144"/>
      <point x="111" y="340" type="curve" smooth="yes"/>
      <point x="111" y="510"/>
      <point x="211" y="615"/>
      <point x="389" y="615" type="curve" smooth="yes"/>
      <point x="503" y="615"/>
      <point x="581" y="565"/>
      <point x="606" y="469" type="curve" smooth="yes"/>
      <point x="607" y="464"/>
      <point x="618" y="467"/>
      <point x="618" y="470" type="curve" smooth="yes"/>
      <point x="606" y="575" type="line" smooth="yes"/>
      <point x="605" y="586"/>
      <point x="607" y="589"/>
      <point x="595" y="598" type="curve" smooth="yes"/>
      <point x="556" y="623"/>
      <point x="494" y="636"/>
      <point x="430" y="636" type="curve" smooth="yes"/>
      <point x="211" y="636"/>
      <point x="49" y="502"/>
      <point x="49" y="305" type="curve" smooth="yes"/>
      <point x="49" y="129"/>
      <point x="180" y="-12"/>
      <point x="404" y="-12" type="curve" smooth="yes"/>
    </contour>
    <contour>
      <point x="394" y="625" type="move" name="top"/>
    </contour>
    <contour>
      <point x="418" y="0" type="move" name="bottom"/>
    </contour>
  </outline>
</glyph>
<glyph name="I" format="1">
  <advance width="330"/>
  <unicode hex="0049"/>
  <outline>
    <contour>
      <point x="192" y="542" type="line" smooth="yes"/>
      <point x="192" y="599"/>
      <point x="205" y="613"/>
      <point x="281" y="613" type="curve" smooth="yes"/>
      <point x="284" y="613"/>
      <point x="284" y="625"/>
      <point x="281" y="625" type="curve" smooth="yes"/>
      <point x="250" y="625"/>
      <point x="211" y="622"/>
      <point x="164" y="622" type="curve" smooth="yes"/>
      <point x="120" y="622"/>
      <point x="80" y="625"/>
      <point x="48" y="625" type="curve" smooth="yes"/>
      <point x="44" y="625"/>
      <point x="44" y="613"/>
      <point x="48" y="613" type="curve" smooth="yes"/>
      <point x="124" y="613"/>
      <point x="138" y="601"/>
      <point x="138" y="544" type="curve" smooth="yes"/>
      <point x="138" y="81" type="line" smooth="yes"/>
      <point x="138" y="23"/>
      <point x="124" y="12"/>
      <point x="48" y="12" type="curve" smooth="yes"/>
      <point x="44" y="12"/>
      <point x="44" y="0"/>
      <point x="48" y="0" type="curve" smooth="yes"/>
      <point x="80" y="0"/>
      <point x="120" y="2"/>
      <point x="164" y="2" type="curve" smooth="yes"/>
      <point x="211" y="2"/>
      <point x="249" y="0"/>
      <point x="281" y="0" type="curve" smooth="yes"/>
      <point x="284" y="0"/>
      <point x="284" y="12"/>
      <point x="281" y="12" type="curve" smooth="yes"/>
      <point x="204" y="12"/>
      <point x="192" y="23"/>
      <point x="192" y="81" type="curve" smooth="yes"/>
    </contour>
    <contour>
      <point x="267" y="12" type="move" name="ogonek"/>
    </contour>
    <contour>
      <point x="165" y="625" type="move" name="top"/>
    </contour>
    <contour>
      <point x="23" y="625" type="move" name="topleft"/>
    </contour>
    <contour>
      <point x="165" y="0" type="move" name="bottom"/>
    </contour>
  </outline>
</glyph>
<glyph name="J" format="1">
  <advance width="318"/>
  <unicode hex="004A"/>
  <outline>
    <contour>
      <point x="247" y="625"/>
      <point x="212" y="622"/>
      <point x="170" y="622" type="curve" smooth="yes"/>
      <point x="123" y="622"/>
      <point x="80" y="625"/>
      <point x="42" y="625" type="curve" smooth="yes"/>
      <point x="39" y="625"/>
      <point x="39" y="613"/>
      <point x="42" y="613" type="curve" smooth="yes"/>
      <point x="129" y="613"/>
      <point x="144" y="601"/>
      <point x="144" y="544" type="curve" smooth="yes"/>
      <point x="144" y="-43" type="line" smooth="yes"/>
      <point x="144" y="-173"/>
      <point x="116" y="-225"/>
      <point x="65" y="-225" type="curve" smooth="yes"/>
      <point x="23" y="-225"/>
      <point x="30" y="-177"/>
      <point x="-14" y="-177" type="curve" smooth="yes"/>
      <point x="-32" y="-177"/>
      <point x="-43" y="-188"/>
      <point x="-43" y="-206" type="curve" smooth="yes"/>
      <point x="-43" y="-228"/>
      <point x="-18" y="-244"/>
      <point x="27" y="-244" type="curve" smooth="yes"/>
      <point x="142" y="-244"/>
      <point x="198" y="-157"/>
      <point x="198" y="-34" type="curve" smooth="yes"/>
      <point x="198" y="542" type="line" smooth="yes"/>
      <point x="198" y="599"/>
      <point x="208" y="613"/>
      <point x="275" y="613" type="curve" smooth="yes"/>
      <point x="278" y="613"/>
      <point x="278" y="625"/>
      <point x="275" y="625" type="curve" smooth="yes"/>
    </contour>
    <contour>
      <point x="160" y="636" type="move" name="top"/>
    </contour>
    <contour>
      <point x="159" y="0" type="move" name="bottom"/>
    </contour>
  </outline>
</glyph>
<glyph name="K" format="1">
  <advance width="649"/>
  <unicode hex="004B"/>
  <outline>
    <contour>
      <point x="126" y="23"/>
      <point x="112" y="12"/>
      <point x="36" y="12" type="curve" smooth="yes"/>
      <point x="33" y="12"/>
      <point x="33" y="0"/>
      <point x="36" y="0" type="curve" smooth="yes"/>
      <point x="68" y="0"/>
      <point x="109" y="2"/>
      <point x="152" y="2" type="curve" smooth="yes"/>
      <point x="198" y="2"/>
      <point x="236" y="0"/>
      <point x="268" y="0" type="curve" smooth="yes"/>
      <point x="271" y="0"/>
      <point x="271" y="12"/>
      <point x="268" y="12" type="curve" smooth="yes"/>
      <point x="191" y="12"/>
      <point x="179" y="23"/>
      <point x="179" y="81" type="curve" smooth="yes"/>
      <point x="179" y="542" type="line" smooth="yes"/>
      <point x="179" y="599"/>
      <point x="192" y="613"/>
      <point x="268" y="613" type="curve" smooth="yes"/>
      <point x="271" y="613"/>
      <point x="271" y="625"/>
      <point x="268" y="625" type="curve" smooth="yes"/>
      <point x="237" y="625"/>
      <point x="198" y="622"/>
      <point x="152" y="622" type="curve" smooth="yes"/>
      <point x="109" y="622"/>
      <point x="69" y="625"/>
      <point x="37" y="625" type="curve" smooth="yes"/>
      <point x="34" y="625"/>
      <point x="34" y="613"/>
      <point x="37" y="613" type="curve" smooth="yes"/>
      <point x="113" y="613"/>
      <point x="126" y="601"/>
      <point x="126" y="544" type="curve" smooth="yes"/>
      <point x="126" y="81" type="line" smooth="yes"/>
    </contour>
    <contour>
      <point x="497" y="-9"/>
      <point x="456" y="0"/>
      <point x="523" y="0" type="curve" smooth="yes"/>
      <point x="540" y="0"/>
      <point x="575" y="0"/>
      <point x="635" y="0" type="curve" smooth="yes"/>
      <point x="639" y="0"/>
      <point x="639" y="12"/>
      <point x="635" y="12" type="curve" smooth="yes"/>
      <point x="571" y="12"/>
      <point x="552" y="0"/>
      <point x="395" y="198" type="curve" smooth="yes"/>
      <point x="251" y="379" type="line"/>
      <point x="209" y="349" type="line"/>
      <point x="373" y="145" type="line" smooth="yes"/>
    </contour>
    <contour>
      <point x="166" y="295" type="line"/>
      <point x="422" y="544" type="line" smooth="yes"/>
      <point x="478" y="599"/>
      <point x="542" y="613"/>
      <point x="588" y="613" type="curve" smooth="yes"/>
      <point x="592" y="613"/>
      <point x="592" y="625"/>
      <point x="588" y="625" type="curve" smooth="yes"/>
      <point x="561" y="625"/>
      <point x="537" y="622"/>
      <point x="488" y="622" type="curve" smooth="yes"/>
      <point x="434" y="622"/>
      <point x="407" y="625"/>
      <point x="375" y="625" type="curve" smooth="yes"/>
      <point x="372" y="625"/>
      <point x="372" y="613"/>
      <point x="375" y="613" type="curve" smooth="yes"/>
      <point x="446" y="613"/>
      <point x="450" y="601"/>
      <point x="399" y="550" type="curve" smooth="yes"/>
      <point x="142" y="294" type="line"/>
    </contour>
    <contour>
      <point x="325" y="625" type="move" name="top"/>
    </contour>
    <contour>
      <point x="343" y="0" type="move" name="bottom"/>
    </contour>
  </outline>
</glyph>
<glyph name="L" format="1">
  <advance width="530"/>
  <unicode hex="004C"/>
  <outline>
    <contour>
      <point x="178" y="600"/>
      <point x="191" y="613"/>
      <point x="267" y="613" type="curve" smooth="yes"/>
      <point x="270" y="613"/>
      <point x="270" y="625"/>
      <point x="267" y="625" type="curve" smooth="yes"/>
      <point x="236" y="625"/>
      <point x="196" y="622"/>
      <point x="151" y="622" type="curve" smooth="yes"/>
      <point x="108" y="622"/>
      <point x="68" y="625"/>
      <point x="36" y="625" type="curve" smooth="yes"/>
      <point x="33" y="625"/>
      <point x="33" y="613"/>
      <point x="36" y="613" type="curve" smooth="yes"/>
      <point x="112" y="613"/>
      <point x="125" y="601"/>
      <point x="125" y="544" type="curve" smooth="yes"/>
      <point x="125" y="81" type="line" smooth="yes"/>
      <point x="125" y="23"/>
      <point x="112" y="12"/>
      <point x="36" y="12" type="curve" smooth="yes"/>
      <point x="33" y="12"/>
      <point x="33" y="0"/>
      <point x="36" y="0" type="curve" smooth="yes"/>
      <point x="496" y="0" type="line" smooth="yes"/>
      <point x="508" y="0"/>
      <point x="511" y="4"/>
      <point x="511" y="15" type="curve" smooth="yes"/>
      <point x="511" y="56"/>
      <point x="516" y="110"/>
      <point x="520" y="145" type="curve" smooth="yes"/>
      <point x="520" y="149"/>
      <point x="509" y="150"/>
      <point x="509" y="146" type="curve" smooth="yes"/>
      <point x="498" y="70"/>
      <point x="463" y="19"/>
      <point x="392" y="19" type="curve" smooth="yes"/>
      <point x="264" y="19" type="line" smooth="yes"/>
      <point x="191" y="19"/>
      <point x="178" y="29"/>
      <point x="178" y="85" type="curve" smooth="yes"/>
      <point x="178" y="543" type="line" smooth="yes"/>
    </contour>
    <contour>
      <point x="298" y="0" type="move" name="bottom"/>
    </contour>
    <contour>
      <point x="157" y="625" type="move" name="top"/>
    </contour>
    <contour>
      <point x="495" y="625" type="move" name="topright"/>
    </contour>
    <contour>
      <point x="265" y="312" type="move" name="center"/>
    </contour>
  </outline>
</glyph>
<glyph name="M" format="1">
  <advance width="830"/>
  <unicode hex="004D"/>
  <outline>
    <contour>
      <point x="119" y="36"/>
      <point x="98" y="12"/>
      <point x="42" y="12" type="curve" smooth="yes"/>
      <point x="39" y="12"/>
      <point x="39" y="0"/>
      <point x="42" y="0" type="curve" smooth="yes"/>
      <point x="68" y="0"/>
      <point x="98" y="2"/>
      <point x="130" y="2" type="curve" smooth="yes"/>
      <point x="167" y="2"/>
      <point x="198" y="0"/>
      <point x="227" y="0" type="curve" smooth="yes"/>
      <point x="230" y="0"/>
      <point x="230" y="12"/>
      <point x="227" y="12" type="curve" smooth="yes"/>
      <point x="160" y="12"/>
      <point x="142" y="36"/>
      <point x="143" y="104" type="curve" smooth="yes"/>
      <point x="152" y="600" type="line"/>
      <point x="130" y="602" type="line"/>
      <point x="120" y="104" type="line" smooth="yes"/>
    </contour>
    <contour>
      <point x="731" y="12"/>
      <point x="719" y="23"/>
      <point x="717" y="81" type="curve" smooth="yes"/>
      <point x="698" y="546" type="line" smooth="yes"/>
      <point x="696" y="602"/>
      <point x="727" y="613"/>
      <point x="792" y="613" type="curve" smooth="yes"/>
      <point x="795" y="613"/>
      <point x="795" y="625"/>
      <point x="792" y="625" type="curve" smooth="yes"/>
      <point x="768" y="625"/>
      <point x="750" y="623"/>
      <point x="716" y="623" type="curve" smooth="yes"/>
      <point x="698" y="623"/>
      <point x="684" y="625"/>
      <point x="678" y="625" type="curve" smooth="yes"/>
      <point x="667" y="625"/>
      <point x="655" y="615"/>
      <point x="648" y="600" type="curve" smooth="yes"/>
      <point x="402" y="36" type="line"/>
      <point x="428" y="78" type="line"/>
      <point x="199" y="573" type="line" smooth="yes"/>
      <point x="178" y="618"/>
      <point x="171" y="625"/>
      <point x="153" y="625" type="curve" smooth="yes"/>
      <point x="145" y="625"/>
      <point x="127" y="623"/>
      <point x="109" y="623" type="curve" smooth="yes"/>
      <point x="94" y="623"/>
      <point x="69" y="625"/>
      <point x="49" y="625" type="curve" smooth="yes"/>
      <point x="46" y="625"/>
      <point x="46" y="613"/>
      <point x="49" y="613" type="curve" smooth="yes"/>
      <point x="97" y="613"/>
      <point x="130" y="591"/>
      <point x="152" y="542" type="curve" smooth="yes"/>
      <point x="396" y="7" type="line"/>
      <point x="399" y="2"/>
      <point x="411" y="2"/>
      <point x="413" y="7" type="curve"/>
      <point x="675" y="611" type="line"/>
      <point x="646" y="574" type="line"/>
      <point x="664" y="81" type="line" smooth="yes"/>
      <point x="667" y="23"/>
      <point x="654" y="12"/>
      <point x="587" y="12" type="curve" smooth="yes"/>
      <point x="584" y="12"/>
      <point x="584" y="0"/>
      <point x="587" y="0" type="curve" smooth="yes"/>
      <point x="615" y="0"/>
      <point x="650" y="2"/>
      <point x="691" y="2" type="curve" smooth="yes"/>
      <point x="735" y="2"/>
      <point x="775" y="0"/>
      <point x="807" y="0" type="curve" smooth="yes"/>
      <point x="811" y="0"/>
      <point x="811" y="12"/>
      <point x="807" y="12" type="curve" smooth="yes"/>
    </contour>
    <contour>
      <point x="415" y="625" type="move" name="top"/>
    </contour>
    <contour>
      <point x="406" y="0" type="move" name="bottom"/>
    </contour>
  </outline>
</glyph>
<glyph name="O" format="1">
  <advance width="766"/>
  <unicode hex="004F"/>
  <outline>
    <contour>
      <point x="556" y="-12"/>
      <point x="717" y="133"/>
      <point x="717" y="319" type="curve" smooth="yes"/>
      <point x="717" y="480"/>
      <point x="598" y="636"/>
      <point x="401" y="636" type="curve" smooth="yes"/>
      <point x="239" y="636"/>
      <point x="49" y="529"/>
      <point x="49" y="312" type="curve" smooth="yes"/>
      <point x="49" y="136"/>
      <point x="174" y="-12"/>
      <point x="366" y="-12" type="curve" smooth="yes"/>
    </contour>
    <contour>
      <point x="229" y="8"/>
      <point x="113" y="159"/>
      <point x="113" y="346" type="curve" smooth="yes"/>
      <point x="113" y="511"/>
      <point x="204" y="614"/>
      <point x="359" y="614" type="curve" smooth="yes"/>
      <point x="537" y="614"/>
      <point x="653" y="480"/>
      <point x="653" y="291" type="curve" smooth="yes"/>
      <point x="653" y="108"/>
      <point x="542" y="8"/>
      <point x="402" y="8" type="curve" smooth="yes"/>
    </contour>
    <contour>
      <point x="395" y="0" type="move" name="bottom"/>
    </contour>
    <contour>
      <point x="501" y="12" type="move" name="ogonek"/>
    </contour>
    <contour>
      <point x="384" y="625" type="move" name="top"/>
    </contour>
    <contour>
      <point x="602" y="578" type="move" name="topright"/>
    </contour>
    <contour>
      <point x="23" y="625" type="move" name="topleft"/>
    </contour>
    <contour>
      <point x="384" y="312" type="move" name="center"/>
    </contour>
  </outline>
</glyph>
<glyph name="P" format="1">
  <advance width="540"/>
  <unicode hex="0050"/>
  <outline>
    <contour>
      <point x="186" y="542" type="line" smooth="yes"/>
      <point x="186" y="613"/>
      <point x="204" y="615"/>
      <point x="276" y="615" type="curve" smooth="yes"/>
      <point x="363" y="615"/>
      <point x="435" y="553"/>
      <point x="435" y="444" type="curve" smooth="yes"/>
      <point x="435" y="329"/>
      <point x="353" y="276"/>
      <point x="265" y="276" type="curve" smooth="yes"/>
      <point x="254" y="276"/>
      <point x="241" y="277"/>
      <point x="229" y="280" type="curve" smooth="yes"/>
      <point x="225" y="281"/>
      <point x="222" y="268"/>
      <point x="227" y="267" type="curve" smooth="yes"/>
      <point x="242" y="263"/>
      <point x="258" y="262"/>
      <point x="276" y="262" type="curve" smooth="yes"/>
      <point x="377" y="262"/>
      <point x="497" y="323"/>
      <point x="497" y="464" type="curve" smooth="yes"/>
      <point x="497" y="580"/>
      <point x="409" y="628"/>
      <point x="299" y="628" type="curve" smooth="yes"/>
      <point x="246" y="628"/>
      <point x="193" y="622"/>
      <point x="159" y="622" type="curve" smooth="yes"/>
      <point x="116" y="622"/>
      <point x="76" y="625"/>
      <point x="44" y="625" type="curve" smooth="yes"/>
      <point x="41" y="625"/>
      <point x="41" y="613"/>
      <point x="44" y="613" type="curve" smooth="yes"/>
      <point x="120" y="613"/>
      <point x="133" y="601"/>
      <point x="133" y="544" type="curve" smooth="yes"/>
      <point x="133" y="81" type="line" smooth="yes"/>
      <point x="133" y="23"/>
      <point x="120" y="12"/>
      <point x="44" y="12" type="curve" smooth="yes"/>
      <point x="41" y="12"/>
      <point x="41" y="0"/>
      <point x="44" y="0" type="curve" smooth="yes"/>
      <point x="76" y="0"/>
      <point x="117" y="2"/>
      <point x="160" y="2" type="curve" smooth="yes"/>
      <point x="219" y="2"/>
      <point x="268" y="0"/>
      <point x="311" y="0" type="curve" smooth="yes"/>
      <point x="315" y="0"/>
      <point x="315" y="12"/>
      <point x="311" y="12" type="curve" smooth="yes"/>
      <point x="202" y="12"/>
      <point x="186" y="25"/>
      <point x="186" y="85" type="curve" smooth="yes"/>
    </contour>
    <contour>
      <point x="270" y="625" type="move" name="top"/>
    </contour>
    <contour>
      <point x="270" y="0" type="move" name="bottom"/>
    </contour>
  </outline>
</glyph>
<glyph name="Q" format="1">
  <advance width="766"/>
  <unicode hex="0051"/>
  <outline>
    <contour>
      <point x="382" y="2" type="line"/>
      <point x="457" y="-115"/>
      <point x="573" y="-178"/>
      <point x="663" y="-178" type="curve" smooth="yes"/>
      <point x="688" y="-178"/>
      <point x="718" y="-173"/>
      <point x="749" y="-166" type="curve" smooth="yes"/>
      <point x="752" y="-165"/>
      <point x="749" y="-154"/>
      <point x="745" y="-156" type="curve" smooth="yes"/>
      <point x="736" y="-158"/>
      <point x="720" y="-159"/>
      <point x="709" y="-159" type="curve" smooth="yes"/>
      <point x="623" y="-159"/>
      <point x="513" y="-91"/>
      <point x="456" y="6" type="curve"/>
    </contour>
    <component base="O"/>
    <contour>
      <point x="384" y="625" type="move" name="top"/>
    </contour>
    <contour>
      <point x="384" y="0" type="move" name="bottom"/>
    </contour>
  </outline>
</glyph>
<glyph name="S" format="1">
  <advance width="485"/>
  <unicode hex="0053"/>
  <outline>
    <contour>
      <point x="138" y="561"/>
      <point x="167" y="623"/>
      <point x="254" y="623" type="curve" smooth="yes"/>
      <point x="350" y="623"/>
      <point x="388" y="547"/>
      <point x="393" y="489" type="curve" smooth="yes"/>
      <point x="394" y="483"/>
      <point x="405" y="483"/>
      <point x="405" y="489" type="curve" smooth="yes"/>
      <point x="396" y="595" type="line" smooth="yes"/>
      <point x="396" y="602"/>
      <point x="391" y="608"/>
      <point x="381" y="612" type="curve" smooth="yes"/>
      <point x="339" y="629"/>
      <point x="301" y="636"/>
      <point x="267" y="636" type="curve" smooth="yes"/>
      <point x="177" y="636"/>
      <point x="87" y="585"/>
      <point x="87" y="481" type="curve" smooth="yes"/>
      <point x="87" y="387"/>
      <point x="158" y="346"/>
      <point x="229" y="304" type="curve" smooth="yes"/>
      <point x="302" y="261"/>
      <point x="375" y="219"/>
      <point x="375" y="122" type="curve" smooth="yes"/>
      <point x="375" y="32"/>
      <point x="311" y="2"/>
      <point x="249" y="2" type="curve" smooth="yes"/>
      <point x="140" y="2"/>
      <point x="89" y="94"/>
      <point x="78" y="173" type="curve" smooth="yes"/>
      <point x="77" y="178"/>
      <point x="65" y="177"/>
      <point x="67" y="171" type="curve" smooth="yes"/>
      <point x="82" y="41" type="line" smooth="yes"/>
      <point x="83" y="32"/>
      <point x="84" y="26"/>
      <point x="91" y="22" type="curve" smooth="yes"/>
      <point x="143" y="-4"/>
      <point x="182" y="-12"/>
      <point x="227" y="-12" type="curve" smooth="yes"/>
      <point x="363" y="-12"/>
      <point x="430" y="65"/>
      <point x="430" y="157" type="curve" smooth="yes"/>
      <point x="430" y="253"/>
      <point x="353" y="295"/>
      <point x="280" y="338" type="curve" smooth="yes"/>
      <point x="208" y="380"/>
      <point x="138" y="419"/>
      <point x="138" y="504" type="curve" smooth="yes"/>
    </contour>
    <contour>
      <point x="251" y="625" type="move" name="top"/>
    </contour>
    <contour>
      <point x="263" y="0" type="move" name="bottom"/>
    </contour>
  </outline>
</glyph>
<glyph name="U" format="1">
  <advance width="697"/>
  <unicode hex="0055"/>
  <outline>
    <contour>
      <point x="572" y="233" type="line" smooth="yes"/>
      <point x="572" y="98"/>
      <point x="501" y="16"/>
      <point x="379" y="16" type="curve" smooth="yes"/>
      <point x="247" y="16"/>
      <point x="170" y="103"/>
      <point x="170" y="260" type="curve" smooth="yes"/>
      <point x="170" y="542" type="line" smooth="yes"/>
      <point x="170" y="599"/>
      <point x="182" y="613"/>
      <point x="258" y="613" type="curve" smooth="yes"/>
      <point x="262" y="613"/>
      <point x="262" y="625"/>
      <point x="258" y="625" type="curve" smooth="yes"/>
      <point x="228" y="625"/>
      <point x="188" y="622"/>
      <point x="143" y="622" type="curve" smooth="yes"/>
      <point x="99" y="622"/>
      <point x="60" y="625"/>
      <point x="28" y="625" type="curve" smooth="yes"/>
      <point x="25" y="625"/>
      <point x="25" y="613"/>
      <point x="28" y="613" type="curve" smooth="yes"/>
      <point x="104" y="613"/>
      <point x="117" y="601"/>
      <point x="117" y="544" type="curve" smooth="yes"/>
      <point x="117" y="225" type="line" smooth="yes"/>
      <point x="117" y="81"/>
      <point x="212" y="-13"/>
      <point x="361" y="-13" type="curve" smooth="yes"/>
      <point x="501" y="-13"/>
      <point x="594" y="76"/>
      <point x="594" y="234" type="curve" smooth="yes"/>
      <point x="594" y="520" type="line" smooth="yes"/>
      <point x="594" y="584"/>
      <point x="619" y="613"/>
      <point x="673" y="613" type="curve" smooth="yes"/>
      <point x="676" y="613"/>
      <point x="676" y="625"/>
      <point x="673" y="625" type="curve" smooth="yes"/>
      <point x="647" y="625"/>
      <point x="615" y="622"/>
      <point x="584" y="622" type="curve" smooth="yes"/>
      <point x="546" y="622"/>
      <point x="516" y="625"/>
      <point x="487" y="625" type="curve" smooth="yes"/>
      <point x="483" y="625"/>
      <point x="483" y="613"/>
      <point x="487" y="613" type="curve" smooth="yes"/>
      <point x="545" y="613"/>
      <point x="572" y="584"/>
      <point x="572" y="520" type="curve" smooth="yes"/>
    </contour>
    <contour>
      <point x="491" y="12" type="move" name="ogonek"/>
    </contour>
    <contour>
      <point x="374" y="625" type="move" name="top"/>
    </contour>
    <contour>
      <point x="674" y="625" type="move" name="topright"/>
    </contour>
    <contour>
      <point x="349" y="0" type="move" name="bottom"/>
    </contour>
  </outline>
</glyph>
<glyph name="V" format="1">
  <advance width="667"/>
  <unicode hex="0056"/>
  <outline>
    <contour>
      <point x="636" y="625"/>
      <point x="619" y="622"/>
      <point x="581" y="622" type="curve" smooth="yes"/>
      <point x="536" y="622"/>
      <point x="512" y="625"/>
      <point x="481" y="625" type="curve" smooth="yes"/>
      <point x="477" y="625"/>
      <point x="477" y="613"/>
      <point x="481" y="613" type="curve" smooth="yes"/>
      <point x="556" y="613"/>
      <point x="572" y="596"/>
      <point x="553" y="550" type="curve" smooth="yes"/>
      <point x="339" y="20" type="line"/>
      <point x="366" y="57" type="line"/>
      <point x="142" y="552" type="line" smooth="yes"/>
      <point x="119" y="600"/>
      <point x="144" y="613"/>
      <point x="195" y="613" type="curve" smooth="yes"/>
      <point x="199" y="613"/>
      <point x="199" y="625"/>
      <point x="195" y="625" type="curve" smooth="yes"/>
      <point x="165" y="625"/>
      <point x="131" y="622"/>
      <point x="83" y="622" type="curve" smooth="yes"/>
      <point x="56" y="622"/>
      <point x="25" y="625"/>
      <point x="-2" y="625" type="curve" smooth="yes"/>
      <point x="-6" y="625"/>
      <point x="-6" y="613"/>
      <point x="-2" y="613" type="curve" smooth="yes"/>
      <point x="40" y="613"/>
      <point x="62" y="594"/>
      <point x="85" y="542" type="curve" smooth="yes"/>
      <point x="332" y="1" type="line" smooth="yes"/>
      <point x="335" y="-4"/>
      <point x="352" y="-4"/>
      <point x="354" y="1" type="curve" smooth="yes"/>
      <point x="574" y="544" type="line" smooth="yes"/>
      <point x="598" y="601"/>
      <point x="629" y="613"/>
      <point x="670" y="613" type="curve" smooth="yes"/>
      <point x="674" y="613"/>
      <point x="674" y="625"/>
      <point x="670" y="625" type="curve" smooth="yes"/>
    </contour>
    <contour>
      <point x="333" y="625" type="move" name="top"/>
    </contour>
    <contour>
      <point x="333" y="0" type="move" name="bottom"/>
    </contour>
  </outline>
</glyph>
<glyph name="W" format="1">
  <advance width="936"/>
  <unicode hex="0057"/>
  <outline>
    <contour>
      <point x="471" y="345" type="line"/>
      <point x="336" y="13" type="line"/>
      <point x="370" y="56" type="line"/>
      <point x="140" y="552" type="line" smooth="yes"/>
      <point x="118" y="600"/>
      <point x="144" y="613"/>
      <point x="195" y="613" type="curve" smooth="yes"/>
      <point x="199" y="613"/>
      <point x="199" y="625"/>
      <point x="195" y="625" type="curve" smooth="yes"/>
      <point x="165" y="625"/>
      <point x="131" y="622"/>
      <point x="83" y="622" type="curve" smooth="yes"/>
      <point x="56" y="622"/>
      <point x="25" y="625"/>
      <point x="-2" y="625" type="curve" smooth="yes"/>
      <point x="-6" y="625"/>
      <point x="-6" y="613"/>
      <point x="-2" y="613" type="curve" smooth="yes"/>
      <point x="40" y="613"/>
      <point x="62" y="594"/>
      <point x="85" y="542" type="curve" smooth="yes"/>
      <point x="332" y="1" type="line" smooth="yes"/>
      <point x="335" y="-4"/>
      <point x="352" y="-4"/>
      <point x="354" y="1" type="curve" smooth="yes"/>
      <point x="485" y="325" type="line"/>
    </contour>
    <contour>
      <point x="905" y="625"/>
      <point x="888" y="622"/>
      <point x="850" y="622" type="curve" smooth="yes"/>
      <point x="805" y="622"/>
      <point x="781" y="625"/>
      <point x="750" y="625" type="curve" smooth="yes"/>
      <point x="746" y="625"/>
      <point x="746" y="613"/>
      <point x="750" y="613" type="curve" smooth="yes"/>
      <point x="825" y="613"/>
      <point x="842" y="596"/>
      <point x="823" y="550" type="curve" smooth="yes"/>
      <point x="605" y="13" type="line"/>
      <point x="639" y="56" type="line"/>
      <point x="409" y="552" type="line" smooth="yes"/>
      <point x="384" y="607"/>
      <point x="386" y="613"/>
      <point x="429" y="613" type="curve" smooth="yes"/>
      <point x="433" y="613"/>
      <point x="433" y="625"/>
      <point x="429" y="625" type="curve" smooth="yes"/>
      <point x="409" y="625"/>
      <point x="386" y="622"/>
      <point x="352" y="622" type="curve" smooth="yes"/>
      <point x="325" y="622"/>
      <point x="294" y="625"/>
      <point x="267" y="625" type="curve" smooth="yes"/>
      <point x="263" y="625"/>
      <point x="263" y="613"/>
      <point x="267" y="613" type="curve" smooth="yes"/>
      <point x="309" y="613"/>
      <point x="331" y="594"/>
      <point x="354" y="542" type="curve" smooth="yes"/>
      <point x="601" y="1" type="line" smooth="yes"/>
      <point x="604" y="-4"/>
      <point x="621" y="-4"/>
      <point x="623" y="1" type="curve" smooth="yes"/>
      <point x="843" y="544" type="line" smooth="yes"/>
      <point x="867" y="601"/>
      <point x="898" y="613"/>
      <point x="939" y="613" type="curve" smooth="yes"/>
      <point x="943" y="613"/>
      <point x="943" y="625"/>
      <point x="939" y="625" type="curve" smooth="yes"/>
    </contour>
    <contour>
      <point x="489" y="325" type="line"/>
      <point x="578" y="544" type="line" smooth="yes"/>
      <point x="601" y="601"/>
      <point x="633" y="613"/>
      <point x="674" y="613" type="curve" smooth="yes"/>
      <point x="677" y="613"/>
      <point x="677" y="625"/>
      <point x="674" y="625" type="curve" smooth="yes"/>
      <point x="640" y="625"/>
      <point x="622" y="622"/>
      <point x="585" y="622" type="curve" smooth="yes"/>
      <point x="556" y="622"/>
      <point x="540" y="625"/>
      <point x="519" y="625" type="curve" smooth="yes"/>
      <point x="516" y="625"/>
      <point x="516" y="613"/>
      <point x="519" y="613" type="curve" smooth="yes"/>
      <point x="567" y="613"/>
      <point x="577" y="596"/>
      <point x="558" y="550" type="curve" smooth="yes"/>
      <point x="475" y="345" type="line"/>
    </contour>
    <contour>
      <point x="468" y="625" type="move" name="top"/>
    </contour>
    <contour>
      <point x="468" y="0" type="move" name="bottom"/>
    </contour>
  </outline>
</glyph>
<glyph name="Y" format="1">
  <advance width="607"/>
  <unicode hex="0059"/>
  <outline>
    <contour>
      <point x="313" y="276" type="line"/>
      <point x="476" y="523" type="line" smooth="yes"/>
      <point x="513" y="580"/>
      <point x="561" y="613"/>
      <point x="611" y="613" type="curve" smooth="yes"/>
      <point x="614" y="613"/>
      <point x="614" y="625"/>
      <point x="611" y="625" type="curve" smooth="yes"/>
      <point x="581" y="625"/>
      <point x="566" y="622"/>
      <point x="533" y="622" type="curve" smooth="yes"/>
      <point x="482" y="622"/>
      <point x="456" y="625"/>
      <point x="421" y="625" type="curve" smooth="yes"/>
      <point x="418" y="625"/>
      <point x="418" y="613"/>
      <point x="421" y="613" type="curve" smooth="yes"/>
      <point x="480" y="613"/>
      <point x="490" y="584"/>
      <point x="453" y="526" type="curve" smooth="yes"/>
      <point x="297" y="290" type="line"/>
    </contour>
    <contour>
      <point x="335" y="317" type="line"/>
      <point x="157" y="573" type="line" smooth="yes"/>
      <point x="136" y="602"/>
      <point x="149" y="613"/>
      <point x="204" y="613" type="curve" smooth="yes"/>
      <point x="207" y="613"/>
      <point x="207" y="625"/>
      <point x="204" y="625" type="curve" smooth="yes"/>
      <point x="170" y="625"/>
      <point x="124" y="622"/>
      <point x="71" y="622" type="curve" smooth="yes"/>
      <point x="48" y="622"/>
      <point x="21" y="625"/>
      <point x="-2" y="625" type="curve" smooth="yes"/>
      <point x="-6" y="625"/>
      <point x="-6" y="613"/>
      <point x="-2" y="613" type="curve" smooth="yes"/>
      <point x="47" y="613"/>
      <point x="76" y="594"/>
      <point x="111" y="542" type="curve" smooth="yes"/>
      <point x="298" y="271" type="line"/>
    </contour>
    <contour>
      <point x="282" y="81" type="line" smooth="yes"/>
      <point x="282" y="23"/>
      <point x="268" y="12"/>
      <point x="192" y="12" type="curve" smooth="yes"/>
      <point x="188" y="12"/>
      <point x="188" y="0"/>
      <point x="192" y="0" type="curve" smooth="yes"/>
      <point x="223" y="0"/>
      <point x="264" y="2"/>
      <point x="308" y="2" type="curve" smooth="yes"/>
      <point x="353" y="2"/>
      <point x="392" y="0"/>
      <point x="423" y="0" type="curve" smooth="yes"/>
      <point x="427" y="0"/>
      <point x="427" y="12"/>
      <point x="423" y="12" type="curve" smooth="yes"/>
      <point x="346" y="12"/>
      <point x="335" y="23"/>
      <point x="335" y="81" type="curve" smooth="yes"/>
      <point x="335" y="319" type="line"/>
      <point x="282" y="310" type="line"/>
    </contour>
    <contour>
      <point x="316" y="625" type="move" name="top"/>
    </contour>
    <contour>
      <point x="304" y="0" type="move" name="bottom"/>
    </contour>
    <contour>
      <point x="23" y="625" type="move" name="topleft"/>
    </contour>
  </outline>
</glyph>
<glyph name="Z" format="1">
  <advance width="593"/>
  <unicode hex="005A"/>
  <outline>
    <contour>
      <point x="50" y="8"/>
      <point x="54" y="0"/>
      <point x="60" y="0" type="curve" smooth="yes"/>
      <point x="208" y="0"/>
      <point x="389" y="0"/>
      <point x="538" y="-2" type="curve" smooth="yes"/>
      <point x="544" y="-2"/>
      <point x="547" y="4"/>
      <point x="547" y="8" type="curve" smooth="yes"/>
      <point x="561" y="130" type="line" smooth="yes"/>
      <point x="561" y="133"/>
      <point x="551" y="133"/>
      <point x="550" y="130" type="curve" smooth="yes"/>
      <point x="536" y="48"/>
      <point x="497" y="19"/>
      <point x="404" y="19" type="curve" smooth="yes"/>
      <point x="346" y="19"/>
      <point x="253" y="19"/>
      <point x="136" y="19" type="curve" smooth="yes"/>
      <point x="127" y="19"/>
      <point x="126" y="20"/>
      <point x="131" y="27" type="curve" smooth="yes"/>
      <point x="532" y="612" type="line" smooth="yes"/>
      <point x="536" y="616"/>
      <point x="531" y="625"/>
      <point x="525" y="625" type="curve" smooth="yes"/>
      <point x="350" y="625"/>
      <point x="240" y="625"/>
      <point x="160" y="625" type="curve" smooth="yes"/>
      <point x="109" y="625"/>
      <point x="99" y="629"/>
      <point x="103" y="653" type="curve" smooth="yes"/>
      <point x="104" y="656"/>
      <point x="92" y="658"/>
      <point x="91" y="655" type="curve" smooth="yes"/>
      <point x="51" y="504" type="line" smooth="yes"/>
      <point x="50" y="501"/>
      <point x="62" y="498"/>
      <point x="63" y="502" type="curve" smooth="yes"/>
      <point x="97" y="607"/>
      <point x="101" y="608"/>
      <point x="455" y="608" type="curve" smooth="yes"/>
      <point x="464" y="608"/>
      <point x="464" y="607"/>
      <point x="460" y="600" type="curve" smooth="yes"/>
      <point x="54" y="13" type="line" smooth="yes"/>
    </contour>
    <contour>
      <point x="311" y="625" type="move" name="top"/>
    </contour>
    <contour>
      <point x="297" y="0" type="move" name="bottom"/>
    </contour>
  </outline>
</glyph>
<glyph name="backslash" format="1">
  <advance width="339"/>
  <unicode hex="005C"/>
  <outline>
    <contour>
      <point x="280" y="-168"/>
      <point x="315" y="-157"/>
      <point x="313" y="-152" type="curve" smooth="yes"/>
      <point x="61" y="730" type="line" smooth="yes"/>
      <point x="58" y="736"/>
      <point x="23" y="724"/>
      <point x="26" y="718" type="curve" smooth="yes"/>
      <point x="277" y="-163" type="line" smooth="yes"/>
    </contour>
  </outline>
</glyph>
<glyph name="bracketright" format="1">
  <advance width="274"/>
  <unicode hex="005D"/>
  <outline>
    <component base="bracketleft" xOffset="274" xScale="-1"/>
    <contour>
      <point x="51" y="12" type="move" name="ogonek"/>
    </contour>
    <contour>
      <point x="153" y="625" type="move" name="top"/>
    </contour>
  </outline>
</glyph>
<glyph name="asciicircum" format="1">
  <advance width="392"/>
  <unicode hex="005E"/>
  <outline>
    <contour>
      <point x="207" y="629" type="line" smooth="yes"/>
      <point x="205" y="636"/>
      <point x="186" y="636"/>
      <point x="185" y="629" type="curve" smooth="yes"/>
      <point x="58" y="380" type="line" smooth="yes"/>
      <point x="57" y="377"/>
      <point x="65" y="372"/>
      <point x="68" y="375" type="curve" smooth="yes"/>
      <point x="196" y="557" type="line"/>
      <point x="324" y="375" type="line" smooth="yes"/>
      <point x="326" y="372"/>
      <point x="335" y="377"/>
      <point x="333" y="380" type="curve" smooth="yes"/>
    </contour>
  </outline>
</glyph>
<glyph name="underscore" format="1">
  <advance width="398"/>
  <unicode hex="005F"/>
  <outline>
    <contour>
      <point x="364" y="-75" type="line" smooth="yes"/>
      <point x="370" y="-75"/>
      <point x="370" y="-37"/>
      <point x="364" y="-37" type="curve" smooth="yes"/>
      <point x="33" y="-37" type="line" smooth="yes"/>
      <point x="28" y="-37"/>
      <point x="28" y="-75"/>
      <point x="34" y="-75" type="curve" smooth="yes"/>
    </contour>
  </outline>
</glyph>
<glyph name="a" format="1">
  <advance width="419"/>
  <unicode hex="0061"/>
  <outline>
    <contour>
      <point x="416" y="43" type="line" smooth="yes"/>
      <point x="422" y="46"/>
      <point x="418" y="56"/>
      <point x="412" y="54" type="curve" smooth="yes"/>
      <point x="388" y="44"/>
      <point x="370" y="39"/>
      <point x="357" y="39" type="curve" smooth="yes"/>
      <point x="329" y="39"/>
      <point x="319" y="60"/>
      <point x="319" y="108" type="curve" smooth="yes"/>
      <point x="319" y="285" type="line" smooth="yes"/>
      <point x="319" y="361"/>
      <point x="284" y="395"/>
      <point x="235" y="395" type="curve" smooth="yes"/>
      <point x="166" y="395"/>
      <point x="62" y="330"/>
      <point x="62" y="285" type="curve" smooth="yes"/>
      <point x="62" y="268"/>
      <point x="74" y="258"/>
      <point x="92" y="258" type="curve" smooth="yes"/>
      <point x="118" y="258"/>
      <point x="122" y="278"/>
      <point x="124" y="291" type="curve" smooth="yes"/>
      <point x="129" y="325"/>
      <point x="151" y="375"/>
      <point x="205" y="375" type="curve" smooth="yes"/>
      <point x="241" y="375"/>
      <point x="273" y="353"/>
      <point x="273" y="255" type="curve" smooth="yes"/>
      <point x="273" y="74" type="line" smooth="yes"/>
      <point x="273" y="21"/>
      <point x="289" y="-8"/>
      <point x="305" y="-8" type="curve" smooth="yes"/>
      <point x="309" y="-8"/>
      <point x="311" y="-7"/>
      <point x="313" y="-6" type="curve" smooth="yes"/>
    </contour>
    <contour>
      <point x="145" y="-7"/>
      <point x="165" y="1"/>
      <point x="207" y="23" type="curve" smooth="yes"/>
      <point x="294" y="70" type="line"/>
      <point x="292" y="81" type="line"/>
      <point x="199" y="34" type="line" smooth="yes"/>
      <point x="188" y="29"/>
      <point x="175" y="25"/>
      <point x="161" y="25" type="curve" smooth="yes"/>
      <point x="135" y="25"/>
      <point x="117" y="41"/>
      <point x="117" y="69" type="curve" smooth="yes"/>
      <point x="117" y="91"/>
      <point x="127" y="105"/>
      <point x="157" y="116" type="curve" smooth="yes"/>
      <point x="285" y="165" type="line"/>
      <point x="283" y="175" type="line"/>
      <point x="147" y="126" type="line" smooth="yes"/>
      <point x="83" y="103"/>
      <point x="57" y="85"/>
      <point x="57" y="50" type="curve" smooth="yes"/>
      <point x="57" y="20"/>
      <point x="77" y="-7"/>
      <point x="120" y="-7" type="curve" smooth="yes"/>
    </contour>
    <contour>
      <point x="374" y="12" type="move" name="ogonek"/>
    </contour>
    <contour>
      <point x="209" y="0" type="move" name="bottom"/>
    </contour>
    <contour>
      <point x="208" y="386" type="move" name="top"/>
    </contour>
  </outline>
</glyph>
<glyph name="b" format="1">
  <advance width="508"/>
  <unicode hex="0062"/>
  <outline>
    <contour>
      <point x="357" y="-13"/>
      <point x="470" y="62"/>
      <point x="470" y="214" type="curve" smooth="yes"/>
      <point x="470" y="338"/>
      <point x="394" y="399"/>
      <point x="311" y="399" type="curve" smooth="yes"/>
      <point x="225" y="399"/>
      <point x="166" y="333"/>
      <point x="124" y="285" type="curve"/>
      <point x="132" y="278" type="line"/>
      <point x="174" y="326"/>
      <point x="222" y="371"/>
      <point x="281" y="371" type="curve" smooth="yes"/>
      <point x="357" y="371"/>
      <point x="414" y="306"/>
      <point x="414" y="182" type="curve" smooth="yes"/>
      <point x="414" y="67"/>
      <point x="364" y="6"/>
      <point x="282" y="6" type="curve" smooth="yes"/>
      <point x="230" y="6"/>
      <point x="144" y="36"/>
      <point x="144" y="123" type="curve"/>
      <point x="101" y="41" type="line"/>
      <point x="149" y="1"/>
      <point x="198" y="-13"/>
      <point x="249" y="-13" type="curve" smooth="yes"/>
    </contour>
    <contour>
      <point x="144" y="44" type="line"/>
      <point x="144" y="718" type="line" smooth="yes"/>
      <point x="144" y="722"/>
      <point x="139" y="725"/>
      <point x="137" y="725" type="curve" smooth="yes"/>
      <point x="136" y="725"/>
      <point x="135" y="725"/>
      <point x="132" y="724" type="curve" smooth="yes"/>
      <point x="12" y="665" type="line" smooth="yes"/>
      <point x="6" y="663"/>
      <point x="11" y="651"/>
      <point x="16" y="654" type="curve" smooth="yes"/>
      <point x="36" y="663"/>
      <point x="53" y="668"/>
      <point x="64" y="668" type="curve" smooth="yes"/>
      <point x="89" y="668"/>
      <point x="97" y="647"/>
      <point x="97" y="599" type="curve" smooth="yes"/>
      <point x="97" y="103" type="line" smooth="yes"/>
      <point x="97" y="50"/>
      <point x="77" y="34"/>
      <point x="37" y="6" type="curve" smooth="yes"/>
      <point x="33" y="2"/>
      <point x="36" y="-6"/>
      <point x="42" y="-4" type="curve" smooth="yes"/>
    </contour>
    <contour>
      <point x="254" y="386" type="move" name="top"/>
    </contour>
    <contour>
      <point x="254" y="0" type="move" name="bottom"/>
    </contour>
  </outline>
</glyph>
<glyph name="c" format="1">
  <advance width="407"/>
  <unicode hex="0063"/>
  <outline>
    <contour>
      <point x="284" y="-12"/>
      <point x="329" y="5"/>
      <point x="375" y="46" type="curve" smooth="yes"/>
      <point x="379" y="49"/>
      <point x="372" y="56"/>
      <point x="368" y="54" type="curve" smooth="yes"/>
      <point x="338" y="27"/>
      <point x="299" y="19"/>
      <point x="265" y="19" type="curve" smooth="yes"/>
      <point x="145" y="19"/>
      <point x="94" y="111"/>
      <point x="94" y="214" type="curve" smooth="yes"/>
      <point x="94" y="310"/>
      <point x="138" y="375"/>
      <point x="219" y="375" type="curve" smooth="yes"/>
      <point x="261" y="375"/>
      <point x="280" y="360"/>
      <point x="296" y="337" type="curve" smooth="yes"/>
      <point x="304" y="324"/>
      <point x="317" y="309"/>
      <point x="336" y="309" type="curve" smooth="yes"/>
      <point x="354" y="309"/>
      <point x="365" y="322"/>
      <point x="365" y="338" type="curve" smooth="yes"/>
      <point x="365" y="370"/>
      <point x="306" y="395"/>
      <point x="251" y="395" type="curve" smooth="yes"/>
      <point x="151" y="395"/>
      <point x="37" y="319"/>
      <point x="37" y="185" type="curve" smooth="yes"/>
      <point x="37" y="91"/>
      <point x="94" y="-12"/>
      <point x="230" y="-12" type="curve" smooth="yes"/>
    </contour>
    <contour>
      <point x="219" y="386" type="move" name="top"/>
    </contour>
    <contour>
      <point x="229" y="0" type="move" name="bottom"/>
    </contour>
  </outline>
</glyph>
<glyph name="d" format="1">
  <advance width="513"/>
  <unicode hex="0064"/>
  <outline>
    <contour>
      <point x="282" y="-13"/>
      <point x="343" y="53"/>
      <point x="386" y="101" type="curve"/>
      <point x="378" y="108" type="line"/>
      <point x="335" y="60"/>
      <point x="289" y="20"/>
      <point x="228" y="20" type="curve" smooth="yes"/>
      <point x="151" y="20"/>
      <point x="92" y="94"/>
      <point x="92" y="206" type="curve" smooth="yes"/>
      <point x="92" y="316"/>
      <point x="149" y="380"/>
      <point x="235" y="380" type="curve" smooth="yes"/>
      <point x="306" y="380"/>
      <point x="345" y="337"/>
      <point x="378" y="287" type="curve"/>
      <point x="387" y="351" type="line"/>
      <point x="352" y="382"/>
      <point x="312" y="399"/>
      <point x="265" y="399" type="curve" smooth="yes"/>
      <point x="166" y="399"/>
      <point x="37" y="325"/>
      <point x="37" y="177" type="curve" smooth="yes"/>
      <point x="37" y="63"/>
      <point x="110" y="-13"/>
      <point x="193" y="-13" type="curve" smooth="yes"/>
    </contour>
    <contour>
      <point x="412" y="722"/>
      <point x="407" y="725"/>
      <point x="405" y="725" type="curve" smooth="yes"/>
      <point x="404" y="725"/>
      <point x="402" y="725"/>
      <point x="400" y="724" type="curve" smooth="yes"/>
      <point x="278" y="664" type="line" smooth="yes"/>
      <point x="273" y="662"/>
      <point x="277" y="650"/>
      <point x="283" y="653" type="curve" smooth="yes"/>
      <point x="305" y="662"/>
      <point x="319" y="668"/>
      <point x="331" y="668" type="curve" smooth="yes"/>
      <point x="357" y="668"/>
      <point x="365" y="647"/>
      <point x="365" y="599" type="curve" smooth="yes"/>
      <point x="365" y="81" type="line" smooth="yes"/>
      <point x="365" y="22"/>
      <point x="381" y="-8"/>
      <point x="399" y="-8" type="curve" smooth="yes"/>
      <point x="402" y="-8"/>
      <point x="405" y="-7"/>
      <point x="407" y="-6" type="curve" smooth="yes"/>
      <point x="510" y="43" type="line" smooth="yes"/>
      <point x="516" y="46"/>
      <point x="511" y="57"/>
      <point x="505" y="54" type="curve" smooth="yes"/>
      <point x="484" y="41"/>
      <point x="463" y="39"/>
      <point x="450" y="39" type="curve" smooth="yes"/>
      <point x="422" y="39"/>
      <point x="412" y="60"/>
      <point x="412" y="108" type="curve" smooth="yes"/>
      <point x="412" y="718" type="line" smooth="yes"/>
    </contour>
    <contour>
      <point x="257" y="0" type="move" name="bottom"/>
    </contour>
    <contour>
      <point x="257" y="386" type="move" name="top"/>
    </contour>
    <contour>
      <point x="488" y="386" type="move" name="topright"/>
    </contour>
    <contour>
      <point x="256" y="193" type="move" name="center"/>
    </contour>
  </outline>
</glyph>
<glyph name="e" format="1">
  <advance width="405"/>
  <unicode hex="0065"/>
  <outline>
    <contour>
      <point x="270" y="-12"/>
      <point x="317" y="4"/>
      <point x="364" y="44" type="curve" smooth="yes"/>
      <point x="367" y="48"/>
      <point x="360" y="56"/>
      <point x="357" y="54" type="curve" smooth="yes"/>
      <point x="325" y="30"/>
      <point x="288" y="20"/>
      <point x="253" y="20" type="curve" smooth="yes"/>
      <point x="152" y="20"/>
      <point x="94" y="104"/>
      <point x="94" y="218" type="curve" smooth="yes"/>
      <point x="94" y="315"/>
      <point x="136" y="375"/>
      <point x="215" y="375" type="curve" smooth="yes"/>
      <point x="269" y="375"/>
      <point x="305" y="340"/>
      <point x="298" y="274" type="curve"/>
      <point x="347" y="274" type="line" smooth="yes"/>
      <point x="357" y="274"/>
      <point x="359" y="281"/>
      <point x="359" y="296" type="curve" smooth="yes"/>
      <point x="359" y="357"/>
      <point x="319" y="395"/>
      <point x="249" y="395" type="curve" smooth="yes"/>
      <point x="129" y="395"/>
      <point x="37" y="301"/>
      <point x="37" y="180" type="curve" smooth="yes"/>
      <point x="37" y="82"/>
      <point x="99" y="-12"/>
      <point x="221" y="-12" type="curve" smooth="yes"/>
    </contour>
    <contour>
      <point x="310" y="274" type="line"/>
      <point x="310" y="289" type="line"/>
      <point x="80" y="284" type="line"/>
      <point x="81" y="273" type="line"/>
    </contour>
    <contour>
      <point x="373" y="12" type="move" name="ogonek"/>
    </contour>
    <contour>
      <point x="228" y="0" type="move" name="bottom"/>
    </contour>
    <contour>
      <point x="225" y="386" type="move" name="top"/>
    </contour>
  </outline>
</glyph>
<glyph name="f" format="1">
  <advance width="305"/>
  <unicode hex="0066"/>
  <outline>
    <contour>
      <point x="58" y="0"/>
      <point x="92" y="2"/>
      <point x="127" y="2" type="curve" smooth="yes"/>
      <point x="170" y="2"/>
      <point x="209" y="0"/>
      <point x="253" y="0" type="curve" smooth="yes"/>
      <point x="256" y="0"/>
      <point x="256" y="12"/>
      <point x="253" y="12" type="curve" smooth="yes"/>
      <point x="164" y="12"/>
      <point x="152" y="23"/>
      <point x="152" y="81" type="curve" smooth="yes"/>
      <point x="152" y="439" type="line" smooth="yes"/>
      <point x="152" y="628"/>
      <point x="207" y="710"/>
      <point x="285" y="710" type="curve" smooth="yes"/>
      <point x="322" y="710"/>
      <point x="346" y="697"/>
      <point x="368" y="669" type="curve" smooth="yes"/>
      <point x="382" y="651"/>
      <point x="392" y="647"/>
      <point x="404" y="647" type="curve" smooth="yes"/>
      <point x="420" y="647"/>
      <point x="435" y="656"/>
      <point x="435" y="675" type="curve" smooth="yes"/>
      <point x="435" y="701"/>
      <point x="388" y="726"/>
      <point x="319" y="726" type="curve" smooth="yes"/>
      <point x="184" y="726"/>
      <point x="110" y="639"/>
      <point x="103" y="418" type="curve" smooth="yes"/>
      <point x="102" y="384"/>
      <point x="87" y="373"/>
      <point x="29" y="373" type="curve" smooth="yes"/>
      <point x="25" y="373"/>
      <point x="25" y="361"/>
      <point x="29" y="361" type="curve" smooth="yes"/>
      <point x="98" y="361"/>
      <point x="104" y="356"/>
      <point x="104" y="306" type="curve" smooth="yes"/>
      <point x="104" y="81" type="line" smooth="yes"/>
      <point x="104" y="23"/>
      <point x="92" y="12"/>
      <point x="33" y="12" type="curve" smooth="yes"/>
      <point x="29" y="12"/>
      <point x="29" y="0"/>
      <point x="33" y="0" type="curve" smooth="yes"/>
    </contour>
    <contour>
      <point x="287" y="337"/>
      <point x="292" y="351"/>
      <point x="292" y="361" type="curve" smooth="yes"/>
      <point x="292" y="374"/>
      <point x="289" y="384"/>
      <point x="285" y="384" type="curve" smooth="yes"/>
      <point x="230" y="378"/>
      <point x="184" y="374"/>
      <point x="132" y="374" type="curve"/>
      <point x="132" y="353" type="line"/>
      <point x="185" y="353"/>
      <point x="230" y="351"/>
      <point x="282" y="338" type="curve" smooth="yes"/>
    </contour>
    <contour>
      <point x="153" y="386" type="move" name="top"/>
    </contour>
    <contour>
      <point x="153" y="0" type="move" name="bottom"/>
    </contour>
  </outline>
</glyph>
<glyph name="g" format="1">
  <advance width="428"/>
  <unicode hex="0067"/>
  <outline>
    <contour>
      <point x="308" y="-282"/>
      <point x="418" y="-177"/>
      <point x="418" y="-90" type="curve" smooth="yes"/>
      <point x="418" y="9"/>
      <point x="308" y="15"/>
      <point x="213" y="29" type="curve" smooth="yes"/>
      <point x="159" y="37"/>
      <point x="102" y="47"/>
      <point x="102" y="94" type="curve" smooth="yes"/>
      <point x="102" y="122"/>
      <point x="120" y="150"/>
      <point x="147" y="166" type="curve"/>
      <point x="140" y="173" type="line"/>
      <point x="103" y="147"/>
      <point x="62" y="109"/>
      <point x="62" y="64" type="curve" smooth="yes"/>
      <point x="62" y="8"/>
      <point x="131" y="-6"/>
      <point x="191" y="-14" type="curve" smooth="yes"/>
      <point x="275" y="-25"/>
      <point x="374" y="-33"/>
      <point x="374" y="-119" type="curve" smooth="yes"/>
      <point x="374" y="-184"/>
      <point x="318" y="-253"/>
      <point x="207" y="-253" type="curve" smooth="yes"/>
      <point x="117" y="-253"/>
      <point x="64" y="-204"/>
      <point x="64" y="-131" type="curve" smooth="yes"/>
      <point x="64" y="-53"/>
      <point x="127" y="-20"/>
      <point x="185" y="14" type="curve"/>
      <point x="175" y="25" type="line"/>
      <point x="77" y="-32"/>
      <point x="15" y="-91"/>
      <point x="15" y="-160" type="curve" smooth="yes"/>
      <point x="15" y="-228"/>
      <point x="75" y="-282"/>
      <point x="171" y="-282" type="curve" smooth="yes"/>
    </contour>
    <contour>
      <point x="289" y="157"/>
      <point x="340" y="218"/>
      <point x="340" y="283" type="curve" smooth="yes"/>
      <point x="340" y="331"/>
      <point x="309" y="393"/>
      <point x="205" y="393" type="curve" smooth="yes"/>
      <point x="112" y="393"/>
      <point x="54" y="342"/>
      <point x="54" y="277" type="curve" smooth="yes"/>
      <point x="54" y="212"/>
      <point x="104" y="157"/>
      <point x="194" y="157" type="curve" smooth="yes"/>
    </contour>
    <contour>
      <point x="163" y="171"/>
      <point x="108" y="212"/>
      <point x="108" y="296" type="curve" smooth="yes"/>
      <point x="108" y="357"/>
      <point x="142" y="379"/>
      <point x="182" y="379" type="curve" smooth="yes"/>
      <point x="235" y="379"/>
      <point x="287" y="335"/>
      <point x="287" y="263" type="curve" smooth="yes"/>
      <point x="287" y="196"/>
      <point x="253" y="171"/>
      <point x="214" y="171" type="curve" smooth="yes"/>
    </contour>
    <contour>
      <point x="296" y="349" type="line"/>
      <point x="311" y="353"/>
      <point x="325" y="356"/>
      <point x="343" y="356" type="curve" smooth="yes"/>
      <point x="374" y="356"/>
      <point x="396" y="346"/>
      <point x="407" y="342" type="curve" smooth="yes"/>
      <point x="412" y="339"/>
      <point x="416" y="359"/>
      <point x="416" y="373" type="curve" smooth="yes"/>
      <point x="416" y="382"/>
      <point x="414" y="394"/>
      <point x="411" y="394" type="curve" smooth="yes"/>
      <point x="364" y="394"/>
      <point x="327" y="377"/>
      <point x="287" y="353" type="curve"/>
      <point x="287" y="319" type="line"/>
    </contour>
    <contour>
      <point x="209" y="386" type="move" name="top"/>
    </contour>
    <contour>
      <point x="214" y="0" type="move" name="bottom"/>
    </contour>
  </outline>
</glyph>
<glyph name="h" format="1">
  <advance width="496"/>
  <unicode hex="0068"/>
  <outline>
    <contour>
      <point x="50" y="0"/>
      <point x="82" y="2"/>
      <point x="116" y="2" type="curve" smooth="yes"/>
      <point x="150" y="2"/>
      <point x="181" y="0"/>
      <point x="205" y="0" type="curve" smooth="yes"/>
      <point x="208" y="0"/>
      <point x="208" y="12"/>
      <point x="205" y="12" type="curve" smooth="yes"/>
      <point x="149" y="12"/>
      <point x="139" y="23"/>
      <point x="139" y="81" type="curve" smooth="yes"/>
      <point x="139" y="718" type="line" smooth="yes"/>
      <point x="139" y="722"/>
      <point x="136" y="725"/>
      <point x="132" y="725" type="curve" smooth="yes"/>
      <point x="131" y="725"/>
      <point x="131" y="725"/>
      <point x="130" y="725" type="curve" smooth="yes"/>
      <point x="7" y="665" type="line" smooth="yes"/>
      <point x="1" y="663"/>
      <point x="6" y="651"/>
      <point x="12" y="654" type="curve" smooth="yes"/>
      <point x="33" y="664"/>
      <point x="48" y="669"/>
      <point x="60" y="669" type="curve" smooth="yes"/>
      <point x="84" y="669"/>
      <point x="92" y="648"/>
      <point x="92" y="600" type="curve" smooth="yes"/>
      <point x="92" y="81" type="line" smooth="yes"/>
      <point x="92" y="23"/>
      <point x="82" y="12"/>
      <point x="27" y="12" type="curve" smooth="yes"/>
      <point x="23" y="12"/>
      <point x="23" y="0"/>
      <point x="27" y="0" type="curve" smooth="yes"/>
    </contour>
    <contour>
      <point x="319" y="0"/>
      <point x="351" y="2"/>
      <point x="385" y="2" type="curve" smooth="yes"/>
      <point x="419" y="2"/>
      <point x="450" y="0"/>
      <point x="474" y="0" type="curve" smooth="yes"/>
      <point x="477" y="0"/>
      <point x="477" y="12"/>
      <point x="474" y="12" type="curve" smooth="yes"/>
      <point x="418" y="12"/>
      <point x="408" y="23"/>
      <point x="408" y="81" type="curve" smooth="yes"/>
      <point x="408" y="275" type="line" smooth="yes"/>
      <point x="408" y="357"/>
      <point x="366" y="396"/>
      <point x="294" y="396" type="curve" smooth="yes"/>
      <point x="234" y="396"/>
      <point x="179" y="364"/>
      <point x="116" y="281" type="curve"/>
      <point x="120" y="269" type="line"/>
      <point x="159" y="326"/>
      <point x="215" y="363"/>
      <point x="267" y="363" type="curve" smooth="yes"/>
      <point x="331" y="363"/>
      <point x="361" y="325"/>
      <point x="361" y="244" type="curve" smooth="yes"/>
      <point x="361" y="81" type="line" smooth="yes"/>
      <point x="361" y="23"/>
      <point x="351" y="12"/>
      <point x="296" y="12" type="curve" smooth="yes"/>
      <point x="292" y="12"/>
      <point x="292" y="0"/>
      <point x="296" y="0" type="curve" smooth="yes"/>
    </contour>
    <contour>
      <point x="249" y="193" type="move" name="center"/>
    </contour>
    <contour>
      <point x="249" y="0" type="move" name="bottom"/>
    </contour>
    <contour>
      <point x="124" y="660" type="move" name="top"/>
    </contour>
  </outline>
</glyph>
<glyph name="i" format="1">
  <advance width="275"/>
  <unicode hex="0069"/>
  <outline>
    <component base="idotless"/>
    <component base="dotaccent" xOffset="64"/>
    <contour>
      <point x="147" y="0" type="move" name="bottom"/>
    </contour>
  </outline>
</glyph>
<glyph name="k" format="1">
  <advance width="491"/>
  <unicode hex="006B"/>
  <outline>
    <contour>
      <point x="50" y="0"/>
      <point x="82" y="2"/>
      <point x="116" y="2" type="curve" smooth="yes"/>
      <point x="150" y="2"/>
      <point x="181" y="0"/>
      <point x="205" y="0" type="curve" smooth="yes"/>
      <point x="208" y="0"/>
      <point x="208" y="12"/>
      <point x="205" y="12" type="curve" smooth="yes"/>
      <point x="149" y="12"/>
      <point x="139" y="23"/>
      <point x="139" y="81" type="curve" smooth="yes"/>
      <point x="139" y="718" type="line" smooth="yes"/>
      <point x="139" y="722"/>
      <point x="135" y="725"/>
      <point x="132" y="725" type="curve" smooth="yes"/>
      <point x="131" y="725"/>
      <point x="130" y="725"/>
      <point x="127" y="724" type="curve" smooth="yes"/>
      <point x="7" y="665" type="line" smooth="yes"/>
      <point x="1" y="663"/>
      <point x="6" y="651"/>
      <point x="12" y="654" type="curve" smooth="yes"/>
      <point x="33" y="664"/>
      <point x="48" y="669"/>
      <point x="60" y="669" type="curve" smooth="yes"/>
      <point x="84" y="669"/>
      <point x="92" y="648"/>
      <point x="92" y="600" type="curve" smooth="yes"/>
      <point x="92" y="81" type="line" smooth="yes"/>
      <point x="92" y="23"/>
      <point x="82" y="12"/>
      <point x="27" y="12" type="curve" smooth="yes"/>
      <point x="23" y="12"/>
      <point x="23" y="0"/>
      <point x="27" y="0" type="curve" smooth="yes"/>
    </contour>
    <contour>
      <point x="308" y="0"/>
      <point x="342" y="2"/>
      <point x="391" y="2" type="curve" smooth="yes"/>
      <point x="425" y="2"/>
      <point x="456" y="0"/>
      <point x="480" y="0" type="curve" smooth="yes"/>
      <point x="483" y="0"/>
      <point x="483" y="12"/>
      <point x="480" y="12" type="curve" smooth="yes"/>
      <point x="440" y="12"/>
      <point x="399" y="29"/>
      <point x="363" y="81" type="curve" smooth="yes"/>
      <point x="235" y="260" type="line"/>
      <point x="194" y="230" type="line"/>
      <point x="322" y="53" type="line" smooth="yes"/>
      <point x="343" y="22"/>
      <point x="329" y="12"/>
      <point x="278" y="12" type="curve" smooth="yes"/>
      <point x="275" y="12"/>
      <point x="275" y="0"/>
      <point x="278" y="0" type="curve" smooth="yes"/>
    </contour>
    <contour>
      <point x="302" y="305" type="line" smooth="yes"/>
      <point x="365" y="353"/>
      <point x="421" y="374"/>
      <point x="468" y="374" type="curve" smooth="yes"/>
      <point x="471" y="374"/>
      <point x="471" y="386"/>
      <point x="468" y="386" type="curve" smooth="yes"/>
      <point x="441" y="386"/>
      <point x="416" y="384"/>
      <point x="367" y="384" type="curve" smooth="yes"/>
      <point x="313" y="384"/>
      <point x="287" y="386"/>
      <point x="255" y="386" type="curve" smooth="yes"/>
      <point x="251" y="386"/>
      <point x="251" y="374"/>
      <point x="255" y="374" type="curve" smooth="yes"/>
      <point x="325" y="374"/>
      <point x="339" y="350"/>
      <point x="284" y="308" type="curve" smooth="yes"/>
      <point x="122" y="182" type="line"/>
      <point x="126" y="172" type="line"/>
    </contour>
    <contour>
      <point x="95" y="675" type="move" name="top"/>
    </contour>
    <contour>
      <point x="246" y="0" type="move" name="bottom"/>
    </contour>
  </outline>
</glyph>
<glyph name="l" format="1">
  <advance width="256"/>
  <unicode hex="006C"/>
  <outline>
    <contour>
      <point x="64" y="0"/>
      <point x="97" y="2"/>
      <point x="131" y="2" type="curve" smooth="yes"/>
      <point x="166" y="2"/>
      <point x="198" y="0"/>
      <point x="221" y="0" type="curve" smooth="yes"/>
      <point x="225" y="0"/>
      <point x="225" y="12"/>
      <point x="221" y="12" type="curve" smooth="yes"/>
      <point x="165" y="12"/>
      <point x="156" y="25"/>
      <point x="156" y="81" type="curve" smooth="yes"/>
      <point x="156" y="718" type="line" smooth="yes"/>
      <point x="156" y="722"/>
      <point x="151" y="725"/>
      <point x="149" y="725" type="curve" smooth="yes"/>
      <point x="147" y="725"/>
      <point x="146" y="725"/>
      <point x="144" y="724" type="curve" smooth="yes"/>
      <point x="21" y="665" type="line" smooth="yes"/>
      <point x="15" y="663"/>
      <point x="20" y="651"/>
      <point x="26" y="654" type="curve" smooth="yes"/>
      <point x="47" y="664"/>
      <point x="62" y="669"/>
      <point x="74" y="669" type="curve" smooth="yes"/>
      <point x="98" y="669"/>
      <point x="106" y="648"/>
      <point x="106" y="600" type="curve" smooth="yes"/>
      <point x="106" y="81" type="line" smooth="yes"/>
      <point x="106" y="23"/>
      <point x="96" y="12"/>
      <point x="41" y="12" type="curve" smooth="yes"/>
      <point x="37" y="12"/>
      <point x="37" y="0"/>
      <point x="41" y="0" type="curve" smooth="yes"/>
    </contour>
    <contour>
      <point x="131" y="0" type="move" name="bottom"/>
    </contour>
    <contour>
      <point x="125" y="674" type="move" name="top"/>
    </contour>
    <contour>
      <point x="227" y="386" type="move" name="topright"/>
    </contour>
    <contour>
      <point x="129" y="193" type="move" name="center"/>
    </contour>
  </outline>
</glyph>
<glyph name="m" format="1">
  <advance width="760"/>
  <unicode hex="006D"/>
  <outline>
    <contour>
      <point x="584" y="0"/>
      <point x="615" y="2"/>
      <point x="649" y="2" type="curve" smooth="yes"/>
      <point x="683" y="2"/>
      <point x="715" y="0"/>
      <point x="738" y="0" type="curve" smooth="yes"/>
      <point x="742" y="0"/>
      <point x="742" y="12"/>
      <point x="738" y="12" type="curve" smooth="yes"/>
      <point x="682" y="12"/>
      <point x="673" y="23"/>
      <point x="673" y="81" type="curve" smooth="yes"/>
      <point x="673" y="275" type="line" smooth="yes"/>
      <point x="673" y="357"/>
      <point x="633" y="396"/>
      <point x="564" y="396" type="curve" smooth="yes"/>
      <point x="506" y="396"/>
      <point x="453" y="364"/>
      <point x="392" y="281" type="curve"/>
      <point x="396" y="269" type="line"/>
      <point x="434" y="326"/>
      <point x="488" y="363"/>
      <point x="537" y="363" type="curve" smooth="yes"/>
      <point x="598" y="363"/>
      <point x="626" y="325"/>
      <point x="626" y="244" type="curve" smooth="yes"/>
      <point x="626" y="81" type="line" smooth="yes"/>
      <point x="626" y="23"/>
      <point x="615" y="12"/>
      <point x="560" y="12" type="curve" smooth="yes"/>
      <point x="557" y="12"/>
      <point x="557" y="0"/>
      <point x="560" y="0" type="curve" smooth="yes"/>
    </contour>
    <contour>
      <point x="326" y="0"/>
      <point x="358" y="2"/>
      <point x="392" y="2" type="curve" smooth="yes"/>
      <point x="426" y="2"/>
      <point x="457" y="0"/>
      <point x="481" y="0" type="curve" smooth="yes"/>
      <point x="484" y="0"/>
      <point x="484" y="12"/>
      <point x="481" y="12" type="curve" smooth="yes"/>
      <point x="425" y="12"/>
      <point x="415" y="23"/>
      <point x="415" y="81" type="curve" smooth="yes"/>
      <point x="415" y="275" type="line" smooth="yes"/>
      <point x="415" y="357"/>
      <point x="375" y="396"/>
      <point x="306" y="396" type="curve" smooth="yes"/>
      <point x="249" y="396"/>
      <point x="195" y="364"/>
      <point x="135" y="281" type="curve"/>
      <point x="139" y="269" type="line"/>
      <point x="177" y="326"/>
      <point x="230" y="363"/>
      <point x="280" y="363" type="curve" smooth="yes"/>
      <point x="340" y="363"/>
      <point x="368" y="325"/>
      <point x="368" y="244" type="curve" smooth="yes"/>
      <point x="368" y="81" type="line" smooth="yes"/>
      <point x="368" y="23"/>
      <point x="358" y="12"/>
      <point x="303" y="12" type="curve" smooth="yes"/>
      <point x="299" y="12"/>
      <point x="299" y="0"/>
      <point x="303" y="0" type="curve" smooth="yes"/>
    </contour>
    <contour>
      <point x="69" y="0"/>
      <point x="101" y="2"/>
      <point x="135" y="2" type="curve" smooth="yes"/>
      <point x="168" y="2"/>
      <point x="200" y="0"/>
      <point x="223" y="0" type="curve" smooth="yes"/>
      <point x="227" y="0"/>
      <point x="227" y="12"/>
      <point x="223" y="12" type="curve" smooth="yes"/>
      <point x="167" y="12"/>
      <point x="158" y="23"/>
      <point x="158" y="81" type="curve" smooth="yes"/>
      <point x="158" y="315" type="line" smooth="yes"/>
      <point x="158" y="367"/>
      <point x="139" y="395"/>
      <point x="130" y="395" type="curve" smooth="yes"/>
      <point x="129" y="395"/>
      <point x="127" y="395"/>
      <point x="125" y="394" type="curve" smooth="yes"/>
      <point x="14" y="342" type="line" smooth="yes"/>
      <point x="8" y="339"/>
      <point x="13" y="329"/>
      <point x="19" y="331" type="curve" smooth="yes"/>
      <point x="43" y="340"/>
      <point x="61" y="346"/>
      <point x="75" y="346" type="curve" smooth="yes"/>
      <point x="102" y="346"/>
      <point x="111" y="326"/>
      <point x="111" y="281" type="curve" smooth="yes"/>
      <point x="111" y="81" type="line" smooth="yes"/>
      <point x="111" y="23"/>
      <point x="101" y="12"/>
      <point x="46" y="12" type="curve" smooth="yes"/>
      <point x="42" y="12"/>
      <point x="42" y="0"/>
      <point x="46" y="0" type="curve" smooth="yes"/>
    </contour>
    <contour>
      <point x="381" y="386" type="move" name="top"/>
    </contour>
    <contour>
      <point x="387" y="0" type="move" name="bottom"/>
    </contour>
  </outline>
</glyph>
<glyph name="n" format="1">
  <advance width="515"/>
  <unicode hex="006E"/>
  <outline>
    <contour>
      <point x="338" y="0"/>
      <point x="370" y="2"/>
      <point x="404" y="2" type="curve" smooth="yes"/>
      <point x="437" y="2"/>
      <point x="469" y="0"/>
      <point x="492" y="0" type="curve" smooth="yes"/>
      <point x="496" y="0"/>
      <point x="496" y="12"/>
      <point x="492" y="12" type="curve" smooth="yes"/>
      <point x="436" y="12"/>
      <point x="427" y="23"/>
      <point x="427" y="81" type="curve" smooth="yes"/>
      <point x="427" y="278" type="line" smooth="yes"/>
      <point x="427" y="360"/>
      <point x="385" y="399"/>
      <point x="312" y="399" type="curve" smooth="yes"/>
      <point x="253" y="399"/>
      <point x="198" y="366"/>
      <point x="135" y="283" type="curve"/>
      <point x="139" y="271" type="line"/>
      <point x="178" y="329"/>
      <point x="234" y="365"/>
      <point x="285" y="365" type="curve" smooth="yes"/>
      <point x="350" y="365"/>
      <point x="380" y="329"/>
      <point x="380" y="248" type="curve" smooth="yes"/>
      <point x="380" y="81" type="line" smooth="yes"/>
      <point x="380" y="23"/>
      <point x="370" y="12"/>
      <point x="315" y="12" type="curve" smooth="yes"/>
      <point x="311" y="12"/>
      <point x="311" y="0"/>
      <point x="315" y="0" type="curve" smooth="yes"/>
    </contour>
    <contour>
      <point x="69" y="0"/>
      <point x="101" y="2"/>
      <point x="135" y="2" type="curve" smooth="yes"/>
      <point x="168" y="2"/>
      <point x="200" y="0"/>
      <point x="223" y="0" type="curve" smooth="yes"/>
      <point x="227" y="0"/>
      <point x="227" y="12"/>
      <point x="223" y="12" type="curve" smooth="yes"/>
      <point x="167" y="12"/>
      <point x="158" y="23"/>
      <point x="158" y="81" type="curve" smooth="yes"/>
      <point x="158" y="315" type="line" smooth="yes"/>
      <point x="158" y="367"/>
      <point x="139" y="395"/>
      <point x="130" y="395" type="curve" smooth="yes"/>
      <point x="129" y="395"/>
      <point x="127" y="395"/>
      <point x="125" y="394" type="curve" smooth="yes"/>
      <point x="14" y="342" type="line" smooth="yes"/>
      <point x="8" y="339"/>
      <point x="13" y="329"/>
      <point x="19" y="331" type="curve" smooth="yes"/>
      <point x="43" y="340"/>
      <point x="61" y="346"/>
      <point x="75" y="346" type="curve" smooth="yes"/>
      <point x="102" y="346"/>
      <point x="111" y="326"/>
      <point x="111" y="281" type="curve" smooth="yes"/>
      <point x="111" y="81" type="line" smooth="yes"/>
      <point x="111" y="23"/>
      <point x="101" y="12"/>
      <point x="46" y="12" type="curve" smooth="yes"/>
      <point x="42" y="12"/>
      <point x="42" y="0"/>
      <point x="46" y="0" type="curve" smooth="yes"/>
    </contour>
    <contour>
      <point x="269" y="386" type="move" name="top"/>
    </contour>
    <contour>
      <point x="257" y="0" type="move" name="bottom"/>
    </contour>
  </outline>
</glyph>
<glyph name="o" format="1">
  <advance width="477"/>
  <unicode hex="006F"/>
  <outline>
    <contour>
      <point x="343" y="-13"/>
      <point x="440" y="65"/>
      <point x="440" y="193" type="curve" smooth="yes"/>
      <point x="440" y="297"/>
      <point x="368" y="399"/>
      <point x="248" y="399" type="curve" smooth="yes"/>
      <point x="152" y="399"/>
      <point x="37" y="336"/>
      <point x="37" y="198" type="curve" smooth="yes"/>
      <point x="37" y="85"/>
      <point x="112" y="-13"/>
      <point x="230" y="-13" type="curve" smooth="yes"/>
    </contour>
    <contour>
      <point x="160" y="5"/>
      <point x="94" y="108"/>
      <point x="94" y="227" type="curve" smooth="yes"/>
      <point x="94" y="326"/>
      <point x="139" y="380"/>
      <point x="215" y="380" type="curve" smooth="yes"/>
      <point x="315" y="380"/>
      <point x="382" y="288"/>
      <point x="382" y="167" type="curve" smooth="yes"/>
      <point x="382" y="51"/>
      <point x="332" y="5"/>
      <point x="258" y="5" type="curve" smooth="yes"/>
    </contour>
    <contour>
      <point x="249" y="0" type="move" name="bottom"/>
    </contour>
    <contour>
      <point x="429" y="12" type="move" name="ogonek"/>
    </contour>
    <contour>
      <point x="239" y="386" type="move" name="top"/>
    </contour>
    <contour>
      <point x="329" y="386" type="move" name="topright"/>
    </contour>
    <contour>
      <point x="239" y="193" type="move" name="center"/>
    </contour>
  </outline>
</glyph>
<glyph name="p" format="1">
  <advance width="510"/>
  <unicode hex="0070"/>
  <outline>
    <contour>
      <point x="56" y="-275"/>
      <point x="89" y="-273"/>
      <point x="123" y="-273" type="curve" smooth="yes"/>
      <point x="170" y="-273"/>
      <point x="213" y="-275"/>
      <point x="248" y="-275" type="curve" smooth="yes"/>
      <point x="251" y="-275"/>
      <point x="251" y="-263"/>
      <point x="248" y="-263" type="curve" smooth="yes"/>
      <point x="161" y="-263"/>
      <point x="145" y="-251"/>
      <point x="145" y="-194" type="curve" smooth="yes"/>
      <point x="145" y="305" type="line" smooth="yes"/>
      <point x="145" y="364"/>
      <point x="131" y="394"/>
      <point x="112" y="394" type="curve" smooth="yes"/>
      <point x="110" y="394"/>
      <point x="106" y="393"/>
      <point x="104" y="392" type="curve" smooth="yes"/>
      <point x="1" y="343" type="line" smooth="yes"/>
      <point x="-5" y="340"/>
      <point x="0" y="330"/>
      <point x="6" y="332" type="curve" smooth="yes"/>
      <point x="29" y="343"/>
      <point x="48" y="347"/>
      <point x="61" y="347" type="curve" smooth="yes"/>
      <point x="89" y="347"/>
      <point x="98" y="326"/>
      <point x="98" y="278" type="curve" smooth="yes"/>
      <point x="98" y="-194" type="line" smooth="yes"/>
      <point x="98" y="-251"/>
      <point x="88" y="-263"/>
      <point x="33" y="-263" type="curve" smooth="yes"/>
      <point x="29" y="-263"/>
      <point x="29" y="-275"/>
      <point x="33" y="-275" type="curve" smooth="yes"/>
    </contour>
    <contour>
      <point x="340" y="-13"/>
      <point x="470" y="56"/>
      <point x="470" y="215" type="curve" smooth="yes"/>
      <point x="470" y="332"/>
      <point x="399" y="399"/>
      <point x="318" y="399" type="curve" smooth="yes"/>
      <point x="254" y="399"/>
      <point x="193" y="364"/>
      <point x="125" y="285" type="curve"/>
      <point x="133" y="278" type="line"/>
      <point x="177" y="326"/>
      <point x="221" y="366"/>
      <point x="282" y="366" type="curve" smooth="yes"/>
      <point x="357" y="366"/>
      <point x="415" y="302"/>
      <point x="415" y="184" type="curve" smooth="yes"/>
      <point x="415" y="73"/>
      <point x="359" y="7"/>
      <point x="289" y="7" type="curve" smooth="yes"/>
      <point x="213" y="7"/>
      <point x="171" y="41"/>
      <point x="133" y="88" type="curve"/>
      <point x="124" y="35" type="line"/>
      <point x="170" y="-2"/>
      <point x="205" y="-13"/>
      <point x="256" y="-13" type="curve" smooth="yes"/>
    </contour>
    <contour>
      <point x="253" y="386" type="move" name="top"/>
    </contour>
    <contour>
      <point x="253" y="0" type="move" name="bottom"/>
    </contour>
  </outline>
</glyph>
<glyph name="q" format="1">
  <advance width="484"/>
  <unicode hex="0071"/>
  <outline>
    <contour>
      <point x="277" y="-13"/>
      <point x="336" y="53"/>
      <point x="378" y="101" type="curve"/>
      <point x="370" y="108" type="line"/>
      <point x="327" y="60"/>
      <point x="280" y="15"/>
      <point x="221" y="15" type="curve" smooth="yes"/>
      <point x="146" y="15"/>
      <point x="94" y="85"/>
      <point x="94" y="202" type="curve" smooth="yes"/>
      <point x="94" y="325"/>
      <point x="139" y="380"/>
      <point x="220" y="380" type="curve" smooth="yes"/>
      <point x="303" y="380"/>
      <point x="356" y="337"/>
      <point x="356" y="270" type="curve"/>
      <point x="399" y="356" type="line"/>
      <point x="351" y="384"/>
      <point x="301" y="399"/>
      <point x="253" y="399" type="curve" smooth="yes"/>
      <point x="157" y="399"/>
      <point x="37" y="342"/>
      <point x="37" y="171" type="curve" smooth="yes"/>
      <point x="37" y="54"/>
      <point x="109" y="-13"/>
      <point x="191" y="-13" type="curve" smooth="yes"/>
    </contour>
    <contour>
      <point x="306" y="-275"/>
      <point x="340" y="-273"/>
      <point x="378" y="-273" type="curve" smooth="yes"/>
      <point x="412" y="-273"/>
      <point x="444" y="-275"/>
      <point x="468" y="-275" type="curve" smooth="yes"/>
      <point x="471" y="-275"/>
      <point x="471" y="-263"/>
      <point x="468" y="-263" type="curve" smooth="yes"/>
      <point x="413" y="-263"/>
      <point x="402" y="-251"/>
      <point x="402" y="-194" type="curve" smooth="yes"/>
      <point x="402" y="295" type="line" smooth="yes"/>
      <point x="402" y="339"/>
      <point x="420" y="361"/>
      <point x="450" y="379" type="curve" smooth="yes"/>
      <point x="455" y="381"/>
      <point x="451" y="391"/>
      <point x="446" y="388" type="curve" smooth="yes"/>
      <point x="356" y="356" type="line"/>
      <point x="356" y="-194" type="line" smooth="yes"/>
      <point x="356" y="-251"/>
      <point x="343" y="-263"/>
      <point x="276" y="-263" type="curve" smooth="yes"/>
      <point x="273" y="-263"/>
      <point x="273" y="-275"/>
      <point x="276" y="-275" type="curve" smooth="yes"/>
    </contour>
    <contour>
      <point x="242" y="386" type="move" name="top"/>
    </contour>
    <contour>
      <point x="242" y="0" type="move" name="bottom"/>
    </contour>
  </outline>
</glyph>
<glyph name="r" format="1">
  <advance width="360"/>
  <unicode hex="0072"/>
  <outline>
    <contour>
      <point x="201" y="349"/>
      <point x="216" y="358"/>
      <point x="235" y="358" type="curve" smooth="yes"/>
      <point x="269" y="358"/>
      <point x="276" y="331"/>
      <point x="301" y="331" type="curve" smooth="yes"/>
      <point x="320" y="331"/>
      <point x="330" y="344"/>
      <point x="330" y="357" type="curve" smooth="yes"/>
      <point x="330" y="378"/>
      <point x="297" y="395"/>
      <point x="269" y="395" type="curve" smooth="yes"/>
      <point x="236" y="395"/>
      <point x="208" y="372"/>
      <point x="135" y="281" type="curve"/>
      <point x="139" y="271" type="line"/>
    </contour>
    <contour>
      <point x="69" y="0"/>
      <point x="101" y="2"/>
      <point x="135" y="2" type="curve" smooth="yes"/>
      <point x="181" y="2"/>
      <point x="226" y="0"/>
      <point x="258" y="0" type="curve" smooth="yes"/>
      <point x="262" y="0"/>
      <point x="262" y="12"/>
      <point x="258" y="12" type="curve" smooth="yes"/>
      <point x="172" y="12"/>
      <point x="158" y="23"/>
      <point x="158" y="81" type="curve" smooth="yes"/>
      <point x="158" y="315" type="line" smooth="yes"/>
      <point x="158" y="367"/>
      <point x="139" y="395"/>
      <point x="130" y="395" type="curve" smooth="yes"/>
      <point x="129" y="395"/>
      <point x="127" y="395"/>
      <point x="125" y="394" type="curve" smooth="yes"/>
      <point x="14" y="342" type="line" smooth="yes"/>
      <point x="8" y="339"/>
      <point x="13" y="329"/>
      <point x="19" y="331" type="curve" smooth="yes"/>
      <point x="43" y="340"/>
      <point x="61" y="346"/>
      <point x="75" y="346" type="curve" smooth="yes"/>
      <point x="102" y="346"/>
      <point x="111" y="326"/>
      <point x="111" y="281" type="curve" smooth="yes"/>
      <point x="111" y="81" type="line" smooth="yes"/>
      <point x="111" y="23"/>
      <point x="101" y="12"/>
      <point x="46" y="12" type="curve" smooth="yes"/>
      <point x="42" y="12"/>
      <point x="42" y="0"/>
      <point x="46" y="0" type="curve" smooth="yes"/>
    </contour>
    <contour>
      <point x="181" y="386" type="move" name="top"/>
    </contour>
    <contour>
      <point x="154" y="0" type="move" name="bottom"/>
    </contour>
  </outline>
</glyph>
<glyph name="s" format="1">
  <advance width="338"/>
  <unicode hex="0073"/>
  <outline>
    <contour>
      <point x="96" y="360"/>
      <point x="118" y="379"/>
      <point x="154" y="379" type="curve" smooth="yes"/>
      <point x="199" y="379"/>
      <point x="257" y="350"/>
      <point x="257" y="304" type="curve" smooth="yes"/>
      <point x="257" y="301"/>
      <point x="269" y="301"/>
      <point x="269" y="304" type="curve" smooth="yes"/>
      <point x="269" y="330"/>
      <point x="271" y="353"/>
      <point x="271" y="373" type="curve" smooth="yes"/>
      <point x="271" y="378"/>
      <point x="270" y="380"/>
      <point x="262" y="384" type="curve" smooth="yes"/>
      <point x="239" y="394"/>
      <point x="215" y="399"/>
      <point x="191" y="399" type="curve" smooth="yes"/>
      <point x="125" y="399"/>
      <point x="57" y="364"/>
      <point x="57" y="288" type="curve" smooth="yes"/>
      <point x="57" y="222"/>
      <point x="106" y="198"/>
      <point x="156" y="174" type="curve" smooth="yes"/>
      <point x="202" y="152"/>
      <point x="248" y="131"/>
      <point x="250" y="74" type="curve" smooth="yes"/>
      <point x="253" y="30"/>
      <point x="227" y="8"/>
      <point x="180" y="8" type="curve" smooth="yes"/>
      <point x="126" y="8"/>
      <point x="87" y="37"/>
      <point x="61" y="105" type="curve" smooth="yes"/>
      <point x="60" y="109"/>
      <point x="49" y="108"/>
      <point x="49" y="104" type="curve" smooth="yes"/>
      <point x="51" y="32" type="line" smooth="yes"/>
      <point x="51" y="26"/>
      <point x="54" y="22"/>
      <point x="57" y="20" type="curve" smooth="yes"/>
      <point x="89" y="-4"/>
      <point x="119" y="-11"/>
      <point x="151" y="-11" type="curve" smooth="yes"/>
      <point x="241" y="-11"/>
      <point x="291" y="44"/>
      <point x="291" y="108" type="curve" smooth="yes"/>
      <point x="291" y="171"/>
      <point x="240" y="196"/>
      <point x="189" y="221" type="curve" smooth="yes"/>
      <point x="143" y="244"/>
      <point x="96" y="267"/>
      <point x="96" y="322" type="curve" smooth="yes"/>
    </contour>
    <contour>
      <point x="172" y="386" type="move" name="top"/>
    </contour>
    <contour>
      <point x="175" y="0" type="move" name="bottom"/>
    </contour>
  </outline>
</glyph>
<glyph name="t" format="1">
  <advance width="339"/>
  <unicode hex="0074"/>
  <outline>
    <contour>
      <point x="229" y="-12"/>
      <point x="263" y="1"/>
      <point x="312" y="36" type="curve" smooth="yes"/>
      <point x="317" y="40"/>
      <point x="311" y="49"/>
      <point x="306" y="46" type="curve" smooth="yes"/>
      <point x="288" y="32"/>
      <point x="261" y="19"/>
      <point x="225" y="19" type="curve" smooth="yes"/>
      <point x="172" y="19"/>
      <point x="144" y="46"/>
      <point x="144" y="102" type="curve" smooth="yes"/>
      <point x="144" y="447" type="line" smooth="yes"/>
      <point x="144" y="451"/>
      <point x="129" y="451"/>
      <point x="129" y="447" type="curve" smooth="yes"/>
      <point x="129" y="404"/>
      <point x="95" y="373"/>
      <point x="44" y="373" type="curve" smooth="yes"/>
      <point x="40" y="373"/>
      <point x="40" y="361"/>
      <point x="44" y="361" type="curve" smooth="yes"/>
      <point x="91" y="361"/>
      <point x="96" y="356"/>
      <point x="96" y="306" type="curve" smooth="yes"/>
      <point x="96" y="68" type="line" smooth="yes"/>
      <point x="96" y="7"/>
      <point x="140" y="-12"/>
      <point x="189" y="-12" type="curve" smooth="yes"/>
    </contour>
    <contour>
      <point x="287" y="337"/>
      <point x="292" y="351"/>
      <point x="292" y="361" type="curve" smooth="yes"/>
      <point x="292" y="374"/>
      <point x="289" y="384"/>
      <point x="285" y="384" type="curve" smooth="yes"/>
      <point x="230" y="378"/>
      <point x="184" y="374"/>
      <point x="132" y="374" type="curve"/>
      <point x="132" y="353" type="line"/>
      <point x="185" y="353"/>
      <point x="230" y="351"/>
      <point x="282" y="338" type="curve" smooth="yes"/>
    </contour>
    <contour>
      <point x="193" y="0" type="move" name="bottom"/>
    </contour>
    <contour>
      <point x="146" y="421" type="move" name="top"/>
    </contour>
    <contour>
      <point x="199" y="386" type="move" name="topright"/>
    </contour>
    <contour>
      <point x="170" y="193" type="move" name="center"/>
    </contour>
  </outline>
</glyph>
<glyph name="u" format="1">
  <advance width="490"/>
  <unicode hex="0075"/>
  <outline>
    <contour>
      <point x="242" y="-7"/>
      <point x="301" y="25"/>
      <point x="366" y="108" type="curve"/>
      <point x="361" y="119" type="line"/>
      <point x="320" y="62"/>
      <point x="261" y="27"/>
      <point x="207" y="27" type="curve" smooth="yes"/>
      <point x="151" y="27"/>
      <point x="123" y="64"/>
      <point x="123" y="145" type="curve" smooth="yes"/>
      <point x="123" y="388" type="line" smooth="yes"/>
      <point x="123" y="392"/>
      <point x="117" y="395"/>
      <point x="115" y="395" type="curve" smooth="yes"/>
      <point x="113" y="395"/>
      <point x="113" y="395"/>
      <point x="111" y="394" type="curve" smooth="yes"/>
      <point x="6" y="347" type="line" smooth="yes"/>
      <point x="0" y="345"/>
      <point x="5" y="333"/>
      <point x="11" y="336" type="curve" smooth="yes"/>
      <point x="26" y="343"/>
      <point x="37" y="346"/>
      <point x="47" y="346" type="curve" smooth="yes"/>
      <point x="69" y="346"/>
      <point x="76" y="324"/>
      <point x="76" y="270" type="curve" smooth="yes"/>
      <point x="76" y="115" type="line" smooth="yes"/>
      <point x="76" y="33"/>
      <point x="116" y="-7"/>
      <point x="180" y="-7" type="curve" smooth="yes"/>
    </contour>
    <contour>
      <point x="389" y="392"/>
      <point x="384" y="395"/>
      <point x="381" y="395" type="curve" smooth="yes"/>
      <point x="380" y="395"/>
      <point x="380" y="395"/>
      <point x="378" y="394" type="curve" smooth="yes"/>
      <point x="273" y="347" type="line" smooth="yes"/>
      <point x="267" y="345"/>
      <point x="271" y="333"/>
      <point x="277" y="336" type="curve" smooth="yes"/>
      <point x="292" y="343"/>
      <point x="304" y="346"/>
      <point x="313" y="346" type="curve" smooth="yes"/>
      <point x="336" y="346"/>
      <point x="343" y="324"/>
      <point x="343" y="270" type="curve" smooth="yes"/>
      <point x="343" y="71" type="line" smooth="yes"/>
      <point x="343" y="19"/>
      <point x="361" y="-9"/>
      <point x="371" y="-9" type="curve" smooth="yes"/>
      <point x="372" y="-9"/>
      <point x="373" y="-9"/>
      <point x="375" y="-8" type="curve" smooth="yes"/>
      <point x="487" y="44" type="line" smooth="yes"/>
      <point x="492" y="47"/>
      <point x="488" y="57"/>
      <point x="482" y="55" type="curve" smooth="yes"/>
      <point x="457" y="46"/>
      <point x="440" y="40"/>
      <point x="426" y="40" type="curve" smooth="yes"/>
      <point x="399" y="40"/>
      <point x="389" y="60"/>
      <point x="389" y="105" type="curve" smooth="yes"/>
      <point x="389" y="388" type="line"/>
    </contour>
    <contour>
      <point x="487" y="48" type="move" name="ogonek"/>
    </contour>
    <contour>
      <point x="233" y="386" type="move" name="top"/>
    </contour>
    <contour>
      <point x="467" y="386" type="move" name="topright"/>
    </contour>
    <contour>
      <point x="246" y="0" type="move" name="bottom"/>
    </contour>
  </outline>
</glyph>
<glyph name="v" format="1">
  <advance width="433"/>
  <unicode hex="0076"/>
  <outline>
    <contour>
      <point x="400" y="386"/>
      <point x="387" y="384"/>
      <point x="359" y="384" type="curve" smooth="yes"/>
      <point x="313" y="384"/>
      <point x="290" y="386"/>
      <point x="258" y="386" type="curve" smooth="yes"/>
      <point x="255" y="386"/>
      <point x="255" y="374"/>
      <point x="258" y="374" type="curve" smooth="yes"/>
      <point x="333" y="374"/>
      <point x="353" y="358"/>
      <point x="335" y="311" type="curve" smooth="yes"/>
      <point x="216" y="22" type="line"/>
      <point x="239" y="51" type="line"/>
      <point x="109" y="335" type="line" smooth="yes"/>
      <point x="94" y="367"/>
      <point x="124" y="374"/>
      <point x="166" y="374" type="curve" smooth="yes"/>
      <point x="170" y="374"/>
      <point x="170" y="386"/>
      <point x="166" y="386" type="curve" smooth="yes"/>
      <point x="139" y="386"/>
      <point x="109" y="384"/>
      <point x="65" y="384" type="curve" smooth="yes"/>
      <point x="46" y="384"/>
      <point x="23" y="386"/>
      <point x="4" y="386" type="curve" smooth="yes"/>
      <point x="0" y="386"/>
      <point x="0" y="374"/>
      <point x="4" y="374" type="curve" smooth="yes"/>
      <point x="28" y="374"/>
      <point x="41" y="363"/>
      <point x="68" y="303" type="curve" smooth="yes"/>
      <point x="205" y="1" type="line" smooth="yes"/>
      <point x="207" y="-4"/>
      <point x="225" y="-4"/>
      <point x="227" y="1" type="curve" smooth="yes"/>
      <point x="352" y="305" type="line" smooth="yes"/>
      <point x="374" y="359"/>
      <point x="393" y="374"/>
      <point x="425" y="374" type="curve" smooth="yes"/>
      <point x="428" y="374"/>
      <point x="428" y="386"/>
      <point x="425" y="386" type="curve" smooth="yes"/>
    </contour>
    <contour>
      <point x="216" y="386" type="move" name="top"/>
    </contour>
    <contour>
      <point x="216" y="0" type="move" name="bottom"/>
    </contour>
  </outline>
</glyph>
<glyph name="w" format="1">
  <advance width="667"/>
  <unicode hex="0077"/>
  <outline>
    <contour>
      <point x="441" y="-4"/>
      <point x="458" y="-4"/>
      <point x="461" y="1" type="curve" smooth="yes"/>
      <point x="586" y="305" type="line" smooth="yes"/>
      <point x="608" y="359"/>
      <point x="627" y="374"/>
      <point x="658" y="374" type="curve" smooth="yes"/>
      <point x="662" y="374"/>
      <point x="662" y="386"/>
      <point x="658" y="386" type="curve" smooth="yes"/>
      <point x="634" y="386"/>
      <point x="621" y="384"/>
      <point x="593" y="384" type="curve" smooth="yes"/>
      <point x="547" y="384"/>
      <point x="524" y="386"/>
      <point x="492" y="386" type="curve" smooth="yes"/>
      <point x="489" y="386"/>
      <point x="489" y="374"/>
      <point x="492" y="374" type="curve" smooth="yes"/>
      <point x="567" y="374"/>
      <point x="587" y="358"/>
      <point x="568" y="311" type="curve" smooth="yes"/>
      <point x="450" y="22" type="line"/>
      <point x="473" y="50" type="line"/>
      <point x="343" y="335" type="line" smooth="yes"/>
      <point x="327" y="367"/>
      <point x="358" y="374"/>
      <point x="400" y="374" type="curve" smooth="yes"/>
      <point x="404" y="374"/>
      <point x="404" y="386"/>
      <point x="400" y="386" type="curve" smooth="yes"/>
      <point x="373" y="386"/>
      <point x="343" y="384"/>
      <point x="299" y="384" type="curve" smooth="yes"/>
      <point x="280" y="384"/>
      <point x="257" y="386"/>
      <point x="237" y="386" type="curve" smooth="yes"/>
      <point x="234" y="386"/>
      <point x="234" y="374"/>
      <point x="237" y="374" type="curve" smooth="yes"/>
      <point x="262" y="374"/>
      <point x="275" y="363"/>
      <point x="302" y="303" type="curve" smooth="yes"/>
      <point x="439" y="1" type="line" smooth="yes"/>
    </contour>
    <contour>
      <point x="207" y="-4"/>
      <point x="225" y="-4"/>
      <point x="227" y="1" type="curve" smooth="yes"/>
      <point x="339" y="271" type="line"/>
      <point x="325" y="285" type="line"/>
      <point x="216" y="22" type="line"/>
      <point x="240" y="50" type="line"/>
      <point x="110" y="335" type="line" smooth="yes"/>
      <point x="96" y="366"/>
      <point x="122" y="374"/>
      <point x="166" y="374" type="curve" smooth="yes"/>
      <point x="170" y="374"/>
      <point x="170" y="386"/>
      <point x="166" y="386" type="curve" smooth="yes"/>
      <point x="136" y="386"/>
      <point x="106" y="384"/>
      <point x="65" y="384" type="curve" smooth="yes"/>
      <point x="46" y="384"/>
      <point x="23" y="386"/>
      <point x="4" y="386" type="curve" smooth="yes"/>
      <point x="0" y="386"/>
      <point x="0" y="374"/>
      <point x="4" y="374" type="curve" smooth="yes"/>
      <point x="28" y="374"/>
      <point x="41" y="363"/>
      <point x="68" y="303" type="curve" smooth="yes"/>
      <point x="205" y="1" type="line" smooth="yes"/>
    </contour>
    <contour>
      <point x="324" y="386" type="move" name="top"/>
    </contour>
    <contour>
      <point x="333" y="0" type="move" name="bottom"/>
    </contour>
  </outline>
</glyph>
<glyph name="x" format="1">
  <advance width="439"/>
  <unicode hex="0078"/>
  <outline>
    <contour>
      <point x="289" y="0"/>
      <point x="319" y="2"/>
      <point x="363" y="2" type="curve" smooth="yes"/>
      <point x="382" y="2"/>
      <point x="405" y="0"/>
      <point x="425" y="0" type="curve" smooth="yes"/>
      <point x="428" y="0"/>
      <point x="428" y="12"/>
      <point x="425" y="12" type="curve" smooth="yes"/>
      <point x="400" y="12"/>
      <point x="360" y="27"/>
      <point x="323" y="83" type="curve" smooth="yes"/>
      <point x="156" y="335" type="line" smooth="yes"/>
      <point x="135" y="367"/>
      <point x="137" y="374"/>
      <point x="179" y="374" type="curve" smooth="yes"/>
      <point x="182" y="374"/>
      <point x="182" y="386"/>
      <point x="179" y="386" type="curve" smooth="yes"/>
      <point x="152" y="386"/>
      <point x="122" y="384"/>
      <point x="78" y="384" type="curve" smooth="yes"/>
      <point x="58" y="384"/>
      <point x="36" y="386"/>
      <point x="16" y="386" type="curve" smooth="yes"/>
      <point x="13" y="386"/>
      <point x="13" y="374"/>
      <point x="16" y="374" type="curve" smooth="yes"/>
      <point x="41" y="374"/>
      <point x="81" y="359"/>
      <point x="118" y="303" type="curve" smooth="yes"/>
      <point x="285" y="51" type="line" smooth="yes"/>
      <point x="306" y="19"/>
      <point x="304" y="12"/>
      <point x="262" y="12" type="curve" smooth="yes"/>
      <point x="258" y="12"/>
      <point x="258" y="0"/>
      <point x="262" y="0" type="curve" smooth="yes"/>
    </contour>
    <contour>
      <point x="40" y="0"/>
      <point x="53" y="2"/>
      <point x="81" y="2" type="curve" smooth="yes"/>
      <point x="126" y="2"/>
      <point x="150" y="0"/>
      <point x="181" y="0" type="curve" smooth="yes"/>
      <point x="185" y="0"/>
      <point x="185" y="12"/>
      <point x="181" y="12" type="curve" smooth="yes"/>
      <point x="106" y="12"/>
      <point x="112" y="34"/>
      <point x="140" y="75" type="curve" smooth="yes"/>
      <point x="219" y="189" type="line"/>
      <point x="207" y="198" type="line"/>
      <point x="123" y="81" type="line" smooth="yes"/>
      <point x="89" y="34"/>
      <point x="47" y="12"/>
      <point x="15" y="12" type="curve" smooth="yes"/>
      <point x="12" y="12"/>
      <point x="12" y="0"/>
      <point x="15" y="0" type="curve" smooth="yes"/>
    </contour>
    <contour>
      <point x="303" y="305" type="line" smooth="yes"/>
      <point x="340" y="356"/>
      <point x="379" y="374"/>
      <point x="411" y="374" type="curve" smooth="yes"/>
      <point x="414" y="374"/>
      <point x="414" y="386"/>
      <point x="411" y="386" type="curve" smooth="yes"/>
      <point x="386" y="386"/>
      <point x="373" y="384"/>
      <point x="345" y="384" type="curve" smooth="yes"/>
      <point x="299" y="384"/>
      <point x="276" y="386"/>
      <point x="244" y="386" type="curve" smooth="yes"/>
      <point x="241" y="386"/>
      <point x="241" y="374"/>
      <point x="244" y="374" type="curve" smooth="yes"/>
      <point x="319" y="374"/>
      <point x="316" y="356"/>
      <point x="285" y="311" type="curve" smooth="yes"/>
      <point x="212" y="202" type="line"/>
      <point x="221" y="193" type="line"/>
    </contour>
    <contour>
      <point x="220" y="386" type="move" name="top"/>
    </contour>
    <contour>
      <point x="220" y="0" type="move" name="bottom"/>
    </contour>
  </outline>
</glyph>
<glyph name="y" format="1">
  <advance width="437"/>
  <unicode hex="0079"/>
  <outline>
    <contour>
      <point x="405" y="386"/>
      <point x="392" y="384"/>
      <point x="364" y="384" type="curve" smooth="yes"/>
      <point x="318" y="384"/>
      <point x="295" y="386"/>
      <point x="263" y="386" type="curve" smooth="yes"/>
      <point x="260" y="386"/>
      <point x="260" y="374"/>
      <point x="263" y="374" type="curve" smooth="yes"/>
      <point x="338" y="374"/>
      <point x="356" y="359"/>
      <point x="336" y="301" type="curve" smooth="yes"/>
      <point x="235" y="11" type="line"/>
      <point x="255" y="48" type="line"/>
      <point x="115" y="335" type="line" smooth="yes"/>
      <point x="99" y="366"/>
      <point x="129" y="374"/>
      <point x="171" y="374" type="curve" smooth="yes"/>
      <point x="174" y="374"/>
      <point x="174" y="386"/>
      <point x="171" y="386" type="curve" smooth="yes"/>
      <point x="144" y="386"/>
      <point x="113" y="384"/>
      <point x="70" y="384" type="curve" smooth="yes"/>
      <point x="50" y="384"/>
      <point x="28" y="386"/>
      <point x="8" y="386" type="curve" smooth="yes"/>
      <point x="5" y="386"/>
      <point x="5" y="374"/>
      <point x="8" y="374" type="curve" smooth="yes"/>
      <point x="33" y="374"/>
      <point x="44" y="361"/>
      <point x="74" y="303" type="curve" smooth="yes"/>
      <point x="229" y="-13" type="line"/>
      <point x="229" y="9" type="line"/>
      <point x="157" y="-182"/>
      <point x="119" y="-242"/>
      <point x="69" y="-242" type="curve" smooth="yes"/>
      <point x="36" y="-242"/>
      <point x="32" y="-219"/>
      <point x="-7" y="-219" type="curve" smooth="yes"/>
      <point x="-21" y="-219"/>
      <point x="-34" y="-228"/>
      <point x="-34" y="-244" type="curve" smooth="yes"/>
      <point x="-34" y="-270"/>
      <point x="-11" y="-281"/>
      <point x="14" y="-281" type="curve" smooth="yes"/>
      <point x="104" y="-281"/>
      <point x="159" y="-221"/>
      <point x="232" y="-28" type="curve" smooth="yes"/>
      <point x="357" y="305" type="line" smooth="yes"/>
      <point x="377" y="359"/>
      <point x="398" y="374"/>
      <point x="429" y="374" type="curve" smooth="yes"/>
      <point x="433" y="374"/>
      <point x="433" y="386"/>
      <point x="429" y="386" type="curve" smooth="yes"/>
    </contour>
    <contour>
      <point x="225" y="386" type="move" name="top"/>
    </contour>
    <contour>
      <point x="311" y="0" type="move" name="bottom"/>
    </contour>
  </outline>
</glyph>
<glyph name="z" format="1">
  <advance width="405"/>
  <unicode hex="007A"/>
  <outline>
    <contour>
      <point x="41" y="7"/>
      <point x="46" y="0"/>
      <point x="51" y="0" type="curve" smooth="yes"/>
      <point x="151" y="0"/>
      <point x="261" y="0"/>
      <point x="356" y="0" type="curve" smooth="yes"/>
      <point x="361" y="0"/>
      <point x="365" y="6"/>
      <point x="365" y="11" type="curve" smooth="yes"/>
      <point x="367" y="109" type="line" smooth="yes"/>
      <point x="367" y="112"/>
      <point x="357" y="112"/>
      <point x="356" y="109" type="curve" smooth="yes"/>
      <point x="325" y="15"/>
      <point x="313" y="14"/>
      <point x="117" y="14" type="curve" smooth="yes"/>
      <point x="111" y="14"/>
      <point x="109" y="16"/>
      <point x="112" y="21" type="curve" smooth="yes"/>
      <point x="350" y="374" type="line" smooth="yes"/>
      <point x="353" y="379"/>
      <point x="347" y="386"/>
      <point x="342" y="386" type="curve" smooth="yes"/>
      <point x="248" y="386"/>
      <point x="181" y="386"/>
      <point x="135" y="386" type="curve" smooth="yes"/>
      <point x="96" y="386"/>
      <point x="83" y="391"/>
      <point x="88" y="412" type="curve" smooth="yes"/>
      <point x="89" y="415"/>
      <point x="77" y="416"/>
      <point x="76" y="413" type="curve" smooth="yes"/>
      <point x="44" y="291" type="line" smooth="yes"/>
      <point x="43" y="288"/>
      <point x="55" y="285"/>
      <point x="56" y="289" type="curve" smooth="yes"/>
      <point x="78" y="365"/>
      <point x="127" y="374"/>
      <point x="283" y="374" type="curve" smooth="yes"/>
      <point x="289" y="374"/>
      <point x="291" y="372"/>
      <point x="288" y="367" type="curve" smooth="yes"/>
      <point x="44" y="12" type="line" smooth="yes"/>
    </contour>
    <contour>
      <point x="202" y="386" type="move" name="top"/>
    </contour>
    <contour>
      <point x="202" y="0" type="move" name="bottom"/>
    </contour>
  </outline>
</glyph>
<glyph name="braceleft" format="1">
  <advance width="289"/>
  <unicode hex="007B"/>
  <outline>
    <contour>
      <point x="108" y="289"/>
      <point x="117" y="182"/>
      <point x="117" y="80" type="curve" smooth="yes"/>
      <point x="117" y="-87"/>
      <point x="139" y="-117"/>
      <point x="250" y="-117" type="curve" smooth="yes"/>
      <point x="255" y="-117"/>
      <point x="255" y="-105"/>
      <point x="250" y="-105" type="curve" smooth="yes"/>
      <point x="199" y="-105"/>
      <point x="170" y="-67"/>
      <point x="168" y="1" type="curve" smooth="yes"/>
      <point x="164" y="211"/>
      <point x="163" y="258"/>
      <point x="61" y="305" type="curve" smooth="yes"/>
      <point x="163" y="351"/>
      <point x="164" y="393"/>
      <point x="168" y="607" type="curve" smooth="yes"/>
      <point x="170" y="675"/>
      <point x="199" y="713"/>
      <point x="250" y="713" type="curve" smooth="yes"/>
      <point x="255" y="713"/>
      <point x="255" y="725"/>
      <point x="250" y="725" type="curve" smooth="yes"/>
      <point x="142" y="725"/>
      <point x="117" y="697"/>
      <point x="117" y="529" type="curve" smooth="yes"/>
      <point x="117" y="429"/>
      <point x="108" y="320"/>
      <point x="32" y="311" type="curve" smooth="yes"/>
      <point x="28" y="311"/>
      <point x="28" y="298"/>
      <point x="32" y="298" type="curve" smooth="yes"/>
    </contour>
  </outline>
</glyph>
<glyph name="bar" format="1">
  <advance width="168"/>
  <unicode hex="007C"/>
  <outline>
    <contour>
      <point x="67" y="-164"/>
      <point x="104" y="-164"/>
      <point x="104" y="-154" type="curve" smooth="yes"/>
      <point x="104" y="731" type="line" smooth="yes"/>
      <point x="104" y="740"/>
      <point x="67" y="740"/>
      <point x="67" y="731" type="curve" smooth="yes"/>
      <point x="67" y="-154" type="line" smooth="yes"/>
    </contour>
  </outline>
</glyph>
<glyph name="asciitilde" format="1">
  <advance width="443"/>
  <unicode hex="007E"/>
  <outline>
    <contour>
      <point x="256" y="194"/>
      <point x="204" y="230"/>
      <point x="159" y="230" type="curve" smooth="yes"/>
      <point x="110" y="230"/>
      <point x="69" y="187"/>
      <point x="48" y="161" type="curve" smooth="yes"/>
      <point x="46" y="158"/>
      <point x="53" y="152"/>
      <point x="55" y="154" type="curve" smooth="yes"/>
      <point x="80" y="178"/>
      <point x="90" y="193"/>
      <point x="130" y="193" type="curve" smooth="yes"/>
      <point x="191" y="193"/>
      <point x="234" y="157"/>
      <point x="292" y="157" type="curve" smooth="yes"/>
      <point x="326" y="157"/>
      <point x="349" y="170"/>
      <point x="396" y="226" type="curve" smooth="yes"/>
      <point x="399" y="229"/>
      <point x="392" y="235"/>
      <point x="389" y="233" type="curve" smooth="yes"/>
      <point x="373" y="214"/>
      <point x="356" y="194"/>
      <point x="313" y="194" type="curve" smooth="yes"/>
    </contour>
  </outline>
</glyph>
<glyph name="sterling" format="1">
  <advance width="432"/>
  <unicode hex="00A3"/>
  <outline>
    <contour>
      <point x="105" y="30" type="line"/>
      <point x="139" y="54"/>
      <point x="172" y="81"/>
      <point x="172" y="147" type="curve" smooth="yes"/>
      <point x="172" y="227"/>
      <point x="132" y="284"/>
      <point x="132" y="364" type="curve" smooth="yes"/>
      <point x="132" y="414"/>
      <point x="158" y="467"/>
      <point x="235" y="467" type="curve" smooth="yes"/>
      <point x="309" y="467"/>
      <point x="343" y="398"/>
      <point x="347" y="344" type="curve" smooth="yes"/>
      <point x="349" y="338"/>
      <point x="359" y="338"/>
      <point x="359" y="344" type="curve" smooth="yes"/>
      <point x="352" y="444" type="line" smooth="yes"/>
      <point x="351" y="454"/>
      <point x="346" y="460"/>
      <point x="336" y="463" type="curve" smooth="yes"/>
      <point x="303" y="476"/>
      <point x="271" y="480"/>
      <point x="246" y="480" type="curve" smooth="yes"/>
      <point x="160" y="480"/>
      <point x="81" y="436"/>
      <point x="81" y="333" type="curve" smooth="yes"/>
      <point x="81" y="250"/>
      <point x="124" y="208"/>
      <point x="124" y="106" type="curve" smooth="yes"/>
      <point x="124" y="54"/>
      <point x="105" y="30"/>
      <point x="36" y="12" type="curve" smooth="yes"/>
      <point x="33" y="11"/>
      <point x="33" y="0"/>
      <point x="36" y="0" type="curve" smooth="yes"/>
      <point x="356" y="0" type="line" smooth="yes"/>
      <point x="367" y="0"/>
      <point x="371" y="4"/>
      <point x="371" y="15" type="curve" smooth="yes"/>
      <point x="371" y="49"/>
      <point x="375" y="94"/>
      <point x="380" y="122" type="curve" smooth="yes"/>
      <point x="380" y="125"/>
      <point x="368" y="126"/>
      <point x="368" y="123" type="curve" smooth="yes"/>
      <point x="353" y="53"/>
      <point x="336" y="40"/>
      <point x="251" y="40" type="curve" smooth="yes"/>
      <point x="99" y="40" type="line"/>
    </contour>
    <contour>
      <point x="46" y="240"/>
      <point x="46" y="220"/>
      <point x="55" y="220" type="curve" smooth="yes"/>
      <point x="274" y="220" type="line" smooth="yes"/>
      <point x="283" y="220"/>
      <point x="283" y="240"/>
      <point x="274" y="240" type="curve" smooth="yes"/>
      <point x="55" y="240" type="line" smooth="yes"/>
    </contour>
    <contour>
      <point x="145" y="625" type="move" name="top"/>
    </contour>
    <contour>
      <point x="277" y="0" type="move" name="bottom"/>
    </contour>
    <contour>
      <point x="483" y="625" type="move" name="topright"/>
    </contour>
  </outline>
</glyph>
<glyph name="currency" format="1">
  <advance width="414"/>
  <unicode hex="00A4"/>
  <outline>
    <contour>
      <point x="109" y="113" type="line"/>
      <point x="56" y="58" type="line"/>
      <point x="77" y="37" type="line"/>
      <point x="127" y="94" type="line"/>
    </contour>
    <contour>
      <point x="129" y="311" type="line"/>
      <point x="77" y="367" type="line"/>
      <point x="51" y="344" type="line"/>
      <point x="105" y="290" type="line"/>
    </contour>
    <contour>
      <point x="283" y="96" type="line"/>
      <point x="335" y="37" type="line"/>
      <point x="361" y="62" type="line"/>
      <point x="306" y="117" type="line"/>
    </contour>
    <contour>
      <point x="309" y="292" type="line"/>
      <point x="360" y="344" type="line"/>
      <point x="340" y="364" type="line"/>
      <point x="290" y="310" type="line"/>
    </contour>
    <contour>
      <point x="270" y="65"/>
      <point x="349" y="115"/>
      <point x="349" y="201" type="curve" smooth="yes"/>
      <point x="349" y="277"/>
      <point x="288" y="335"/>
      <point x="211" y="335" type="curve" smooth="yes"/>
      <point x="145" y="335"/>
      <point x="61" y="292"/>
      <point x="61" y="202" type="curve" smooth="yes"/>
      <point x="61" y="135"/>
      <point x="110" y="65"/>
      <point x="196" y="65" type="curve" smooth="yes"/>
    </contour>
    <contour>
      <point x="142" y="81"/>
      <point x="110" y="158"/>
      <point x="110" y="223" type="curve" smooth="yes"/>
      <point x="110" y="288"/>
      <point x="142" y="319"/>
      <point x="188" y="319" type="curve" smooth="yes"/>
      <point x="258" y="319"/>
      <point x="297" y="250"/>
      <point x="297" y="180" type="curve" smooth="yes"/>
      <point x="297" y="116"/>
      <point x="264" y="81"/>
      <point x="215" y="81" type="curve" smooth="yes"/>
    </contour>
  </outline>
</glyph>
<glyph name="yen" format="1">
  <advance width="477"/>
  <unicode hex="00A5"/>
  <outline>
    <contour>
      <point x="91" y="156"/>
      <point x="91" y="136"/>
      <point x="101" y="136" type="curve" smooth="yes"/>
      <point x="366" y="136" type="line" smooth="yes"/>
      <point x="375" y="136"/>
      <point x="375" y="156"/>
      <point x="366" y="156" type="curve" smooth="yes"/>
      <point x="101" y="156" type="line" smooth="yes"/>
    </contour>
    <contour>
      <point x="91" y="213"/>
      <point x="91" y="193"/>
      <point x="101" y="193" type="curve" smooth="yes"/>
      <point x="366" y="193" type="line" smooth="yes"/>
      <point x="375" y="193"/>
      <point x="375" y="213"/>
      <point x="366" y="213" type="curve" smooth="yes"/>
      <point x="101" y="213" type="line" smooth="yes"/>
    </contour>
    <contour>
      <point x="239" y="196" type="line"/>
      <point x="343" y="366" type="line" smooth="yes"/>
      <point x="378" y="423"/>
      <point x="421" y="456"/>
      <point x="465" y="456" type="curve" smooth="yes"/>
      <point x="469" y="456"/>
      <point x="469" y="468"/>
      <point x="465" y="468" type="curve" smooth="yes"/>
      <point x="441" y="468"/>
      <point x="428" y="465"/>
      <point x="400" y="465" type="curve" smooth="yes"/>
      <point x="354" y="465"/>
      <point x="333" y="468"/>
      <point x="302" y="468" type="curve" smooth="yes"/>
      <point x="298" y="468"/>
      <point x="298" y="456"/>
      <point x="302" y="456" type="curve" smooth="yes"/>
      <point x="340" y="456"/>
      <point x="357" y="422"/>
      <point x="324" y="367" type="curve" smooth="yes"/>
      <point x="225" y="196" type="line"/>
    </contour>
    <contour>
      <point x="260" y="235" type="line"/>
      <point x="140" y="416" type="line" smooth="yes"/>
      <point x="123" y="443"/>
      <point x="135" y="456"/>
      <point x="175" y="456" type="curve" smooth="yes"/>
      <point x="179" y="456"/>
      <point x="179" y="468"/>
      <point x="175" y="468" type="curve" smooth="yes"/>
      <point x="145" y="468"/>
      <point x="105" y="465"/>
      <point x="57" y="465" type="curve" smooth="yes"/>
      <point x="37" y="465"/>
      <point x="15" y="468"/>
      <point x="-5" y="468" type="curve" smooth="yes"/>
      <point x="-8" y="468"/>
      <point x="-8" y="456"/>
      <point x="-5" y="456" type="curve" smooth="yes"/>
      <point x="40" y="456"/>
      <point x="63" y="436"/>
      <point x="97" y="385" type="curve" smooth="yes"/>
      <point x="221" y="196" type="line"/>
    </contour>
    <contour>
      <point x="209" y="145" type="line"/>
      <point x="209" y="81" type="line" smooth="yes"/>
      <point x="209" y="23"/>
      <point x="195" y="12"/>
      <point x="119" y="12" type="curve" smooth="yes"/>
      <point x="116" y="12"/>
      <point x="116" y="0"/>
      <point x="119" y="0" type="curve" smooth="yes"/>
      <point x="151" y="0"/>
      <point x="193" y="2"/>
      <point x="234" y="2" type="curve" smooth="yes"/>
      <point x="280" y="2"/>
      <point x="317" y="0"/>
      <point x="349" y="0" type="curve" smooth="yes"/>
      <point x="352" y="0"/>
      <point x="352" y="12"/>
      <point x="349" y="12" type="curve" smooth="yes"/>
      <point x="271" y="12"/>
      <point x="260" y="23"/>
      <point x="260" y="81" type="curve" smooth="yes"/>
      <point x="260" y="145" type="line"/>
    </contour>
    <contour>
      <point x="260" y="200" type="line"/>
      <point x="260" y="237" type="line"/>
      <point x="209" y="228" type="line"/>
      <point x="209" y="200" type="line"/>
    </contour>
    <contour>
      <point x="240" y="468" type="move" name="top"/>
    </contour>
    <contour>
      <point x="236" y="0" type="move" name="bottom"/>
    </contour>
  </outline>
</glyph>
<glyph name="brokenbar" format="1">
  <advance width="168"/>
  <unicode hex="00A6"/>
  <outline>
    <contour>
      <point x="67" y="-164"/>
      <point x="104" y="-164"/>
      <point x="104" y="-154" type="curve" smooth="yes"/>
      <point x="104" y="216" type="line" smooth="yes"/>
      <point x="104" y="226"/>
      <point x="67" y="226"/>
      <point x="67" y="216" type="curve" smooth="yes"/>
      <point x="67" y="-154" type="line" smooth="yes"/>
    </contour>
    <contour>
      <point x="67" y="351"/>
      <point x="104" y="351"/>
      <point x="104" y="360" type="curve" smooth="yes"/>
      <point x="104" y="731" type="line" smooth="yes"/>
      <point x="104" y="740"/>
      <point x="67" y="740"/>
      <point x="67" y="731" type="curve" smooth="yes"/>
      <point x="67" y="360" type="line" smooth="yes"/>
    </contour>
  </outline>
</glyph>
<glyph name="section" format="1">
  <advance width="429"/>
  <unicode hex="00A7"/>
  <outline>
    <contour>
      <point x="359" y="70"/>
      <point x="374" y="104"/>
      <point x="374" y="159" type="curve" smooth="yes"/>
      <point x="374" y="338"/>
      <point x="138" y="336"/>
      <point x="138" y="474" type="curve" smooth="yes"/>
      <point x="138" y="529"/>
      <point x="170" y="549"/>
      <point x="207" y="549" type="curve" smooth="yes"/>
      <point x="276" y="549"/>
      <point x="333" y="489"/>
      <point x="339" y="443" type="curve" smooth="yes"/>
      <point x="339" y="440"/>
      <point x="351" y="440"/>
      <point x="351" y="443" type="curve" smooth="yes"/>
      <point x="343" y="537" type="line" smooth="yes"/>
      <point x="343" y="545"/>
      <point x="338" y="550"/>
      <point x="332" y="553" type="curve" smooth="yes"/>
      <point x="310" y="565"/>
      <point x="282" y="572"/>
      <point x="244" y="572" type="curve" smooth="yes"/>
      <point x="173" y="572"/>
      <point x="99" y="532"/>
      <point x="99" y="440" type="curve" smooth="yes"/>
      <point x="99" y="299"/>
      <point x="333" y="304"/>
      <point x="333" y="127" type="curve" smooth="yes"/>
      <point x="333" y="88"/>
      <point x="324" y="50"/>
      <point x="283" y="20" type="curve"/>
      <point x="291" y="11" type="line"/>
    </contour>
    <contour>
      <point x="275" y="-188"/>
      <point x="351" y="-149"/>
      <point x="351" y="-56" type="curve" smooth="yes"/>
      <point x="351" y="84"/>
      <point x="111" y="80"/>
      <point x="111" y="256" type="curve" smooth="yes"/>
      <point x="111" y="296"/>
      <point x="120" y="333"/>
      <point x="161" y="364" type="curve"/>
      <point x="153" y="373" type="line"/>
      <point x="85" y="313"/>
      <point x="70" y="280"/>
      <point x="70" y="225" type="curve" smooth="yes"/>
      <point x="70" y="46"/>
      <point x="312" y="48"/>
      <point x="312" y="-90" type="curve" smooth="yes"/>
      <point x="312" y="-145"/>
      <point x="278" y="-165"/>
      <point x="241" y="-165" type="curve" smooth="yes"/>
      <point x="172" y="-165"/>
      <point x="115" y="-105"/>
      <point x="109" y="-60" type="curve" smooth="yes"/>
      <point x="109" y="-56"/>
      <point x="97" y="-56"/>
      <point x="97" y="-60" type="curve" smooth="yes"/>
      <point x="104" y="-153" type="line" smooth="yes"/>
      <point x="105" y="-161"/>
      <point x="110" y="-166"/>
      <point x="116" y="-170" type="curve" smooth="yes"/>
      <point x="138" y="-181"/>
      <point x="166" y="-188"/>
      <point x="204" y="-188" type="curve" smooth="yes"/>
    </contour>
  </outline>
</glyph>
<glyph name="dieresis" format="1">
  <advance width="322"/>
  <unicode hex="00A8"/>
  <outline>
    <contour>
      <point x="98" y="481"/>
      <point x="112" y="495"/>
      <point x="112" y="519" type="curve" smooth="yes"/>
      <point x="112" y="543"/>
      <point x="98" y="557"/>
      <point x="74" y="557" type="curve" smooth="yes"/>
      <point x="49" y="557"/>
      <point x="34" y="543"/>
      <point x="34" y="519" type="curve" smooth="yes"/>
      <point x="34" y="495"/>
      <point x="49" y="481"/>
      <point x="74" y="481" type="curve" smooth="yes"/>
    </contour>
    <contour>
      <point x="274" y="481"/>
      <point x="288" y="495"/>
      <point x="288" y="519" type="curve" smooth="yes"/>
      <point x="288" y="543"/>
      <point x="274" y="557"/>
      <point x="249" y="557" type="curve" smooth="yes"/>
      <point x="225" y="557"/>
      <point x="209" y="543"/>
      <point x="209" y="519" type="curve" smooth="yes"/>
      <point x="209" y="495"/>
      <point x="225" y="481"/>
      <point x="249" y="481" type="curve" smooth="yes"/>
    </contour>
    <contour>
      <point x="161" y="386" type="move" name="_top"/>
    </contour>
  </outline>
</glyph>
<glyph name="copyright" format="1">
  <advance width="717"/>
  <unicode hex="00A9"/>
  <outline>
    <contour>
      <point x="447" y="-101"/>
      <point x="520" y="-90"/>
      <point x="596" y="-33" type="curve" smooth="yes"/>
      <point x="599" y="-30"/>
      <point x="594" y="-25"/>
      <point x="592" y="-26" type="curve" smooth="yes"/>
      <point x="515" y="-65"/>
      <point x="465" y="-71"/>
      <point x="391" y="-71" type="curve" smooth="yes"/>
      <point x="281" y="-71"/>
      <point x="115" y="15"/>
      <point x="115" y="213" type="curve" smooth="yes"/>
      <point x="115" y="357"/>
      <point x="202" y="474"/>
      <point x="364" y="474" type="curve" smooth="yes"/>
      <point x="503" y="474"/>
      <point x="609" y="370"/>
      <point x="609" y="242" type="curve" smooth="yes"/>
      <point x="609" y="117"/>
      <point x="519" y="65"/>
      <point x="428" y="65" type="curve" smooth="yes"/>
      <point x="315" y="65"/>
      <point x="278" y="137"/>
      <point x="278" y="219" type="curve" smooth="yes"/>
      <point x="278" y="296"/>
      <point x="302" y="349"/>
      <point x="367" y="349" type="curve" smooth="yes"/>
      <point x="400" y="349"/>
      <point x="413" y="333"/>
      <point x="426" y="315" type="curve" smooth="yes"/>
      <point x="433" y="305"/>
      <point x="444" y="291"/>
      <point x="460" y="291" type="curve" smooth="yes"/>
      <point x="474" y="291"/>
      <point x="485" y="304"/>
      <point x="485" y="317" type="curve" smooth="yes"/>
      <point x="483" y="344"/>
      <point x="437" y="364"/>
      <point x="393" y="364" type="curve" smooth="yes"/>
      <point x="312" y="364"/>
      <point x="222" y="303"/>
      <point x="222" y="195" type="curve" smooth="yes"/>
      <point x="222" y="120"/>
      <point x="274" y="39"/>
      <point x="400" y="39" type="curve" smooth="yes"/>
      <point x="536" y="39"/>
      <point x="641" y="145"/>
      <point x="641" y="270" type="curve" smooth="yes"/>
      <point x="641" y="393"/>
      <point x="546" y="497"/>
      <point x="394" y="497" type="curve" smooth="yes"/>
      <point x="228" y="497"/>
      <point x="76" y="373"/>
      <point x="76" y="191" type="curve" smooth="yes"/>
      <point x="76" y="-9"/>
      <point x="241" y="-101"/>
      <point x="366" y="-101" type="curve" smooth="yes"/>
    </contour>
    <contour>
      <point x="339" y="309" type="move" name="top"/>
    </contour>
    <contour>
      <point x="347" y="0" type="move" name="bottom"/>
    </contour>
  </outline>
</glyph>
<glyph name="ordfeminine" format="1">
  <advance width="276"/>
  <unicode hex="00AA"/>
  <outline>
    <contour>
      <point x="258" y="288" type="line" smooth="yes"/>
      <point x="264" y="288"/>
      <point x="264" y="313"/>
      <point x="258" y="313" type="curve" smooth="yes"/>
      <point x="33" y="313" type="line" smooth="yes"/>
      <point x="28" y="313"/>
      <point x="28" y="288"/>
      <point x="34" y="288" type="curve" smooth="yes"/>
    </contour>
    <contour>
      <point x="275" y="398" type="line" smooth="yes"/>
      <point x="278" y="400"/>
      <point x="274" y="409"/>
      <point x="269" y="407" type="curve" smooth="yes"/>
      <point x="225" y="391"/>
      <point x="211" y="395"/>
      <point x="211" y="441" type="curve" smooth="yes"/>
      <point x="211" y="558" type="line" smooth="yes"/>
      <point x="211" y="608"/>
      <point x="187" y="630"/>
      <point x="157" y="630" type="curve" smooth="yes"/>
      <point x="115" y="630"/>
      <point x="37" y="588"/>
      <point x="37" y="558" type="curve" smooth="yes"/>
      <point x="37" y="550"/>
      <point x="46" y="540"/>
      <point x="58" y="540" type="curve" smooth="yes"/>
      <point x="74" y="540"/>
      <point x="76" y="552"/>
      <point x="78" y="561" type="curve" smooth="yes"/>
      <point x="84" y="589"/>
      <point x="101" y="612"/>
      <point x="130" y="612" type="curve" smooth="yes"/>
      <point x="156" y="612"/>
      <point x="180" y="606"/>
      <point x="180" y="538" type="curve" smooth="yes"/>
      <point x="180" y="419" type="line" smooth="yes"/>
      <point x="180" y="378"/>
      <point x="194" y="360"/>
      <point x="207" y="366" type="curve" smooth="yes"/>
    </contour>
    <contour>
      <point x="98" y="365"/>
      <point x="110" y="371"/>
      <point x="136" y="385" type="curve" smooth="yes"/>
      <point x="194" y="416" type="line"/>
      <point x="193" y="427" type="line"/>
      <point x="131" y="395" type="line" smooth="yes"/>
      <point x="124" y="392"/>
      <point x="115" y="389"/>
      <point x="105" y="389" type="curve" smooth="yes"/>
      <point x="88" y="389"/>
      <point x="76" y="401"/>
      <point x="76" y="416" type="curve" smooth="yes"/>
      <point x="76" y="429"/>
      <point x="83" y="433"/>
      <point x="103" y="441" type="curve" smooth="yes"/>
      <point x="188" y="474" type="line"/>
      <point x="187" y="484" type="line"/>
      <point x="97" y="451" type="line" smooth="yes"/>
      <point x="53" y="435"/>
      <point x="37" y="426"/>
      <point x="37" y="404" type="curve" smooth="yes"/>
      <point x="37" y="382"/>
      <point x="54" y="365"/>
      <point x="81" y="365" type="curve" smooth="yes"/>
    </contour>
    <contour>
      <point x="247" y="378" type="move" name="ogonek"/>
    </contour>
    <contour>
      <point x="138" y="625" type="move" name="top"/>
    </contour>
  </outline>
</glyph>
<glyph name="guillemetleft" format="1">
  <advance width="451"/>
  <unicode hex="00AB"/>
  <outline>
    <contour>
      <point x="237" y="36"/>
      <point x="243" y="43"/>
      <point x="242" y="46" type="curve" smooth="yes"/>
      <point x="112" y="201" type="line"/>
      <point x="242" y="356" type="line" smooth="yes"/>
      <point x="244" y="359"/>
      <point x="237" y="365"/>
      <point x="235" y="361" type="curve" smooth="yes"/>
      <point x="61" y="212" type="line" smooth="yes"/>
      <point x="55" y="206"/>
      <point x="55" y="195"/>
      <point x="61" y="189" type="curve" smooth="yes"/>
      <point x="235" y="40" type="line" smooth="yes"/>
    </contour>
    <contour>
      <point x="385" y="36"/>
      <point x="391" y="43"/>
      <point x="389" y="46" type="curve" smooth="yes"/>
      <point x="260" y="201" type="line"/>
      <point x="389" y="356" type="line" smooth="yes"/>
      <point x="392" y="359"/>
      <point x="385" y="365"/>
      <point x="382" y="361" type="curve" smooth="yes"/>
      <point x="208" y="212" type="line" smooth="yes"/>
      <point x="202" y="206"/>
      <point x="202" y="195"/>
      <point x="208" y="189" type="curve" smooth="yes"/>
      <point x="382" y="40" type="line" smooth="yes"/>
    </contour>
  </outline>
</glyph>
<glyph name="logicalnot" format="1">
  <advance width="395"/>
  <unicode hex="00AC"/>
  <outline>
    <contour>
      <point x="364" y="267" type="line"/>
      <point x="326" y="267" type="line"/>
      <point x="326" y="76" type="line" smooth="yes"/>
      <point x="326" y="71"/>
      <point x="364" y="71"/>
      <point x="364" y="77" type="curve" smooth="yes"/>
    </contour>
    <contour>
      <point x="364" y="229" type="line"/>
      <point x="364" y="267" type="line"/>
      <point x="33" y="267" type="line" smooth="yes"/>
      <point x="28" y="267"/>
      <point x="28" y="229"/>
      <point x="34" y="229" type="curve" smooth="yes"/>
    </contour>
  </outline>
</glyph>
<glyph name="registered" format="1">
  <advance width="752"/>
  <unicode hex="00AE"/>
  <outline>
    <contour>
      <point x="535" y="138"/>
      <point x="676" y="275"/>
      <point x="676" y="451" type="curve" smooth="yes"/>
      <point x="676" y="598"/>
      <point x="567" y="725"/>
      <point x="394" y="725" type="curve" smooth="yes"/>
      <point x="228" y="725"/>
      <point x="76" y="601"/>
      <point x="76" y="430" type="curve" smooth="yes"/>
      <point x="76" y="239"/>
      <point x="229" y="138"/>
      <point x="368" y="138" type="curve" smooth="yes"/>
    </contour>
    <contour>
      <point x="255" y="271"/>
      <point x="287" y="273"/>
      <point x="310" y="273" type="curve" smooth="yes"/>
      <point x="339" y="273"/>
      <point x="363" y="271"/>
      <point x="382" y="271" type="curve" smooth="yes"/>
      <point x="385" y="271"/>
      <point x="385" y="283"/>
      <point x="382" y="283" type="curve" smooth="yes"/>
      <point x="336" y="283"/>
      <point x="329" y="288"/>
      <point x="329" y="327" type="curve" smooth="yes"/>
      <point x="329" y="540" type="line" smooth="yes"/>
      <point x="329" y="587"/>
      <point x="340" y="588"/>
      <point x="375" y="588" type="curve" smooth="yes"/>
      <point x="416" y="588"/>
      <point x="443" y="566"/>
      <point x="443" y="512" type="curve" smooth="yes"/>
      <point x="443" y="448"/>
      <point x="396" y="437"/>
      <point x="320" y="450" type="curve"/>
      <point x="320" y="430" type="line"/>
      <point x="425" y="425"/>
      <point x="481" y="468"/>
      <point x="481" y="536" type="curve" smooth="yes"/>
      <point x="481" y="581"/>
      <point x="449" y="601"/>
      <point x="392" y="601" type="curve" smooth="yes"/>
      <point x="370" y="601"/>
      <point x="335" y="598"/>
      <point x="310" y="598" type="curve" smooth="yes"/>
      <point x="287" y="598"/>
      <point x="258" y="599"/>
      <point x="239" y="599" type="curve" smooth="yes"/>
      <point x="236" y="599"/>
      <point x="236" y="587"/>
      <point x="239" y="587" type="curve" smooth="yes"/>
      <point x="287" y="587"/>
      <point x="294" y="579"/>
      <point x="294" y="543" type="curve" smooth="yes"/>
      <point x="294" y="327" type="line" smooth="yes"/>
      <point x="294" y="288"/>
      <point x="287" y="283"/>
      <point x="239" y="283" type="curve" smooth="yes"/>
      <point x="236" y="283"/>
      <point x="236" y="271"/>
      <point x="239" y="271" type="curve" smooth="yes"/>
    </contour>
    <contour>
      <point x="269" y="167"/>
      <point x="115" y="263"/>
      <point x="115" y="453" type="curve" smooth="yes"/>
      <point x="115" y="585"/>
      <point x="202" y="702"/>
      <point x="364" y="702" type="curve" smooth="yes"/>
      <point x="524" y="702"/>
      <point x="644" y="579"/>
      <point x="644" y="423" type="curve" smooth="yes"/>
      <point x="644" y="265"/>
      <point x="543" y="167"/>
      <point x="393" y="167" type="curve" smooth="yes"/>
    </contour>
    <contour>
      <point x="502" y="271"/>
      <point x="527" y="271"/>
      <point x="565" y="271" type="curve" smooth="yes"/>
      <point x="567" y="271"/>
      <point x="567" y="280"/>
      <point x="565" y="280" type="curve" smooth="yes"/>
      <point x="511" y="280"/>
      <point x="489" y="326"/>
      <point x="425" y="449" type="curve"/>
      <point x="388" y="435" type="line"/>
      <point x="440" y="336"/>
      <point x="477" y="271"/>
      <point x="491" y="271" type="curve" smooth="yes"/>
    </contour>
    <contour>
      <point x="360" y="595" type="move" name="top"/>
    </contour>
    <contour>
      <point x="399" y="268" type="move" name="bottom"/>
    </contour>
  </outline>
</glyph>
<glyph name="macron" format="1">
  <advance width="345"/>
  <unicode hex="00AF"/>
  <outline>
    <contour>
      <point x="298" y="485" type="line" smooth="yes"/>
      <point x="305" y="485"/>
      <point x="305" y="511"/>
      <point x="298" y="511" type="curve" smooth="yes"/>
      <point x="47" y="511" type="line" smooth="yes"/>
      <point x="40" y="511"/>
      <point x="40" y="485"/>
      <point x="47" y="485" type="curve" smooth="yes"/>
    </contour>
    <contour>
      <point x="173" y="386" type="move" name="_top"/>
    </contour>
  </outline>
</glyph>
<glyph name="degree" format="1">
  <advance width="332"/>
  <unicode hex="00B0"/>
  <outline>
    <contour>
      <point x="249" y="373"/>
      <point x="303" y="429"/>
      <point x="303" y="501" type="curve" smooth="yes"/>
      <point x="303" y="573"/>
      <point x="250" y="630"/>
      <point x="167" y="630" type="curve" smooth="yes"/>
      <point x="84" y="630"/>
      <point x="29" y="572"/>
      <point x="29" y="503" type="curve" smooth="yes"/>
      <point x="29" y="430"/>
      <point x="84" y="373"/>
      <point x="167" y="373" type="curve" smooth="yes"/>
    </contour>
    <contour>
      <point x="102" y="384"/>
      <point x="83" y="437"/>
      <point x="83" y="506" type="curve" smooth="yes"/>
      <point x="83" y="570"/>
      <point x="95" y="620"/>
      <point x="161" y="620" type="curve" smooth="yes"/>
      <point x="222" y="620"/>
      <point x="250" y="577"/>
      <point x="250" y="494" type="curve" smooth="yes"/>
      <point x="250" y="430"/>
      <point x="242" y="384"/>
      <point x="174" y="384" type="curve" smooth="yes"/>
    </contour>
    <contour>
      <point x="166" y="695" type="move" name="top"/>
    </contour>
  </outline>
</glyph>
<glyph name="twosuperior" format="1">
  <advance width="250"/>
  <unicode hex="00B2"/>
  <outline>
    <contour>
      <point x="33" y="405"/>
      <point x="34" y="402"/>
      <point x="37" y="402" type="curve" smooth="yes"/>
      <point x="90" y="402"/>
      <point x="160" y="402"/>
      <point x="211" y="402" type="curve" smooth="yes"/>
      <point x="213" y="402"/>
      <point x="215" y="405"/>
      <point x="215" y="407" type="curve" smooth="yes"/>
      <point x="216" y="491" type="line" smooth="yes"/>
      <point x="216" y="494"/>
      <point x="211" y="494"/>
      <point x="211" y="491" type="curve" smooth="yes"/>
      <point x="193" y="435"/>
      <point x="194" y="434"/>
      <point x="67" y="434" type="curve" smooth="yes"/>
      <point x="64" y="434"/>
      <point x="64" y="435"/>
      <point x="64" y="437" type="curve" smooth="yes"/>
      <point x="85" y="491"/>
      <point x="201" y="588"/>
      <point x="201" y="658" type="curve" smooth="yes"/>
      <point x="201" y="697"/>
      <point x="175" y="729"/>
      <point x="123" y="729" type="curve" smooth="yes"/>
      <point x="67" y="729"/>
      <point x="41" y="694"/>
      <point x="29" y="653" type="curve" smooth="yes"/>
      <point x="28" y="648"/>
      <point x="40" y="646"/>
      <point x="41" y="650" type="curve" smooth="yes"/>
      <point x="49" y="683"/>
      <point x="74" y="709"/>
      <point x="108" y="709" type="curve" smooth="yes"/>
      <point x="139" y="709"/>
      <point x="160" y="687"/>
      <point x="160" y="650" type="curve" smooth="yes"/>
      <point x="160" y="571"/>
      <point x="53" y="465"/>
      <point x="34" y="408" type="curve" smooth="yes"/>
    </contour>
  </outline>
</glyph>
<glyph name="threesuperior" format="1">
  <advance width="251"/>
  <unicode hex="00B3"/>
  <outline>
    <contour>
      <point x="168" y="578"/>
      <point x="201" y="615"/>
      <point x="201" y="657" type="curve" smooth="yes"/>
      <point x="201" y="698"/>
      <point x="171" y="729"/>
      <point x="122" y="729" type="curve" smooth="yes"/>
      <point x="68" y="729"/>
      <point x="40" y="694"/>
      <point x="29" y="653" type="curve" smooth="yes"/>
      <point x="28" y="648"/>
      <point x="40" y="646"/>
      <point x="41" y="650" type="curve" smooth="yes"/>
      <point x="49" y="683"/>
      <point x="75" y="709"/>
      <point x="106" y="709" type="curve" smooth="yes"/>
      <point x="139" y="709"/>
      <point x="160" y="682"/>
      <point x="160" y="650" type="curve" smooth="yes"/>
      <point x="160" y="621"/>
      <point x="140" y="577"/>
      <point x="98" y="577" type="curve" smooth="yes"/>
      <point x="95" y="577"/>
      <point x="95" y="565"/>
      <point x="98" y="565" type="curve" smooth="yes"/>
      <point x="140" y="565"/>
      <point x="173" y="532"/>
      <point x="173" y="481" type="curve" smooth="yes"/>
      <point x="173" y="429"/>
      <point x="144" y="413"/>
      <point x="110" y="413" type="curve" smooth="yes"/>
      <point x="62" y="413"/>
      <point x="41" y="446"/>
      <point x="35" y="468" type="curve" smooth="yes"/>
      <point x="34" y="473"/>
      <point x="22" y="470"/>
      <point x="23" y="465" type="curve" smooth="yes"/>
      <point x="33" y="427"/>
      <point x="61" y="396"/>
      <point x="115" y="396" type="curve" smooth="yes"/>
      <point x="179" y="396"/>
      <point x="214" y="443"/>
      <point x="214" y="494" type="curve" smooth="yes"/>
      <point x="214" y="549"/>
      <point x="170" y="567"/>
      <point x="118" y="575" type="curve"/>
      <point x="119" y="567" type="line"/>
    </contour>
  </outline>
</glyph>
<glyph name="paragraph" format="1">
  <advance width="634"/>
  <unicode hex="00B6"/>
  <outline>
    <contour>
      <point x="442" y="-193"/>
      <point x="489" y="-117"/>
      <point x="489" y="55" type="curve" smooth="yes"/>
      <point x="488" y="532" type="line" smooth="yes"/>
      <point x="488" y="584"/>
      <point x="519" y="613"/>
      <point x="577" y="613" type="curve" smooth="yes"/>
      <point x="580" y="613"/>
      <point x="580" y="625"/>
      <point x="577" y="625" type="curve" smooth="yes"/>
      <point x="544" y="625"/>
      <point x="504" y="622"/>
      <point x="467" y="622" type="curve" smooth="yes"/>
      <point x="408" y="622"/>
      <point x="363" y="628"/>
      <point x="318" y="628" type="curve" smooth="yes"/>
      <point x="156" y="628"/>
      <point x="54" y="547"/>
      <point x="54" y="386" type="curve" smooth="yes"/>
      <point x="54" y="187"/>
      <point x="209" y="122"/>
      <point x="345" y="122" type="curve" smooth="yes"/>
      <point x="379" y="122"/>
      <point x="406" y="123"/>
      <point x="433" y="125" type="curve"/>
      <point x="433" y="8" type="line" smooth="yes"/>
      <point x="433" y="-119"/>
      <point x="418" y="-170"/>
      <point x="378" y="-170" type="curve" smooth="yes"/>
      <point x="327" y="-170"/>
      <point x="345" y="-123"/>
      <point x="303" y="-123" type="curve" smooth="yes"/>
      <point x="287" y="-123"/>
      <point x="276" y="-135"/>
      <point x="276" y="-154" type="curve" smooth="yes"/>
      <point x="276" y="-174"/>
      <point x="297" y="-193"/>
      <point x="327" y="-193" type="curve" smooth="yes"/>
    </contour>
  </outline>
</glyph>
<glyph name="onesuperior" format="1">
  <advance width="262"/>
  <unicode hex="00B9"/>
  <outline>
    <contour>
      <point x="73" y="402"/>
      <point x="105" y="405"/>
      <point x="138" y="405" type="curve" smooth="yes"/>
      <point x="170" y="405"/>
      <point x="198" y="402"/>
      <point x="221" y="402" type="curve" smooth="yes"/>
      <point x="225" y="402"/>
      <point x="225" y="414"/>
      <point x="221" y="414" type="curve" smooth="yes"/>
      <point x="160" y="414"/>
      <point x="156" y="420"/>
      <point x="156" y="483" type="curve" smooth="yes"/>
      <point x="156" y="720" type="line" smooth="yes"/>
      <point x="156" y="724"/>
      <point x="151" y="730"/>
      <point x="146" y="727" type="curve" smooth="yes"/>
      <point x="36" y="673" type="line" smooth="yes"/>
      <point x="30" y="670"/>
      <point x="37" y="660"/>
      <point x="42" y="662" type="curve" smooth="yes"/>
      <point x="127" y="699"/>
      <point x="118" y="694"/>
      <point x="118" y="601" type="curve" smooth="yes"/>
      <point x="118" y="483" type="line" smooth="yes"/>
      <point x="118" y="420"/>
      <point x="112" y="414"/>
      <point x="49" y="414" type="curve" smooth="yes"/>
      <point x="46" y="414"/>
      <point x="46" y="402"/>
      <point x="49" y="402" type="curve" smooth="yes"/>
    </contour>
  </outline>
</glyph>
<glyph name="ordmasculine" format="1">
  <advance width="313"/>
  <unicode hex="00BA"/>
  <outline>
    <contour>
      <point x="278" y="288" type="line" smooth="yes"/>
      <point x="284" y="288"/>
      <point x="284" y="313"/>
      <point x="278" y="313" type="curve" smooth="yes"/>
      <point x="35" y="313" type="line" smooth="yes"/>
      <point x="30" y="313"/>
      <point x="30" y="288"/>
      <point x="36" y="288" type="curve" smooth="yes"/>
    </contour>
    <contour>
      <point x="226" y="359"/>
      <point x="290" y="419"/>
      <point x="290" y="495" type="curve" smooth="yes"/>
      <point x="290" y="564"/>
      <point x="243" y="630"/>
      <point x="164" y="630" type="curve" smooth="yes"/>
      <point x="101" y="630"/>
      <point x="25" y="588"/>
      <point x="25" y="498" type="curve" smooth="yes"/>
      <point x="25" y="423"/>
      <point x="74" y="359"/>
      <point x="152" y="359" type="curve" smooth="yes"/>
    </contour>
    <contour>
      <point x="105" y="374"/>
      <point x="62" y="442"/>
      <point x="62" y="517" type="curve" smooth="yes"/>
      <point x="62" y="579"/>
      <point x="92" y="614"/>
      <point x="145" y="614" type="curve" smooth="yes"/>
      <point x="208" y="614"/>
      <point x="253" y="553"/>
      <point x="253" y="477" type="curve" smooth="yes"/>
      <point x="253" y="413"/>
      <point x="219" y="374"/>
      <point x="167" y="374" type="curve" smooth="yes"/>
    </contour>
    <contour>
      <point x="158" y="625" type="move" name="top"/>
    </contour>
  </outline>
</glyph>
<glyph name="guillemetright" format="1">
  <advance width="451"/>
  <unicode hex="00BB"/>
  <outline>
    <contour>
      <point x="214" y="365"/>
      <point x="208" y="358"/>
      <point x="209" y="356" type="curve" smooth="yes"/>
      <point x="339" y="200" type="line"/>
      <point x="209" y="46" type="line" smooth="yes"/>
      <point x="207" y="42"/>
      <point x="214" y="36"/>
      <point x="216" y="40" type="curve" smooth="yes"/>
      <point x="391" y="189" type="line" smooth="yes"/>
      <point x="396" y="195"/>
      <point x="396" y="206"/>
      <point x="391" y="212" type="curve" smooth="yes"/>
      <point x="216" y="361" type="line" smooth="yes"/>
    </contour>
    <contour>
      <point x="67" y="365"/>
      <point x="61" y="358"/>
      <point x="62" y="356" type="curve" smooth="yes"/>
      <point x="192" y="200" type="line"/>
      <point x="62" y="46" type="line" smooth="yes"/>
      <point x="60" y="42"/>
      <point x="67" y="36"/>
      <point x="69" y="40" type="curve" smooth="yes"/>
      <point x="243" y="189" type="line" smooth="yes"/>
      <point x="249" y="195"/>
      <point x="249" y="206"/>
      <point x="243" y="212" type="curve" smooth="yes"/>
      <point x="69" y="361" type="line" smooth="yes"/>
    </contour>
  </outline>
</glyph>
<glyph name="AE" format="1">
  <advance width="871"/>
  <unicode hex="00C6"/>
  <outline>
    <contour>
      <point x="40" y="0"/>
      <point x="58" y="4"/>
      <point x="101" y="4" type="curve" smooth="yes"/>
      <point x="152" y="4"/>
      <point x="179" y="0"/>
      <point x="219" y="0" type="curve" smooth="yes"/>
      <point x="225" y="0"/>
      <point x="225" y="12"/>
      <point x="219" y="12" type="curve" smooth="yes"/>
      <point x="133" y="12"/>
      <point x="118" y="47"/>
      <point x="171" y="123" type="curve" smooth="yes"/>
      <point x="505" y="604" type="line"/>
      <point x="483" y="588" type="line"/>
      <point x="483" y="81" type="line" smooth="yes"/>
      <point x="483" y="23"/>
      <point x="470" y="12"/>
      <point x="394" y="12" type="curve" smooth="yes"/>
      <point x="391" y="12"/>
      <point x="391" y="0"/>
      <point x="394" y="0" type="curve" smooth="yes"/>
      <point x="795" y="0" type="line" smooth="yes"/>
      <point x="807" y="0"/>
      <point x="811" y="4"/>
      <point x="811" y="15" type="curve" smooth="yes"/>
      <point x="811" y="56"/>
      <point x="815" y="110"/>
      <point x="820" y="145" type="curve" smooth="yes"/>
      <point x="820" y="149"/>
      <point x="808" y="150"/>
      <point x="808" y="146" type="curve" smooth="yes"/>
      <point x="798" y="70"/>
      <point x="756" y="19"/>
      <point x="703" y="19" type="curve" smooth="yes"/>
      <point x="622" y="19" type="line" smooth="yes"/>
      <point x="549" y="19"/>
      <point x="536" y="29"/>
      <point x="536" y="85" type="curve" smooth="yes"/>
      <point x="536" y="543" type="line" smooth="yes"/>
      <point x="536" y="596"/>
      <point x="549" y="606"/>
      <point x="622" y="606" type="curve" smooth="yes"/>
      <point x="680" y="606" type="line" smooth="yes"/>
      <point x="738" y="606"/>
      <point x="778" y="561"/>
      <point x="778" y="495" type="curve" smooth="yes"/>
      <point x="778" y="491"/>
      <point x="789" y="491"/>
      <point x="789" y="495" type="curve" smooth="yes"/>
      <point x="787" y="616" type="line" smooth="yes"/>
      <point x="787" y="622"/>
      <point x="785" y="625"/>
      <point x="778" y="625" type="curve" smooth="yes"/>
      <point x="394" y="625" type="line" smooth="yes"/>
      <point x="391" y="625"/>
      <point x="391" y="613"/>
      <point x="394" y="613" type="curve" smooth="yes"/>
      <point x="477" y="613"/>
      <point x="483" y="609"/>
      <point x="458" y="574" type="curve" smooth="yes"/>
      <point x="151" y="132" type="line" smooth="yes"/>
      <point x="99" y="58"/>
      <point x="43" y="12"/>
      <point x="5" y="12" type="curve" smooth="yes"/>
      <point x="-1" y="12"/>
      <point x="-1" y="0"/>
      <point x="5" y="0" type="curve" smooth="yes"/>
    </contour>
    <contour>
      <point x="518" y="316" type="line"/>
      <point x="511" y="335" type="line"/>
      <point x="305" y="335" type="line"/>
      <point x="290" y="316" type="line"/>
    </contour>
    <contour>
      <point x="739" y="232"/>
      <point x="751" y="232"/>
      <point x="751" y="235" type="curve" smooth="yes"/>
      <point x="751" y="268"/>
      <point x="749" y="295"/>
      <point x="749" y="325" type="curve" smooth="yes"/>
      <point x="749" y="349"/>
      <point x="750" y="365"/>
      <point x="750" y="404" type="curve" smooth="yes"/>
      <point x="750" y="407"/>
      <point x="738" y="407"/>
      <point x="738" y="404" type="curve" smooth="yes"/>
      <point x="738" y="353"/>
      <point x="717" y="335"/>
      <point x="656" y="335" type="curve" smooth="yes"/>
      <point x="511" y="335" type="line"/>
      <point x="511" y="316" type="line" smooth="yes"/>
      <point x="653" y="316" type="line" smooth="yes"/>
      <point x="717" y="316"/>
      <point x="739" y="295"/>
      <point x="739" y="235" type="curve" smooth="yes"/>
    </contour>
    <contour>
      <point x="579" y="625" type="move" name="top"/>
    </contour>
    <contour>
      <point x="436" y="0" type="move" name="bottom"/>
    </contour>
  </outline>
</glyph>
<glyph name="Eth" format="1">
  <advance width="688"/>
  <unicode hex="00D0"/>
  <outline>
    <contour>
      <point x="315" y="302" type="line" smooth="yes"/>
      <point x="320" y="302"/>
      <point x="320" y="320"/>
      <point x="315" y="320" type="curve" smooth="yes"/>
      <point x="53" y="320" type="line" smooth="yes"/>
      <point x="47" y="320"/>
      <point x="47" y="302"/>
      <point x="53" y="302" type="curve" smooth="yes"/>
    </contour>
    <component base="D"/>
  </outline>
</glyph>
<glyph name="multiply" format="1">
  <advance width="378"/>
  <unicode hex="00D7"/>
  <outline>
    <contour>
      <point x="319" y="292" type="line" smooth="yes"/>
      <point x="323" y="297"/>
      <point x="297" y="323"/>
      <point x="292" y="319" type="curve" smooth="yes"/>
      <point x="58" y="85" type="line" smooth="yes"/>
      <point x="55" y="82"/>
      <point x="82" y="55"/>
      <point x="85" y="60" type="curve" smooth="yes"/>
    </contour>
    <contour>
      <point x="292" y="60" type="line" smooth="yes"/>
      <point x="297" y="56"/>
      <point x="323" y="82"/>
      <point x="319" y="87" type="curve" smooth="yes"/>
      <point x="85" y="320" type="line" smooth="yes"/>
      <point x="82" y="324"/>
      <point x="55" y="297"/>
      <point x="60" y="294" type="curve" smooth="yes"/>
    </contour>
  </outline>
</glyph>
<glyph name="Oslash" format="1">
  <advance width="766"/>
  <unicode hex="00D8"/>
  <outline>
    <contour>
      <point x="691" y="618" type="line" smooth="yes"/>
      <point x="696" y="622"/>
      <point x="681" y="633"/>
      <point x="677" y="629" type="curve" smooth="yes"/>
      <point x="64" y="7" type="line" smooth="yes"/>
      <point x="60" y="2"/>
      <point x="74" y="-11"/>
      <point x="77" y="-7" type="curve" smooth="yes"/>
    </contour>
    <component base="O"/>
    <contour>
      <point x="384" y="625" type="move" name="top"/>
    </contour>
    <contour>
      <point x="384" y="0" type="move" name="bottom"/>
    </contour>
  </outline>
</glyph>
<glyph name="Thorn" format="1">
  <advance width="535"/>
  <unicode hex="00DE"/>
  <outline>
    <contour>
      <point x="133" y="81" type="line" smooth="yes"/>
      <point x="133" y="23"/>
      <point x="120" y="12"/>
      <point x="44" y="12" type="curve" smooth="yes"/>
      <point x="41" y="12"/>
      <point x="41" y="0"/>
      <point x="44" y="0" type="curve" smooth="yes"/>
      <point x="76" y="0"/>
      <point x="117" y="2"/>
      <point x="160" y="2" type="curve" smooth="yes"/>
      <point x="219" y="2"/>
      <point x="268" y="0"/>
      <point x="311" y="0" type="curve" smooth="yes"/>
      <point x="315" y="0"/>
      <point x="315" y="12"/>
      <point x="311" y="12" type="curve" smooth="yes"/>
      <point x="202" y="12"/>
      <point x="186" y="25"/>
      <point x="186" y="85" type="curve" smooth="yes"/>
      <point x="186" y="539" type="line" smooth="yes"/>
      <point x="186" y="600"/>
      <point x="202" y="613"/>
      <point x="311" y="613" type="curve" smooth="yes"/>
      <point x="315" y="613"/>
      <point x="315" y="625"/>
      <point x="311" y="625" type="curve" smooth="yes"/>
      <point x="268" y="625"/>
      <point x="219" y="622"/>
      <point x="160" y="622" type="curve" smooth="yes"/>
      <point x="117" y="622"/>
      <point x="76" y="625"/>
      <point x="44" y="625" type="curve" smooth="yes"/>
      <point x="41" y="625"/>
      <point x="41" y="613"/>
      <point x="44" y="613" type="curve" smooth="yes"/>
      <point x="120" y="613"/>
      <point x="133" y="601"/>
      <point x="133" y="544" type="curve" smooth="yes"/>
    </contour>
    <contour>
      <point x="159" y="471" type="line"/>
      <point x="187" y="480"/>
      <point x="221" y="487"/>
      <point x="256" y="487" type="curve" smooth="yes"/>
      <point x="361" y="487"/>
      <point x="435" y="425"/>
      <point x="435" y="316" type="curve" smooth="yes"/>
      <point x="435" y="200"/>
      <point x="353" y="147"/>
      <point x="265" y="147" type="curve" smooth="yes"/>
      <point x="254" y="147"/>
      <point x="241" y="149"/>
      <point x="229" y="151" type="curve" smooth="yes"/>
      <point x="225" y="152"/>
      <point x="222" y="139"/>
      <point x="227" y="138" type="curve" smooth="yes"/>
      <point x="242" y="135"/>
      <point x="258" y="133"/>
      <point x="276" y="133" type="curve" smooth="yes"/>
      <point x="377" y="133"/>
      <point x="501" y="194"/>
      <point x="497" y="336" type="curve" smooth="yes"/>
      <point x="494" y="457"/>
      <point x="399" y="499"/>
      <point x="281" y="499" type="curve" smooth="yes"/>
      <point x="241" y="499"/>
      <point x="192" y="495"/>
      <point x="151" y="483" type="curve"/>
    </contour>
    <contour>
      <point x="268" y="625" type="move" name="top"/>
    </contour>
    <contour>
      <point x="268" y="0" type="move" name="bottom"/>
    </contour>
  </outline>
</glyph>
